<svg xmlns="http://www.w3.org/2000/svg" xmlns:xlink="http://www.w3.org/1999/xlink" contentStyleType="text/css" data-diagram-type="DESCRIPTION" height="454px" preserveAspectRatio="none" style="width:1701px;height:454px;background:#FFFFFF;" version="1.1" viewBox="0 0 1701 454" width="1701px" zoomAndPan="magnify"><defs/><g><!--cluster CTRM Platform--><g class="cluster" data-entity="CTRM Platform" data-source-line="13" data-uid="ent0011" id="cluster_CTRM Platform"><polygon fill="#FFFFFF" points="25.33,160.3,35.33,150.3,1684.33,150.3,1684.33,314.59,1674.33,324.59,25.33,324.59,25.33,160.3" style="stroke:#000000;stroke-width:1;"/><line style="stroke:#000000;stroke-width:1;" x1="1674.33" x2="1684.33" y1="160.3" y2="150.3"/><line style="stroke:#000000;stroke-width:1;" x1="25.33" x2="1674.33" y1="160.3" y2="160.3"/><line style="stroke:#000000;stroke-width:1;" x1="1674.33" x2="1674.33" y1="160.3" y2="324.59"/><text fill="#000000" font-family="Verdana" font-size="14" font-weight="bold" lengthAdjust="spacing" textLength="117.8105" x="791.9247" y="176.2951">CTRM Platform</text></g><!--cluster Front Office--><g class="cluster" data-entity="Front Office" data-source-line="14" data-uid="ent0012" id="cluster_Front Office"><polygon fill="#FFFFFF" points="49.33,208.3,59.33,198.3,448.33,198.3,448.33,290.59,438.33,300.59,49.33,300.59,49.33,208.3" style="stroke:#000000;stroke-width:1;"/><line style="stroke:#000000;stroke-width:1;" x1="438.33" x2="448.33" y1="208.3" y2="198.3"/><line style="stroke:#000000;stroke-width:1;" x1="49.33" x2="438.33" y1="208.3" y2="208.3"/><line style="stroke:#000000;stroke-width:1;" x1="438.33" x2="438.33" y1="208.3" y2="300.59"/><text fill="#000000" font-family="Verdana" font-size="14" font-weight="bold" lengthAdjust="spacing" textLength="94.2949" x="197.6825" y="224.2951">Front Office</text></g><!--cluster Middle Office--><g class="cluster" data-entity="Middle Office" data-source-line="18" data-uid="ent0015" id="cluster_Middle Office"><polygon fill="#FFFFFF" points="472.33,208.3,482.33,198.3,843.33,198.3,843.33,290.59,833.33,300.59,472.33,300.59,472.33,208.3" style="stroke:#000000;stroke-width:1;"/><line style="stroke:#000000;stroke-width:1;" x1="833.33" x2="843.33" y1="208.3" y2="198.3"/><line style="stroke:#000000;stroke-width:1;" x1="472.33" x2="833.33" y1="208.3" y2="208.3"/><line style="stroke:#000000;stroke-width:1;" x1="833.33" x2="833.33" y1="208.3" y2="300.59"/><text fill="#000000" font-family="Verdana" font-size="14" font-weight="bold" lengthAdjust="spacing" textLength="104.6172" x="601.5214" y="224.2951">Middle Office</text></g><!--cluster Back Office--><g class="cluster" data-entity="Back Office" data-source-line="22" data-uid="ent0018" id="cluster_Back Office"><polygon fill="#FFFFFF" points="867.33,208.3,877.33,198.3,1241.33,198.3,1241.33,290.59,1231.33,300.59,867.33,300.59,867.33,208.3" style="stroke:#000000;stroke-width:1;"/><line style="stroke:#000000;stroke-width:1;" x1="1231.33" x2="1241.33" y1="208.3" y2="198.3"/><line style="stroke:#000000;stroke-width:1;" x1="867.33" x2="1231.33" y1="208.3" y2="208.3"/><line style="stroke:#000000;stroke-width:1;" x1="1231.33" x2="1231.33" y1="208.3" y2="300.59"/><text fill="#000000" font-family="Verdana" font-size="14" font-weight="bold" lengthAdjust="spacing" textLength="89.2773" x="1005.6913" y="224.2951">Back Office</text></g><!--cluster Shared Services--><g class="cluster" data-entity="Shared Services" data-source-line="26" data-uid="ent0021" id="cluster_Shared Services"><polygon fill="#FFFFFF" points="1265.33,208.3,1275.33,198.3,1660.33,198.3,1660.33,290.59,1650.33,300.59,1265.33,300.59,1265.33,208.3" style="stroke:#000000;stroke-width:1;"/><line style="stroke:#000000;stroke-width:1;" x1="1650.33" x2="1660.33" y1="208.3" y2="198.3"/><line style="stroke:#000000;stroke-width:1;" x1="1265.33" x2="1650.33" y1="208.3" y2="208.3"/><line style="stroke:#000000;stroke-width:1;" x1="1650.33" x2="1650.33" y1="208.3" y2="300.59"/><text fill="#000000" font-family="Verdana" font-size="14" font-weight="bold" lengthAdjust="spacing" textLength="127.3262" x="1395.1669" y="224.2951">Shared Services</text></g><!--entity TRS--><g class="entity" data-entity="TRS" data-source-line="15" data-uid="ent0013" id="entity_TRS"><rect fill="#FFFFFF" height="46.2969" rx="2.5" ry="2.5" style="stroke:#000000;stroke-width:1;" width="149.6143" x="65.52" y="238.3"/><rect fill="#FFFFFF" height="10" style="stroke:#000000;stroke-width:1;" width="15" x="195.1343" y="243.3"/><rect fill="#FFFFFF" height="2" style="stroke:#000000;stroke-width:1;" width="4" x="193.1343" y="245.3"/><rect fill="#FFFFFF" height="2" style="stroke:#000000;stroke-width:1;" width="4" x="193.1343" y="249.3"/><text fill="#000000" font-family="Verdana" font-size="14" lengthAdjust="spacing" textLength="109.6143" x="80.52" y="271.2951">Trading Service</text></g><!--entity MDS--><g class="entity" data-entity="MDS" data-source-line="16" data-uid="ent0014" id="entity_MDS"><rect fill="#FFFFFF" height="46.2969" rx="2.5" ry="2.5" style="stroke:#000000;stroke-width:1;" width="182.6934" x="249.98" y="238.3"/><rect fill="#FFFFFF" height="10" style="stroke:#000000;stroke-width:1;" width="15" x="412.6734" y="243.3"/><rect fill="#FFFFFF" height="2" style="stroke:#000000;stroke-width:1;" width="4" x="410.6734" y="245.3"/><rect fill="#FFFFFF" height="2" style="stroke:#000000;stroke-width:1;" width="4" x="410.6734" y="249.3"/><text fill="#000000" font-family="Verdana" font-size="14" lengthAdjust="spacing" textLength="142.6934" x="264.98" y="271.2951">Market Data Service</text></g><!--entity RKS--><g class="entity" data-entity="RKS" data-source-line="19" data-uid="ent0016" id="entity_RKS"><rect fill="#FFFFFF" height="46.2969" rx="2.5" ry="2.5" style="stroke:#000000;stroke-width:1;" width="125.21" x="488.73" y="238.3"/><rect fill="#FFFFFF" height="10" style="stroke:#000000;stroke-width:1;" width="15" x="593.94" y="243.3"/><rect fill="#FFFFFF" height="2" style="stroke:#000000;stroke-width:1;" width="4" x="591.94" y="245.3"/><rect fill="#FFFFFF" height="2" style="stroke:#000000;stroke-width:1;" width="4" x="591.94" y="249.3"/><text fill="#000000" font-family="Verdana" font-size="14" lengthAdjust="spacing" textLength="85.21" x="503.73" y="271.2951">Risk Service</text></g><!--entity CMS--><g class="entity" data-entity="CMS" data-source-line="20" data-uid="ent0017" id="entity_CMS"><rect fill="#FFFFFF" height="46.2969" rx="2.5" ry="2.5" style="stroke:#000000;stroke-width:1;" width="178.5986" x="649.03" y="238.3"/><rect fill="#FFFFFF" height="10" style="stroke:#000000;stroke-width:1;" width="15" x="807.6286" y="243.3"/><rect fill="#FFFFFF" height="2" style="stroke:#000000;stroke-width:1;" width="4" x="805.6286" y="245.3"/><rect fill="#FFFFFF" height="2" style="stroke:#000000;stroke-width:1;" width="4" x="805.6286" y="249.3"/><text fill="#000000" font-family="Verdana" font-size="14" lengthAdjust="spacing" textLength="138.5986" x="664.03" y="271.2951">Compliance Service</text></g><!--entity FNS--><g class="entity" data-entity="FNS" data-source-line="23" data-uid="ent0019" id="entity_FNS"><rect fill="#FFFFFF" height="46.2969" rx="2.5" ry="2.5" style="stroke:#000000;stroke-width:1;" width="150.7695" x="1074.95" y="238.3"/><rect fill="#FFFFFF" height="10" style="stroke:#000000;stroke-width:1;" width="15" x="1205.7195" y="243.3"/><rect fill="#FFFFFF" height="2" style="stroke:#000000;stroke-width:1;" width="4" x="1203.7195" y="245.3"/><rect fill="#FFFFFF" height="2" style="stroke:#000000;stroke-width:1;" width="4" x="1203.7195" y="249.3"/><text fill="#000000" font-family="Verdana" font-size="14" lengthAdjust="spacing" textLength="110.7695" x="1089.95" y="271.2951">Finance Service</text></g><!--entity LGS--><g class="entity" data-entity="LGS" data-source-line="24" data-uid="ent0020" id="entity_LGS"><rect fill="#FFFFFF" height="46.2969" rx="2.5" ry="2.5" style="stroke:#000000;stroke-width:1;" width="156.9971" x="882.83" y="238.3"/><rect fill="#FFFFFF" height="10" style="stroke:#000000;stroke-width:1;" width="15" x="1019.8271" y="243.3"/><rect fill="#FFFFFF" height="2" style="stroke:#000000;stroke-width:1;" width="4" x="1017.8271" y="245.3"/><rect fill="#FFFFFF" height="2" style="stroke:#000000;stroke-width:1;" width="4" x="1017.8271" y="249.3"/><text fill="#000000" font-family="Verdana" font-size="14" lengthAdjust="spacing" textLength="116.9971" x="897.83" y="271.2951">Logistics Service</text></g><!--entity RDS--><g class="entity" data-entity="RDS" data-source-line="27" data-uid="ent0022" id="entity_RDS"><rect fill="#FFFFFF" height="46.2969" rx="2.5" ry="2.5" style="stroke:#000000;stroke-width:1;" width="205.5049" x="1281.58" y="238.3"/><rect fill="#FFFFFF" height="10" style="stroke:#000000;stroke-width:1;" width="15" x="1467.0849" y="243.3"/><rect fill="#FFFFFF" height="2" style="stroke:#000000;stroke-width:1;" width="4" x="1465.0849" y="245.3"/><rect fill="#FFFFFF" height="2" style="stroke:#000000;stroke-width:1;" width="4" x="1465.0849" y="249.3"/><text fill="#000000" font-family="Verdana" font-size="14" lengthAdjust="spacing" textLength="165.5049" x="1296.58" y="271.2951">Reference Data Service</text></g><!--entity IAMS--><g class="entity" data-entity="IAMS" data-source-line="28" data-uid="ent0023" id="entity_IAMS"><rect fill="#FFFFFF" height="46.2969" rx="2.5" ry="2.5" style="stroke:#000000;stroke-width:1;" width="121.9766" x="1522.34" y="238.3"/><rect fill="#FFFFFF" height="10" style="stroke:#000000;stroke-width:1;" width="15" x="1624.3166" y="243.3"/><rect fill="#FFFFFF" height="2" style="stroke:#000000;stroke-width:1;" width="4" x="1622.3166" y="245.3"/><rect fill="#FFFFFF" height="2" style="stroke:#000000;stroke-width:1;" width="4" x="1622.3166" y="249.3"/><text fill="#000000" font-family="Verdana" font-size="14" lengthAdjust="spacing" textLength="81.9766" x="1537.34" y="271.2951">IAM Service</text></g><!--entity Trader--><g class="entity" data-entity="Trader" data-source-line="3" data-uid="ent0002" id="entity_Trader"><ellipse cx="241.3313" cy="19" fill="#FFFFFF" rx="8" ry="8" style="stroke:#000000;stroke-width:1;"/><path d="M241.3313,27 L241.3313,54 M228.3313,35 L254.3313,35 M241.3313,54 L228.3313,69 M241.3313,54 L254.3313,69" fill="none" style="stroke:#000000;stroke-width:1;"/><text fill="#000000" font-family="Verdana" font-size="14" lengthAdjust="spacing" textLength="46.1426" x="218.26" y="83.9951">Trader</text></g><!--entity RiskManager--><g class="entity" data-entity="RiskManager" data-source-line="4" data-uid="ent0003" id="entity_RiskManager"><ellipse cx="551.3324" cy="19" fill="#FFFFFF" rx="8" ry="8" style="stroke:#000000;stroke-width:1;"/><path d="M551.3324,27 L551.3324,54 M538.3324,35 L564.3324,35 M551.3324,54 L538.3324,69 M551.3324,54 L564.3324,69" fill="none" style="stroke:#000000;stroke-width:1;"/><text fill="#000000" font-family="Verdana" font-size="14" lengthAdjust="spacing" textLength="90.3848" x="506.14" y="83.9951">RiskManager</text></g><!--entity Ops--><g class="entity" data-entity="Ops" data-source-line="5" data-uid="ent0004" id="entity_Ops"><ellipse cx="961.3252" cy="19" fill="#FFFFFF" rx="8" ry="8" style="stroke:#000000;stroke-width:1;"/><path d="M961.3252,27 L961.3252,54 M948.3252,35 L974.3252,35 M961.3252,54 L948.3252,69 M961.3252,54 L974.3252,69" fill="none" style="stroke:#000000;stroke-width:1;"/><text fill="#000000" font-family="Verdana" font-size="14" lengthAdjust="spacing" textLength="59.1104" x="931.77" y="83.9951">OpsUser</text></g><!--entity BackOffice--><g class="entity" data-entity="BackOffice" data-source-line="6" data-uid="ent0005" id="entity_BackOffice"><ellipse cx="1150.3327" cy="19" fill="#FFFFFF" rx="8" ry="8" style="stroke:#000000;stroke-width:1;"/><path d="M1150.3327,27 L1150.3327,54 M1137.3327,35 L1163.3327,35 M1150.3327,54 L1137.3327,69 M1150.3327,54 L1163.3327,69" fill="none" style="stroke:#000000;stroke-width:1;"/><text fill="#000000" font-family="Verdana" font-size="14" lengthAdjust="spacing" textLength="75.0654" x="1112.8" y="83.9951">BackOffice</text></g><!--entity ComplianceOfficer--><g class="entity" data-entity="ComplianceOfficer" data-source-line="7" data-uid="ent0006" id="entity_ComplianceOfficer"><ellipse cx="738.3301" cy="19" fill="#FFFFFF" rx="8" ry="8" style="stroke:#000000;stroke-width:1;"/><path d="M738.3301,27 L738.3301,54 M725.3301,35 L751.3301,35 M738.3301,54 L725.3301,69 M738.3301,54 L751.3301,69" fill="none" style="stroke:#000000;stroke-width:1;"/><text fill="#000000" font-family="Verdana" font-size="14" lengthAdjust="spacing" textLength="129.2402" x="673.71" y="83.9951">ComplianceOfficer</text></g><!--entity Exchange--><g class="entity" data-entity="Exchange" data-source-line="8" data-uid="ent0007" id="entity_Exchange"><ellipse cx="45.3267" cy="380.59" fill="#FFFFFF" rx="8" ry="8" style="stroke:#000000;stroke-width:1;"/><path d="M45.3267,388.59 L45.3267,415.59 M32.3267,396.59 L58.3267,396.59 M45.3267,415.59 L32.3267,430.59 M45.3267,415.59 L58.3267,430.59" fill="none" style="stroke:#000000;stroke-width:1;"/><text fill="#000000" font-family="Verdana" font-size="14" lengthAdjust="spacing" textLength="68.6533" x="11" y="445.5851">Exchange</text></g><!--entity MarketDataProvider--><g class="entity" data-entity="MarketDataProvider" data-source-line="9" data-uid="ent0008" id="entity_MarketDataProvider"><ellipse cx="340.333" cy="380.59" fill="#FFFFFF" rx="8" ry="8" style="stroke:#000000;stroke-width:1;"/><path d="M340.333,388.59 L340.333,415.59 M327.333,396.59 L353.333,396.59 M340.333,415.59 L327.333,430.59 M340.333,415.59 L353.333,430.59" fill="none" style="stroke:#000000;stroke-width:1;"/><text fill="#000000" font-family="Verdana" font-size="14" lengthAdjust="spacing" textLength="140.2461" x="270.21" y="445.5851">MarketDataProvider</text></g><!--entity Bank--><g class="entity" data-entity="Bank" data-source-line="10" data-uid="ent0009" id="entity_Bank"><ellipse cx="1066.332" cy="380.59" fill="#FFFFFF" rx="8" ry="8" style="stroke:#000000;stroke-width:1;"/><path d="M1066.332,388.59 L1066.332,415.59 M1053.332,396.59 L1079.332,396.59 M1066.332,415.59 L1053.332,430.59 M1066.332,415.59 L1079.332,430.59" fill="none" style="stroke:#000000;stroke-width:1;"/><text fill="#000000" font-family="Verdana" font-size="14" lengthAdjust="spacing" textLength="35.1641" x="1048.75" y="445.5851">Bank</text></g><!--entity Counterparty--><g class="entity" data-entity="Counterparty" data-source-line="11" data-uid="ent0010" id="entity_Counterparty"><ellipse cx="1165.3307" cy="380.59" fill="#FFFFFF" rx="8" ry="8" style="stroke:#000000;stroke-width:1;"/><path d="M1165.3307,388.59 L1165.3307,415.59 M1152.3307,396.59 L1178.3307,396.59 M1165.3307,415.59 L1152.3307,430.59 M1165.3307,415.59 L1178.3307,430.59" fill="none" style="stroke:#000000;stroke-width:1;"/><text fill="#000000" font-family="Verdana" font-size="14" lengthAdjust="spacing" textLength="92.9414" x="1118.86" y="445.5851">Counterparty</text></g><!--entity EB--><g class="entity" data-entity="EB" data-source-line="32" data-uid="ent0024" id="entity_EB"><path d="M578.6002,396.7677 C582.2668,389.9434 586.2955,389.9166 590.8254,395.9466 C593.3441,389.0894 600.0287,388.9567 604.1123,394.2329 C608.3256,389.0726 612.1739,388.1177 616.5742,394.0224 C619.9174,387.3246 625.2687,387.8611 629.4586,393.1091 C634.0835,388.024 638.1176,388.0559 642.1983,393.7521 C645.588,387.622 649.7866,387.895 654.0409,392.8264 C658.4581,387.8799 665.2612,388.2472 667.7038,395.1108 C670.9168,389.6701 675.2117,389.6208 679.1092,394.3426 C682.5706,387.5161 688.7423,387.8564 691.9555,394.5779 C697.3868,389.4061 702.9208,388.9479 706.1023,396.9871 C712.8718,401.0045 715.4724,406.0563 708.2248,412.049 C713.8545,418.5828 714.3438,424.0794 704.877,427.2991 C701.0856,433.5004 696.1968,432.1743 692.9895,426.7042 C690.3656,432.9643 685.7753,434.8091 680.5764,429.4566 C677.0031,436.9958 670.4292,436.2822 666.5867,429.7237 C663.1298,436.6312 659.1047,436.4554 654.3854,430.9662 C651.0128,437.6773 644.8831,438.4315 640.8897,431.5841 C636.0902,436.3196 631.5215,437.3649 627.95,430.2438 C623.8794,435.9333 618.8716,436.1655 614.9434,430.0865 C611.8041,435.62 606.3981,434.6125 603.8257,429.4948 C598.7341,436.1079 594.103,434.7315 590.4242,428.0687 C586.2793,433.4534 580.8388,433.8068 577.6285,427.0811 C569.9852,425.1075 565.4242,418.6184 572.3751,411.6699 C566.6955,403.3251 569.6947,399.0198 578.6002,396.7677" fill="#FFFFFF" style="stroke:#000000;stroke-width:1;"/><text fill="#000000" font-family="Verdana" font-size="14" lengthAdjust="spacing" textLength="113.4834" x="583.59" y="415.0851">Event Backbone</text></g><!--entity DBT--><g class="entity" data-entity="DBT" data-source-line="33" data-uid="ent0025" id="entity_DBT"><path d="M114.2,397.59 C114.2,387.59 163.3289,387.59 163.3289,387.59 C163.3289,387.59 212.4578,387.59 212.4578,397.59 L212.4578,422.8869 C212.4578,432.8869 163.3289,432.8869 163.3289,432.8869 C163.3289,432.8869 114.2,432.8869 114.2,422.8869 L114.2,397.59" fill="#FFFFFF" style="stroke:#000000;stroke-width:1;"/><path d="M114.2,397.59 C114.2,407.59 163.3289,407.59 163.3289,407.59 C163.3289,407.59 212.4578,407.59 212.4578,397.59" fill="none" style="stroke:#000000;stroke-width:1;"/><text fill="#000000" font-family="Verdana" font-size="14" lengthAdjust="spacing" textLength="78.2578" x="124.2" y="424.5851">Trading DB</text></g><!--entity DBR--><g class="entity" data-entity="DBR" data-source-line="34" data-uid="ent0026" id="entity_DBR"><path d="M445.4,397.59 C445.4,387.59 482.3268,387.59 482.3268,387.59 C482.3268,387.59 519.2535,387.59 519.2535,397.59 L519.2535,422.8869 C519.2535,432.8869 482.3268,432.8869 482.3268,432.8869 C482.3268,432.8869 445.4,432.8869 445.4,422.8869 L445.4,397.59" fill="#FFFFFF" style="stroke:#000000;stroke-width:1;"/><path d="M445.4,397.59 C445.4,407.59 482.3268,407.59 482.3268,407.59 C482.3268,407.59 519.2535,407.59 519.2535,397.59" fill="none" style="stroke:#000000;stroke-width:1;"/><text fill="#000000" font-family="Verdana" font-size="14" lengthAdjust="spacing" textLength="53.8535" x="455.4" y="424.5851">Risk DB</text></g><!--entity DBF--><g class="entity" data-entity="DBF" data-source-line="35" data-uid="ent0027" id="entity_DBF"><path d="M1246.62,397.59 C1246.62,387.59 1296.3265,387.59 1296.3265,387.59 C1296.3265,387.59 1346.0331,387.59 1346.0331,397.59 L1346.0331,422.8869 C1346.0331,432.8869 1296.3265,432.8869 1296.3265,432.8869 C1296.3265,432.8869 1246.62,432.8869 1246.62,422.8869 L1246.62,397.59" fill="#FFFFFF" style="stroke:#000000;stroke-width:1;"/><path d="M1246.62,397.59 C1246.62,407.59 1296.3265,407.59 1296.3265,407.59 C1296.3265,407.59 1346.0331,407.59 1346.0331,397.59" fill="none" style="stroke:#000000;stroke-width:1;"/><text fill="#000000" font-family="Verdana" font-size="14" lengthAdjust="spacing" textLength="79.4131" x="1256.62" y="424.5851">Finance DB</text></g><!--entity DBL--><g class="entity" data-entity="DBL" data-source-line="36" data-uid="ent0028" id="entity_DBL"><path d="M908.51,397.59 C908.51,387.59 961.3303,387.59 961.3303,387.59 C961.3303,387.59 1014.1506,387.59 1014.1506,397.59 L1014.1506,422.8869 C1014.1506,432.8869 961.3303,432.8869 961.3303,432.8869 C961.3303,432.8869 908.51,432.8869 908.51,422.8869 L908.51,397.59" fill="#FFFFFF" style="stroke:#000000;stroke-width:1;"/><path d="M908.51,397.59 C908.51,407.59 961.3303,407.59 961.3303,407.59 C961.3303,407.59 1014.1506,407.59 1014.1506,397.59" fill="none" style="stroke:#000000;stroke-width:1;"/><text fill="#000000" font-family="Verdana" font-size="14" lengthAdjust="spacing" textLength="85.6406" x="918.51" y="424.5851">Logistics DB</text></g><!--entity DBC--><g class="entity" data-entity="DBC" data-source-line="37" data-uid="ent0029" id="entity_DBC"><path d="M746.71,397.59 C746.71,387.59 810.3311,387.59 810.3311,387.59 C810.3311,387.59 873.9522,387.59 873.9522,397.59 L873.9522,422.8869 C873.9522,432.8869 810.3311,432.8869 810.3311,432.8869 C810.3311,432.8869 746.71,432.8869 746.71,422.8869 L746.71,397.59" fill="#FFFFFF" style="stroke:#000000;stroke-width:1;"/><path d="M746.71,397.59 C746.71,407.59 810.3311,407.59 810.3311,407.59 C810.3311,407.59 873.9522,407.59 873.9522,397.59" fill="none" style="stroke:#000000;stroke-width:1;"/><text fill="#000000" font-family="Verdana" font-size="14" lengthAdjust="spacing" textLength="107.2422" x="756.71" y="424.5851">Compliance DB</text></g><!--entity DBREF--><g class="entity" data-entity="DBREF" data-source-line="38" data-uid="ent0030" id="entity_DBREF"><path d="M1381.19,397.59 C1381.19,387.59 1439.3253,387.59 1439.3253,387.59 C1439.3253,387.59 1497.4605,387.59 1497.4605,397.59 L1497.4605,422.8869 C1497.4605,432.8869 1439.3253,432.8869 1439.3253,432.8869 C1439.3253,432.8869 1381.19,432.8869 1381.19,422.8869 L1381.19,397.59" fill="#FFFFFF" style="stroke:#000000;stroke-width:1;"/><path d="M1381.19,397.59 C1381.19,407.59 1439.3253,407.59 1439.3253,407.59 C1439.3253,407.59 1497.4605,407.59 1497.4605,397.59" fill="none" style="stroke:#000000;stroke-width:1;"/><text fill="#000000" font-family="Verdana" font-size="14" lengthAdjust="spacing" textLength="96.2705" x="1391.19" y="424.5851">Reference DB</text></g><!--link Trader to TRS--><g class="link" data-entity-1="Trader" data-entity-2="TRS" data-source-line="41" data-uid="lnk31" id="link_Trader_TRS"><path d="M218.07,60.8 C197.52,72 168.64,91.32 154.33,117.3 C133.24,155.57 133.861,202.438 136.731,232.038" fill="none" id="Trader-to-TRS" style="stroke:#000000;stroke-width:1;"/><polygon fill="#000000" points="137.31,238.01,140.4228,228.666,136.8275,233.0333,132.4601,229.438,137.31,238.01" style="stroke:#000000;stroke-width:1;"/><text fill="#000000" font-family="Verdana" font-size="13" lengthAdjust="spacing" textLength="110.062" x="155.33" y="130.3669">Orders, Positions</text></g><!--link Trader to MDS--><g class="link" data-entity-1="Trader" data-entity-2="MDS" data-source-line="42" data-uid="lnk32" id="link_Trader_MDS"><path d="M259.21,87.33 C279.99,131.15 311.0477,196.6194 328.1077,232.5694" fill="none" id="Trader-to-MDS" style="stroke:#000000;stroke-width:1;"/><polygon fill="#000000" points="330.68,237.99,330.4352,228.1442,328.5364,233.4728,323.2077,231.574,330.68,237.99" style="stroke:#000000;stroke-width:1;"/><text fill="#000000" font-family="Verdana" font-size="13" lengthAdjust="spacing" textLength="80.3232" x="281.33" y="130.3669">Market Data</text></g><!--link RiskManager to RKS--><g class="link" data-entity-1="RiskManager" data-entity-2="RKS" data-source-line="43" data-uid="lnk33" id="link_RiskManager_RKS"><path d="M551.33,87.33 C551.33,131.15 551.33,196.04 551.33,231.99" fill="none" id="RiskManager-to-RKS" style="stroke:#000000;stroke-width:1;"/><polygon fill="#000000" points="551.33,237.99,555.33,228.99,551.33,232.99,547.33,228.99,551.33,237.99" style="stroke:#000000;stroke-width:1;"/><text fill="#000000" font-family="Verdana" font-size="13" lengthAdjust="spacing" textLength="107.7324" x="552.33" y="130.3669">Limits, Exposure</text></g><!--link Ops to LGS--><g class="link" data-entity-1="Ops" data-entity-2="LGS" data-source-line="44" data-uid="lnk34" id="link_Ops_LGS"><path d="M961.33,87.33 C961.33,131.15 961.33,196.04 961.33,231.99" fill="none" id="Ops-to-LGS" style="stroke:#000000;stroke-width:1;"/><polygon fill="#000000" points="961.33,237.99,965.33,228.99,961.33,232.99,957.33,228.99,961.33,237.99" style="stroke:#000000;stroke-width:1;"/><text fill="#000000" font-family="Verdana" font-size="13" lengthAdjust="spacing" textLength="139.4834" x="962.33" y="130.3669">Shipments, Inventory</text></g><!--link BackOffice to FNS--><g class="link" data-entity-1="BackOffice" data-entity-2="FNS" data-source-line="45" data-uid="lnk35" id="link_BackOffice_FNS"><path d="M1150.33,87.33 C1150.33,131.15 1150.33,196.04 1150.33,231.99" fill="none" id="BackOffice-to-FNS" style="stroke:#000000;stroke-width:1;"/><polygon fill="#000000" points="1150.33,237.99,1154.33,228.99,1150.33,232.99,1146.33,228.99,1150.33,237.99" style="stroke:#000000;stroke-width:1;"/><text fill="#000000" font-family="Verdana" font-size="13" lengthAdjust="spacing" textLength="140.3403" x="1151.33" y="130.3669">Invoices, Settlements</text></g><!--link ComplianceOfficer to CMS--><g class="link" data-entity-1="ComplianceOfficer" data-entity-2="CMS" data-source-line="46" data-uid="lnk36" id="link_ComplianceOfficer_CMS"><path d="M738.33,87.33 C738.33,131.15 738.33,196.04 738.33,231.99" fill="none" id="ComplianceOfficer-to-CMS" style="stroke:#000000;stroke-width:1;"/><polygon fill="#000000" points="738.33,237.99,742.33,228.99,738.33,232.99,734.33,228.99,738.33,237.99" style="stroke:#000000;stroke-width:1;"/><text fill="#000000" font-family="Verdana" font-size="13" lengthAdjust="spacing" textLength="113.5215" x="739.33" y="130.3669">Surveillance, KYC</text></g><!--link TRS to Exchange--><g class="link" data-entity-1="TRS" data-entity-2="Exchange" data-source-line="49" data-uid="lnk37" id="link_TRS_Exchange"><path d="M125.69,285.06 C110.86,307.98 90.8994,338.8225 73.2294,366.1325" fill="none" id="TRS-to-Exchange" style="stroke:#000000;stroke-width:1;"/><polygon fill="#000000" points="69.97,371.17,78.2174,365.7866,72.6861,366.9721,71.5007,361.4408,69.97,371.17" style="stroke:#000000;stroke-width:1;"/></g><!--link MDS to MarketDataProvider--><g class="link" data-entity-1="MDS" data-entity-2="MarketDataProvider" data-source-line="50" data-uid="lnk38" id="link_MDS_MarketDataProvider"><path d="M341.18,285.06 C341.02,307.98 340.8217,337.8601 340.6317,365.1701" fill="none" id="MDS-to-MarketDataProvider" style="stroke:#000000;stroke-width:1;"/><polygon fill="#000000" points="340.59,371.17,344.6525,362.198,340.6248,366.1701,336.6527,362.1424,340.59,371.17" style="stroke:#000000;stroke-width:1;"/></g><!--link FNS to Bank--><g class="link" data-entity-1="FNS" data-entity-2="Bank" data-source-line="51" data-uid="lnk39" id="link_FNS_Bank"><path d="M1137.39,285.06 C1123.17,309.91 1103.2094,344.792 1087.2594,372.672" fill="none" id="FNS-to-Bank" style="stroke:#000000;stroke-width:1;"/><polygon fill="#000000" points="1084.28,377.88,1092.2211,372.0544,1086.7629,373.54,1085.2772,368.0818,1084.28,377.88" style="stroke:#000000;stroke-width:1;"/></g><!--link FNS to Counterparty--><g class="link" data-entity-1="FNS" data-entity-2="Counterparty" data-source-line="52" data-uid="lnk40" id="link_FNS_Counterparty"><path d="M1152.64,285.06 C1154.98,307.98 1158.0402,337.8911 1160.8302,365.2011" fill="none" id="FNS-to-Counterparty" style="stroke:#000000;stroke-width:1;"/><polygon fill="#000000" points="1161.44,371.17,1164.5046,361.8101,1160.9318,366.1959,1156.546,362.6231,1161.44,371.17" style="stroke:#000000;stroke-width:1;"/></g><!--link TRS to EB--><g class="link" data-entity-1="TRS" data-entity-2="EB" data-source-line="55" data-uid="lnk41" id="link_TRS_EB"><path d="M162.75,285.01 C180.17,301.08 205.76,321.69 232.33,332.59 C358.34,384.32 403.93,339.55 536.33,371.59 C552.38,375.48 563.7389,378.956 579.2489,384.576" fill="none" id="TRS-to-EB" style="stroke:#000000;stroke-width:1;"/><polygon fill="#000000" points="584.89,386.62,577.791,379.7932,580.1891,384.9166,575.0657,387.3147,584.89,386.62" style="stroke:#000000;stroke-width:1;"/></g><!--link MDS to EB--><g class="link" data-entity-1="MDS" data-entity-2="EB" data-source-line="56" data-uid="lnk42" id="link_MDS_EB"><path d="M374.79,284.95 C400.37,301 437.12,321.6 472.33,332.59 C502.22,341.93 513.05,329.49 542.33,340.59 C569.91,351.05 592.4572,367.1691 611.1572,382.8891" fill="none" id="MDS-to-EB" style="stroke:#000000;stroke-width:1;"/><polygon fill="#000000" points="615.75,386.75,611.4348,377.8968,611.9227,383.5326,606.2869,384.0205,615.75,386.75" style="stroke:#000000;stroke-width:1;"/></g><!--link RKS to EB--><g class="link" data-entity-1="RKS" data-entity-2="EB" data-source-line="57" data-uid="lnk43" id="link_RKS_EB"><path d="M565.04,285.06 C581.81,312.73 606.9301,354.1389 623.6401,381.7089" fill="none" id="RKS-to-EB" style="stroke:#000000;stroke-width:1;"/><polygon fill="#000000" points="626.75,386.84,625.5058,377.07,624.1584,382.5641,618.6644,381.2166,626.75,386.84" style="stroke:#000000;stroke-width:1;"/></g><!--link FNS to EB--><g class="link" data-entity-1="FNS" data-entity-2="EB" data-source-line="58" data-uid="lnk44" id="link_FNS_EB"><path d="M1129.01,284.77 C1111.53,301.41 1085.2,322.85 1057.33,332.59 C1025.12,343.85 783.01,330.77 750.33,340.59 C719.29,349.92 693.1199,366.8272 672.0099,383.0272" fill="none" id="FNS-to-EB" style="stroke:#000000;stroke-width:1;"/><polygon fill="#000000" points="667.25,386.68,676.8251,384.3741,671.2166,383.636,671.9547,378.0275,667.25,386.68" style="stroke:#000000;stroke-width:1;"/></g><!--link LGS to EB--><g class="link" data-entity-1="LGS" data-entity-2="EB" data-source-line="59" data-uid="lnk45" id="link_LGS_EB"><path d="M932.65,284.85 C909.83,301.29 876.36,322.45 843.33,332.59 C814.81,341.35 736.55,328.4 709.33,340.59 C687.28,350.47 672.0167,366.0063 659.5867,381.9663" fill="none" id="LGS-to-EB" style="stroke:#000000;stroke-width:1;"/><polygon fill="#000000" points="655.9,386.7,664.5859,382.0572,658.9723,382.7552,658.2743,377.1416,655.9,386.7" style="stroke:#000000;stroke-width:1;"/></g><!--link CMS to EB--><g class="link" data-entity-1="CMS" data-entity-2="EB" data-source-line="60" data-uid="lnk46" id="link_CMS_EB"><path d="M714.28,285.01 C699.57,299.76 681.17,320.05 668.33,340.59 C659.32,355 654.1332,367.1337 649.3032,381.0037" fill="none" id="CMS-to-EB" style="stroke:#000000;stroke-width:1;"/><polygon fill="#000000" points="647.33,386.67,654.0673,379.4861,648.9743,381.9481,646.5123,376.8551,647.33,386.67" style="stroke:#000000;stroke-width:1;"/></g><!--link RDS to EB--><g class="link" data-entity-1="RDS" data-entity-2="EB" data-source-line="61" data-uid="lnk47" id="link_RDS_EB"><path d="M1348.23,284.97 C1320.19,301.24 1279.75,322.12 1241.33,332.59 C1021.14,392.59 951.11,317.77 729.33,371.59 C714.66,375.15 704.8118,378.4892 691.0718,384.3992" fill="none" id="RDS-to-EB" style="stroke:#000000;stroke-width:1;"/><polygon fill="#000000" points="685.56,386.77,695.4081,386.8883,690.1531,384.7944,692.2471,379.5393,685.56,386.77" style="stroke:#000000;stroke-width:1;"/></g><!--link TRS to DBT--><g class="link" data-entity-1="TRS" data-entity-2="DBT" data-source-line="64" data-uid="lnk48" id="link_TRS_DBT"><path d="M143.87,285.06 C148.23,312.89 154.661,353.8924 158.971,381.3924" fill="none" id="TRS-to-DBT" style="stroke:#000000;stroke-width:1;"/><polygon fill="#000000" points="159.9,387.32,162.4582,377.8092,159.1258,382.3803,154.5547,379.0479,159.9,387.32" style="stroke:#000000;stroke-width:1;"/></g><!--link RKS to DBR--><g class="link" data-entity-1="RKS" data-entity-2="DBR" data-source-line="65" data-uid="lnk49" id="link_RKS_DBR"><path d="M540.7,285.06 C527.62,312.89 508.113,354.3902 495.183,381.8902" fill="none" id="RKS-to-DBR" style="stroke:#000000;stroke-width:1;"/><polygon fill="#000000" points="492.63,387.32,500.0793,380.8773,494.7575,382.7952,492.8396,377.4734,492.63,387.32" style="stroke:#000000;stroke-width:1;"/></g><!--link FNS to DBF--><g class="link" data-entity-1="FNS" data-entity-2="DBF" data-source-line="66" data-uid="lnk50" id="link_FNS_DBF"><path d="M1172.82,285.06 C1200.5,312.89 1242.9382,355.5665 1270.2982,383.0665" fill="none" id="FNS-to-DBF" style="stroke:#000000;stroke-width:1;"/><polygon fill="#000000" points="1274.53,387.32,1271.0179,378.1186,1271.0035,383.7755,1265.3467,383.761,1274.53,387.32" style="stroke:#000000;stroke-width:1;"/></g><!--link LGS to DBL--><g class="link" data-entity-1="LGS" data-entity-2="DBL" data-source-line="67" data-uid="lnk51" id="link_LGS_DBL"><path d="M961.33,285.06 C961.33,312.89 961.33,353.82 961.33,381.32" fill="none" id="LGS-to-DBL" style="stroke:#000000;stroke-width:1;"/><polygon fill="#000000" points="961.33,387.32,965.33,378.32,961.33,382.32,957.33,378.32,961.33,387.32" style="stroke:#000000;stroke-width:1;"/></g><!--link CMS to DBC--><g class="link" data-entity-1="CMS" data-entity-2="DBC" data-source-line="68" data-uid="lnk52" id="link_CMS_DBC"><path d="M749.42,285.06 C763.07,312.89 783.4475,354.4332 796.9375,381.9332" fill="none" id="CMS-to-DBC" style="stroke:#000000;stroke-width:1;"/><polygon fill="#000000" points="799.58,387.32,799.2075,377.4782,797.3779,382.831,792.0251,381.0015,799.58,387.32" style="stroke:#000000;stroke-width:1;"/></g><!--link RDS to DBREF--><g class="link" data-entity-1="RDS" data-entity-2="DBREF" data-source-line="69" data-uid="lnk53" id="link_RDS_DBREF"><path d="M1392.8,285.06 C1403.23,312.89 1418.7037,354.2019 1429.0137,381.7019" fill="none" id="RDS-to-DBREF" style="stroke:#000000;stroke-width:1;"/><polygon fill="#000000" points="1431.12,387.32,1431.706,377.4886,1429.3648,382.6382,1424.2151,380.297,1431.12,387.32" style="stroke:#000000;stroke-width:1;"/></g><!--SRC=[PLFBZkCW4Bpp5MmkSqb-O0yhZL-ZqSIJoCuULj4UY4qI50Si8556g_dtxSO6O-K6NKrrTr7zmvxvbTE-Oq8ImXghDDrfrd8zNYfXBYMJx1GYczxyDbnJPl0u1XFMN3R7esZu64ZLjUy4amqVmlvr_cZEJ9vyMidqXTkCMRRLwYwckWcJbq1ravRhdcdxHOXKBQUBT5ULTDinUrJwkg3_nd2XbRHqg8ZHFSuYv8dMNDyXzXUxtbKrsG-5ALQUWMLMa- -HhHHjs_6O3jMOfLSVm3NDEiFISg92VMAYGiYd_E8JkDRg98mLZPb1wxU9gZuppLiFcw4lVkIQ8-7JG1KCj7z_BMT1k2FXDo5DfsujNUHt3i9XbmSbeKN8oHFI0jc16IZgTSmIXsN9BWATAW6f8iIF6S0Y0gTH0xoEu4ZLWATnrMdcK3el27cXgzMAlZhhM1LqmYWPh0t7N-W2-fDkDDpDacwL4LOeQU8Ky0AaH4uXqJQu3FX-o5YBgx10aZzwPMwQ4zWB1yEt0LoVHNy5UI7ZNQBEId-HQM5S9lmzP0AiiDSbT6rjnzqhyhHAxWMu2xbl-iv5ro6wf1z_KZz_61iao1-mFf9rWmGmDxuFYuXJkccVLn6xGiWjex_Crt5MBTARtWK32yrB9g4O756xyUYfuOYIZKUSqETEpyQAMK8FGg8dpQm6EjCpenSzDLhFSwFFF3bwohCx0_q7]--></g></svg>