<svg xmlns="http://www.w3.org/2000/svg" xmlns:xlink="http://www.w3.org/1999/xlink" contentStyleType="text/css" data-diagram-type="DESCRIPTION" height="471px" preserveAspectRatio="none" style="width:1028px;height:471px;background:#FFFFFF;" version="1.1" viewBox="0 0 1028 471" width="1028px" zoomAndPan="magnify"><defs/><g><!--entity MD--><g class="entity" data-entity="MD" data-source-line="3" data-uid="ent0002" id="entity_MD"><path d="M635.83,11 L674.3827,11 A3.75,3.75 0 0 1 676.8827,13.5 L683.8827,33.2969 L747.332,33.2969 A2.5,2.5 0 0 1 749.832,35.7969 L749.832,64.0938 A2.5,2.5 0 0 1 747.332,66.5938 L635.83,66.5938 A2.5,2.5 0 0 1 633.33,64.0938 L633.33,13.5 A2.5,2.5 0 0 1 635.83,11" fill="#FFFFFF" style="stroke:#000000;stroke-width:1;"/><line style="stroke:#000000;stroke-width:1;" x1="633.33" x2="683.8827" y1="33.2969" y2="33.2969"/><text fill="#000000" font-family="Verdana" font-size="14" font-weight="bold" lengthAdjust="spacing" textLength="25.5527" x="643.33" y="26.9951">MD</text><text fill="#000000" font-family="Verdana" font-size="14" lengthAdjust="spacing" textLength="86.502" x="643.33" y="53.292">Market Data</text></g><!--entity RD--><g class="entity" data-entity="RD" data-source-line="4" data-uid="ent0003" id="entity_RD"><path d="M117.42,11 L152.8214,11 A3.75,3.75 0 0 1 155.3214,13.5 L162.3214,33.2969 L251.7335,33.2969 A2.5,2.5 0 0 1 254.2335,35.7969 L254.2335,64.0938 A2.5,2.5 0 0 1 251.7335,66.5938 L117.42,66.5938 A2.5,2.5 0 0 1 114.92,64.0938 L114.92,13.5 A2.5,2.5 0 0 1 117.42,11" fill="#FFFFFF" style="stroke:#000000;stroke-width:1;"/><line style="stroke:#000000;stroke-width:1;" x1="114.92" x2="162.3214" y1="33.2969" y2="33.2969"/><text fill="#000000" font-family="Verdana" font-size="14" font-weight="bold" lengthAdjust="spacing" textLength="22.4014" x="124.92" y="26.9951">RD</text><text fill="#000000" font-family="Verdana" font-size="14" lengthAdjust="spacing" textLength="109.3135" x="124.92" y="53.292">Reference Data</text></g><!--entity TR--><g class="entity" data-entity="TR" data-source-line="5" data-uid="ent0004" id="entity_TR"><path d="M492.37,143.59 L525.7001,143.59 A3.75,3.75 0 0 1 528.2001,146.09 L535.2001,165.8869 L570.7929,165.8869 A2.5,2.5 0 0 1 573.2929,168.3869 L573.2929,196.6838 A2.5,2.5 0 0 1 570.7929,199.1838 L492.37,199.1838 A2.5,2.5 0 0 1 489.87,196.6838 L489.87,146.09 A2.5,2.5 0 0 1 492.37,143.59" fill="#FFFFFF" style="stroke:#000000;stroke-width:1;"/><line style="stroke:#000000;stroke-width:1;" x1="489.87" x2="535.2001" y1="165.8869" y2="165.8869"/><text fill="#000000" font-family="Verdana" font-size="14" font-weight="bold" lengthAdjust="spacing" textLength="20.3301" x="499.87" y="159.5851">TR</text><text fill="#000000" font-family="Verdana" font-size="14" lengthAdjust="spacing" textLength="53.4229" x="499.87" y="185.882">Trading</text></g><!--entity RK--><g class="entity" data-entity="RK" data-source-line="6" data-uid="ent0005" id="entity_RK"><path d="M89.26,276.18 L123.8889,276.18 A3.75,3.75 0 0 1 126.3889,278.68 L133.3889,298.4769 L147.8889,298.4769 A2.5,2.5 0 0 1 150.3889,300.9769 L150.3889,329.2738 A2.5,2.5 0 0 1 147.8889,331.7738 L89.26,331.7738 A2.5,2.5 0 0 1 86.76,329.2738 L86.76,278.68 A2.5,2.5 0 0 1 89.26,276.18" fill="#FFFFFF" style="stroke:#000000;stroke-width:1;"/><line style="stroke:#000000;stroke-width:1;" x1="86.76" x2="133.3889" y1="298.4769" y2="298.4769"/><text fill="#000000" font-family="Verdana" font-size="14" font-weight="bold" lengthAdjust="spacing" textLength="21.6289" x="96.76" y="292.1751">RK</text><text fill="#000000" font-family="Verdana" font-size="14" lengthAdjust="spacing" textLength="29.0186" x="96.76" y="318.472">Risk</text></g><!--entity FN--><g class="entity" data-entity="FN" data-source-line="7" data-uid="ent0006" id="entity_FN"><path d="M275.79,408.78 L310.0703,408.78 A3.75,3.75 0 0 1 312.5703,411.28 L319.5703,431.0769 L355.3681,431.0769 A2.5,2.5 0 0 1 357.8681,433.5769 L357.8681,461.8738 A2.5,2.5 0 0 1 355.3681,464.3738 L275.79,464.3738 A2.5,2.5 0 0 1 273.29,461.8738 L273.29,411.28 A2.5,2.5 0 0 1 275.79,408.78" fill="#FFFFFF" style="stroke:#000000;stroke-width:1;"/><line style="stroke:#000000;stroke-width:1;" x1="273.29" x2="319.5703" y1="431.0769" y2="431.0769"/><text fill="#000000" font-family="Verdana" font-size="14" font-weight="bold" lengthAdjust="spacing" textLength="21.2803" x="283.29" y="424.7751">FN</text><text fill="#000000" font-family="Verdana" font-size="14" lengthAdjust="spacing" textLength="54.5781" x="283.29" y="451.072">Finance</text></g><!--entity LG--><g class="entity" data-entity="LG" data-source-line="8" data-uid="ent0007" id="entity_LG"><path d="M241.98,276.18 L275.3921,276.18 A3.75,3.75 0 0 1 277.8921,278.68 L284.8921,298.4769 L389.1861,298.4769 A2.5,2.5 0 0 1 391.6861,300.9769 L391.6861,329.2738 A2.5,2.5 0 0 1 389.1861,331.7738 L241.98,331.7738 A2.5,2.5 0 0 1 239.48,329.2738 L239.48,278.68 A2.5,2.5 0 0 1 241.98,276.18" fill="#FFFFFF" style="stroke:#000000;stroke-width:1;"/><line style="stroke:#000000;stroke-width:1;" x1="239.48" x2="284.8921" y1="298.4769" y2="298.4769"/><text fill="#000000" font-family="Verdana" font-size="14" font-weight="bold" lengthAdjust="spacing" textLength="20.4121" x="249.48" y="292.1751">LG</text><text fill="#000000" font-family="Verdana" font-size="14" lengthAdjust="spacing" textLength="122.2061" x="249.48" y="318.472">Physical Logistics</text></g><!--entity CM--><g class="entity" data-entity="CM" data-source-line="9" data-uid="ent0008" id="entity_CM"><path d="M911.88,276.18 L949.0861,276.18 A3.75,3.75 0 0 1 951.5861,278.68 L958.5861,298.4769 L1019.2872,298.4769 A2.5,2.5 0 0 1 1021.7872,300.9769 L1021.7872,329.2738 A2.5,2.5 0 0 1 1019.2872,331.7738 L911.88,331.7738 A2.5,2.5 0 0 1 909.38,329.2738 L909.38,278.68 A2.5,2.5 0 0 1 911.88,276.18" fill="#FFFFFF" style="stroke:#000000;stroke-width:1;"/><line style="stroke:#000000;stroke-width:1;" x1="909.38" x2="958.5861" y1="298.4769" y2="298.4769"/><text fill="#000000" font-family="Verdana" font-size="14" font-weight="bold" lengthAdjust="spacing" textLength="24.2061" x="919.38" y="292.1751">CM</text><text fill="#000000" font-family="Verdana" font-size="14" lengthAdjust="spacing" textLength="82.4072" x="919.38" y="318.472">Compliance</text></g><!--entity IAM--><g class="entity" data-entity="IAM" data-source-line="10" data-uid="ent0009" id="entity_IAM"><path d="M496.09,19.14 L539.0656,19.14 A3.75,3.75 0 0 1 541.5656,21.64 L548.5656,41.4369 L563.0656,41.4369 A2.5,2.5 0 0 1 565.5656,43.9369 L565.5656,55.9369 A2.5,2.5 0 0 1 563.0656,58.4369 L496.09,58.4369 A2.5,2.5 0 0 1 493.59,55.9369 L493.59,21.64 A2.5,2.5 0 0 1 496.09,19.14" fill="#FFFFFF" style="stroke:#000000;stroke-width:1;"/><line style="stroke:#000000;stroke-width:1;" x1="493.59" x2="548.5656" y1="41.4369" y2="41.4369"/><text fill="#000000" font-family="Verdana" font-size="14" font-weight="bold" lengthAdjust="spacing" textLength="29.9756" x="503.59" y="35.1351">IAM</text></g><!--link MD to TR--><g class="link" data-entity-1="MD" data-entity-2="TR" data-source-line="12" data-uid="lnk10" id="link_MD_TR"><path d="M682.3,66.73 C675.9,82.05 666.11,100.69 652.58,113.59 C630.41,134.73 604.5909,169.45 579.2909,178.48" fill="none" id="MD-to-TR" style="stroke:#000000;stroke-width:1;"/><polygon fill="#000000" points="573.64,180.4969,583.4609,181.2388,578.349,178.8161,580.7717,173.7043,573.64,180.4969" style="stroke:#000000;stroke-width:1;"/><text fill="#000000" font-family="Verdana" font-size="13" lengthAdjust="spacing" textLength="25.2129" x="666.58" y="109.6569">ACL</text></g><!--link RD to TR--><g class="link" data-entity-1="RD" data-entity-2="TR" data-source-line="13" data-uid="lnk11" id="link_RD_TR"><path d="M254.38,66.06 C324.84,92.58 425.7145,130.5466 484.0645,152.5066" fill="none" id="RD-to-TR" style="stroke:#000000;stroke-width:1;"/><polygon fill="#000000" points="489.68,154.62,482.6657,147.7063,485.0004,152.8588,479.8479,155.1936,489.68,154.62" style="stroke:#000000;stroke-width:1;"/><text fill="#000000" font-family="Verdana" font-size="13" lengthAdjust="spacing" textLength="131.1045" x="380.58" y="109.6569">Published Language</text></g><!--link TR to RK--><g class="link" data-entity-1="TR" data-entity-2="RK" data-source-line="14" data-uid="lnk12" id="link_TR_RK"><path d="M489.55,172.05 C424.02,173.13 295.02,181.76 198.58,229.18 C176.03,240.27 159.3574,277.6185 144.6574,293.7785" fill="none" id="TR-to-RK" style="stroke:#000000;stroke-width:1;"/><polygon fill="#000000" points="140.62,298.2169,149.635,294.2509,143.9845,294.5182,143.7172,288.8677,140.62,298.2169" style="stroke:#000000;stroke-width:1;"/><text fill="#000000" font-family="Verdana" font-size="13" lengthAdjust="spacing" textLength="121.0879" x="199.58" y="242.2469">Customer/Supplier</text></g><!--link TR to FN--><g class="link" data-entity-1="TR" data-entity-2="FN" data-source-line="15" data-uid="lnk13" id="link_TR_FN"><path d="M527.74,199.44 C524.93,213.9 520.23,231.67 512.58,246.18 C476.05,315.44 454.83,326.46 396.58,378.78 C384.82,389.33 375.9941,418.523 363.1741,427.393" fill="none" id="TR-to-FN" style="stroke:#000000;stroke-width:1;"/><polygon fill="#000000" points="358.24,430.8069,367.9171,428.9755,362.3518,427.962,363.3653,422.3967,358.24,430.8069" style="stroke:#000000;stroke-width:1;"/><text fill="#000000" font-family="Verdana" font-size="13" lengthAdjust="spacing" textLength="338.8442" x="496.58" y="308.5469">Customer/Supplier + Shared Kernel (Trade schema)</text></g><!--link TR to LG--><g class="link" data-entity-1="TR" data-entity-2="LG" data-source-line="16" data-uid="lnk14" id="link_TR_LG"><path d="M489.48,174.21 C446.91,178.26 381.83,190.83 341.58,229.18 C328.79,241.36 323.5354,276.6275 320.2254,292.2275" fill="none" id="TR-to-LG" style="stroke:#000000;stroke-width:1;"/><polygon fill="#000000" points="318.98,298.0969,324.7609,290.1231,320.0178,293.2058,316.9351,288.4626,318.98,298.0969" style="stroke:#000000;stroke-width:1;"/><text fill="#000000" font-family="Verdana" font-size="13" lengthAdjust="spacing" textLength="165.458" x="342.58" y="242.2469">Customer/Supplier + ACL</text></g><!--link LG to FN--><g class="link" data-entity-1="LG" data-entity-2="FN" data-source-line="17" data-uid="lnk15" id="link_LG_FN"><path d="M315.58,332.04 C315.58,354.45 315.58,396.0918 315.58,418.4918" fill="none" id="LG-to-FN" style="stroke:#000000;stroke-width:1;"/><polygon fill="#000000" points="315.58,424.4918,319.58,415.4918,315.58,419.4918,311.58,415.4918,315.58,424.4918" style="stroke:#000000;stroke-width:1;"/><text fill="#000000" font-family="Verdana" font-size="13" lengthAdjust="spacing" textLength="71.2905" x="316.58" y="374.8469">Conformist</text></g><!--link TR to CM--><g class="link" data-entity-1="TR" data-entity-2="CM" data-source-line="18" data-uid="lnk16" id="link_TR_CM"><path d="M573.63,190.22 C613.46,206.58 675.26,230.57 730.58,246.18 C796.85,264.88 815.92,258.91 882.58,276.18 C891.23,278.42 894.5653,279.2955 903.4053,282.0155" fill="none" id="TR-to-CM" style="stroke:#000000;stroke-width:1;"/><polygon fill="#000000" points="909.14,283.78,901.7143,277.3101,904.3611,282.3096,899.3616,284.9563,909.14,283.78" style="stroke:#000000;stroke-width:1;"/><text fill="#000000" font-family="Verdana" font-size="13" lengthAdjust="spacing" textLength="142.8857" x="731.58" y="242.2469">Events &#8594; Surveillance</text></g><!--link CM to TR--><g class="link" data-entity-1="CM" data-entity-2="TR" data-source-line="19" data-uid="lnk17" id="link_CM_TR"><path d="M941.19,275.89 C925.04,259.72 902.49,240.23 878.58,229.18 C776.34,181.94 647.2291,173.3913 579.7391,172.2513" fill="none" id="CM-to-TR" style="stroke:#000000;stroke-width:1;"/><polygon fill="#000000" points="573.74,172.15,582.6712,176.3014,578.7393,172.2344,582.8063,168.3026,573.74,172.15" style="stroke:#000000;stroke-width:1;"/><text fill="#000000" font-family="Verdana" font-size="13" lengthAdjust="spacing" textLength="113.6421" x="905.58" y="242.2469">Sanctions / Alerts</text></g><!--link IAM to TR--><g class="link" data-entity-1="IAM" data-entity-2="TR" data-source-line="20" data-uid="lnk18" id="link_IAM_TR"><path d="M527.92,58.91 C526.83,73.81 525.76,95.01 526.58,113.59 C527.01,123.28 527.2928,138.9681 528.1528,148.3581" fill="none" id="IAM-to-TR" style="stroke:#000000;stroke-width:1;"/><polygon fill="#000000" points="528.7,154.3331,531.8625,145.0058,528.244,149.3539,523.8958,145.7354,528.7,154.3331" style="stroke:#000000;stroke-width:1;"/><text fill="#000000" font-family="Verdana" font-size="13" lengthAdjust="spacing" textLength="120.6309" x="527.58" y="109.6569">Open Host Service</text></g><!--link RD to RK--><g class="link" data-entity-1="RD" data-entity-2="RK" data-source-line="21" data-uid="lnk19" id="link_RD_RK"><path d="M177.76,66.97 C165.08,117.53 139.4693,231.514 126.8193,281.964" fill="none" id="RD-to-RK" style="stroke:#000000;stroke-width:1;"/><polygon fill="#000000" points="125.36,287.7839,131.4288,280.027,126.5761,282.934,123.669,278.0813,125.36,287.7839" style="stroke:#000000;stroke-width:1;"/></g><!--link RD to FN--><g class="link" data-entity-1="RD" data-entity-2="FN" data-source-line="22" data-uid="lnk20" id="link_RD_FN"><path d="M157.71,66.96 C107.82,120.8 11,243.47 69.58,331.78 C115.07,400.34 209.7959,422.9028 267.2559,430.8028" fill="none" id="RD-to-FN" style="stroke:#000000;stroke-width:1;"/><polygon fill="#000000" points="273.2,431.62,264.8287,426.4314,268.2466,430.939,263.7391,434.3569,273.2,431.62" style="stroke:#000000;stroke-width:1;"/></g><!--link RD to LG--><g class="link" data-entity-1="RD" data-entity-2="LG" data-source-line="23" data-uid="lnk21" id="link_RD_LG"><path d="M198.11,66.97 C223.27,117.53 274.3357,242.4258 299.4557,292.8758" fill="none" id="RD-to-LG" style="stroke:#000000;stroke-width:1;"/><polygon fill="#000000" points="302.13,298.2469,301.6992,288.4074,299.9014,293.771,294.5378,291.9732,302.13,298.2469" style="stroke:#000000;stroke-width:1;"/></g><!--SRC=[TP51JiCm44NtFiNG5GXLtRD0YX8IK9DI9Rt0a4uJguuTsKubBi01E28dOHAQkWkwiltVV7lc-ywtr17q2gKMeiVwY0t1ea1x90y9Ubm0EYYIm4ewa2LTKy3b5TvPt4lTJFgklB99T_mhNWSnbHhvfabFDq7VjfzErgWWDurqNjPkAicpK1ARhbVouewBWDwYOj9u5Q98OBbyvbRW2Q8u5-NLUJjyAEbQsaEEkXdOB5WVSRbc70_EcuxigXfwVeliJDFDVnGUeMhHycrhifeKt8zP4BYQCyQ7sPndDynZTmp30qOVZEru_jaQ5oo_d4Xx1pzVtr0DzaHIgJ45mV0oMCMAbqOxM46ao7edE8p0ttlIy6gSXuhiIRBx70j_pdd7tt7UvTal]--></g></svg>