<svg xmlns="http://www.w3.org/2000/svg" xmlns:xlink="http://www.w3.org/1999/xlink" contentStyleType="text/css" data-diagram-type="DESCRIPTION" height="608px" preserveAspectRatio="none" style="width:228px;height:608px;background:#FFFFFF;" version="1.1" viewBox="0 0 228 608" width="228px" zoomAndPan="magnify"><defs/><g><!--cluster Trading Context--><g class="cluster" data-entity="Trading Context" data-source-line="3" data-uid="ent0002" id="cluster_Trading Context"><path d="M13.5,11 L141.8535,11 A3.75,3.75 0 0 1 144.3535,13.5 L151.3535,33.2969 L218.5,33.2969 A2.5,2.5 0 0 1 221,35.7969 L221,598.98 A2.5,2.5 0 0 1 218.5,601.48 L13.5,601.48 A2.5,2.5 0 0 1 11,598.98 L11,13.5 A2.5,2.5 0 0 1 13.5,11" fill="#FFFFFF" style="stroke:#000000;stroke-width:1;"/><line style="stroke:#000000;stroke-width:1;" x1="11" x2="151.3535" y1="33.2969" y2="33.2969"/><text fill="#000000" font-family="Verdana" font-size="14" font-weight="bold" lengthAdjust="spacing" textLength="127.3535" x="15" y="25.9951">Trading Context</text></g><!--entity OM--><g class="entity" data-entity="OM" data-source-line="4" data-uid="ent0003" id="entity_OM"><rect fill="#FFFFFF" height="46.2969" rx="2.5" ry="2.5" style="stroke:#000000;stroke-width:1;" width="176.7051" x="26.65" y="169.29"/><rect fill="#FFFFFF" height="10" style="stroke:#000000;stroke-width:1;" width="15" x="183.3551" y="174.29"/><rect fill="#FFFFFF" height="2" style="stroke:#000000;stroke-width:1;" width="4" x="181.3551" y="176.29"/><rect fill="#FFFFFF" height="2" style="stroke:#000000;stroke-width:1;" width="4" x="181.3551" y="180.29"/><text fill="#000000" font-family="Verdana" font-size="14" lengthAdjust="spacing" textLength="136.7051" x="41.65" y="202.2851">Order Management</text></g><!--entity TC--><g class="entity" data-entity="TC" data-source-line="5" data-uid="ent0004" id="entity_TC"><rect fill="#FFFFFF" height="46.2969" rx="2.5" ry="2.5" style="stroke:#000000;stroke-width:1;" width="140.8096" x="27.6" y="415.89"/><rect fill="#FFFFFF" height="10" style="stroke:#000000;stroke-width:1;" width="15" x="148.4096" y="420.89"/><rect fill="#FFFFFF" height="2" style="stroke:#000000;stroke-width:1;" width="4" x="146.4096" y="422.89"/><rect fill="#FFFFFF" height="2" style="stroke:#000000;stroke-width:1;" width="4" x="146.4096" y="426.89"/><text fill="#000000" font-family="Verdana" font-size="14" lengthAdjust="spacing" textLength="100.8096" x="42.6" y="448.8851">Trade Capture</text></g><!--entity PK--><g class="entity" data-entity="PK" data-source-line="6" data-uid="ent0005" id="entity_PK"><rect fill="#FFFFFF" height="46.2969" rx="2.5" ry="2.5" style="stroke:#000000;stroke-width:1;" width="156.4023" x="26.8" y="539.18"/><rect fill="#FFFFFF" height="10" style="stroke:#000000;stroke-width:1;" width="15" x="163.2023" y="544.18"/><rect fill="#FFFFFF" height="2" style="stroke:#000000;stroke-width:1;" width="4" x="161.2023" y="546.18"/><rect fill="#FFFFFF" height="2" style="stroke:#000000;stroke-width:1;" width="4" x="161.2023" y="550.18"/><text fill="#000000" font-family="Verdana" font-size="14" lengthAdjust="spacing" textLength="116.4023" x="41.8" y="572.1751">Position Keeping</text></g><!--entity SOR--><g class="entity" data-entity="SOR" data-source-line="7" data-uid="ent0006" id="entity_SOR"><rect fill="#FFFFFF" height="46.2969" rx="2.5" ry="2.5" style="stroke:#000000;stroke-width:1;" width="178.3047" x="26.85" y="292.59"/><rect fill="#FFFFFF" height="10" style="stroke:#000000;stroke-width:1;" width="15" x="185.1547" y="297.59"/><rect fill="#FFFFFF" height="2" style="stroke:#000000;stroke-width:1;" width="4" x="183.1547" y="299.59"/><rect fill="#FFFFFF" height="2" style="stroke:#000000;stroke-width:1;" width="4" x="183.1547" y="303.59"/><text fill="#000000" font-family="Verdana" font-size="14" lengthAdjust="spacing" textLength="138.3047" x="41.85" y="325.5851">Smart Order Router</text></g><!--entity PE--><g class="entity" data-entity="PE" data-source-line="8" data-uid="ent0007" id="entity_PE"><rect fill="#FFFFFF" height="46.2969" rx="2.5" ry="2.5" style="stroke:#000000;stroke-width:1;" width="139.8662" x="34.07" y="46"/><rect fill="#FFFFFF" height="10" style="stroke:#000000;stroke-width:1;" width="15" x="153.9362" y="51"/><rect fill="#FFFFFF" height="2" style="stroke:#000000;stroke-width:1;" width="4" x="151.9362" y="53"/><rect fill="#FFFFFF" height="2" style="stroke:#000000;stroke-width:1;" width="4" x="151.9362" y="57"/><text fill="#000000" font-family="Verdana" font-size="14" lengthAdjust="spacing" textLength="99.8662" x="49.07" y="78.9951">Pricing Engine</text></g><!--link OM to SOR--><g class="link" data-entity-1="OM" data-entity-2="SOR" data-source-line="11" data-uid="lnk8" id="link_OM_SOR"><path d="M115.19,215.97 C115.37,237.76 115.5903,264.5802 115.7703,286.3302" fill="none" id="OM-to-SOR" style="stroke:#000000;stroke-width:1;"/><polygon fill="#000000" points="115.82,292.33,119.7454,283.2972,115.7786,287.3302,111.7457,283.3634,115.82,292.33" style="stroke:#000000;stroke-width:1;"/><text fill="#000000" font-family="Verdana" font-size="13" lengthAdjust="spacing" textLength="87.2041" x="116" y="258.6569">routes orders</text></g><!--link SOR to TC--><g class="link" data-entity-1="SOR" data-entity-2="TC" data-source-line="12" data-uid="lnk9" id="link_SOR_TC"><path d="M112.66,339.27 C109.42,361.06 105.4291,387.9447 102.2091,409.6847" fill="none" id="SOR-to-TC" style="stroke:#000000;stroke-width:1;"/><polygon fill="#000000" points="101.33,415.62,106.6055,407.3032,102.0626,410.674,98.6918,406.1311,101.33,415.62" style="stroke:#000000;stroke-width:1;"/><text fill="#000000" font-family="Verdana" font-size="13" lengthAdjust="spacing" textLength="103.8477" x="109" y="381.9569">on execution fill</text></g><!--link TC to PK--><g class="link" data-entity-1="TC" data-entity-2="PK" data-source-line="13" data-uid="lnk10" id="link_TC_PK"><path d="M99.3,462.57 C100.56,484.35 102.1028,511.1901 103.3628,532.9301" fill="none" id="TC-to-PK" style="stroke:#000000;stroke-width:1;"/><polygon fill="#000000" points="103.71,538.92,107.1826,529.7036,103.4207,533.9284,99.196,530.1665,103.71,538.92" style="stroke:#000000;stroke-width:1;"/><text fill="#000000" font-family="Verdana" font-size="13" lengthAdjust="spacing" textLength="108.2021" x="102" y="505.2469">update positions</text></g><!--link PE to OM--><g class="link" data-entity-1="PE" data-entity-2="OM" data-source-line="14" data-uid="lnk11" id="link_PE_OM"><path d="M106.04,92.67 C108.02,114.46 110.4588,141.3045 112.4288,163.0545" fill="none" id="PE-to-OM" style="stroke:#000000;stroke-width:1;"/><polygon fill="#000000" points="112.97,169.03,116.1418,159.7059,112.519,164.0504,108.1745,160.4275,112.97,169.03" style="stroke:#000000;stroke-width:1;"/><text fill="#000000" font-family="Verdana" font-size="13" lengthAdjust="spacing" textLength="99.1377" x="111" y="135.3569">provides prices</text></g><!--SRC=[BOynRiCm34LtdeBDdWjaw69uCWmBYJUZ0s6phb1R4YWw253axg6Khl-HxvCV-iCxOzh81u14yo-jZATHQF5XnIO6vOUUy0-cGHOMx2dOnCv1lv0o3ZrCPPYneQI7S4t71YONirSV0tRCoLmLk0wcsqwY-BPTuw4i5Ts6gos9dqjl6rOVtYxNmXDWwF5y_Yn3U44fMnbZKMGeMM5ZOyZw-C7pKPk__RQ1nOMwpkYH5bBxzl-q3AwjqEmNJ1BlVZ5liYCulm00]--></g></svg>