<svg xmlns="http://www.w3.org/2000/svg" xmlns:xlink="http://www.w3.org/1999/xlink" contentStyleType="text/css" data-diagram-type="DESCRIPTION" height="394px" preserveAspectRatio="none" style="width:1969px;height:394px;background:#FFFFFF;" version="1.1" viewBox="0 0 1969 394" width="1969px" zoomAndPan="magnify"><defs/><g><!--cluster User Workstations--><g class="cluster" data-entity="User Workstations" data-source-line="3" data-uid="ent0002" id="cluster_User Workstations"><polygon fill="#FFFFFF" points="487.7849,21,497.7849,11,1189.7849,11,1189.7849,103.3,1179.7849,113.3,487.7849,113.3,487.7849,21" style="stroke:#000000;stroke-width:1;"/><line style="stroke:#000000;stroke-width:1;" x1="1179.7849" x2="1189.7849" y1="21" y2="11"/><line style="stroke:#000000;stroke-width:1;" x1="487.7849" x2="1179.7849" y1="21" y2="21"/><line style="stroke:#000000;stroke-width:1;" x1="1179.7849" x2="1179.7849" y1="21" y2="113.3"/><text fill="#000000" font-family="Verdana" font-size="14" font-weight="bold" lengthAdjust="spacing" textLength="146.1318" x="761.719" y="36.9951">User Workstations</text></g><!--cluster CTRM Platform--><g class="cluster" data-entity="CTRM Platform" data-source-line="10" data-uid="ent0007" id="cluster_CTRM Platform"><polygon fill="#FFFFFF" points="188.7849,147.3,198.7849,137.3,1952.7849,137.3,1952.7849,301.59,1942.7849,311.59,188.7849,311.59,188.7849,147.3" style="stroke:#000000;stroke-width:1;"/><line style="stroke:#000000;stroke-width:1;" x1="1942.7849" x2="1952.7849" y1="147.3" y2="137.3"/><line style="stroke:#000000;stroke-width:1;" x1="188.7849" x2="1942.7849" y1="147.3" y2="147.3"/><line style="stroke:#000000;stroke-width:1;" x1="1942.7849" x2="1942.7849" y1="147.3" y2="311.59"/><text fill="#000000" font-family="Verdana" font-size="14" font-weight="bold" lengthAdjust="spacing" textLength="117.8105" x="1007.8796" y="163.2951">CTRM Platform</text></g><!--cluster Front Office Services--><g class="cluster" data-entity="Front Office Services" data-source-line="11" data-uid="ent0008" id="cluster_Front Office Services"><polygon fill="#FFFFFF" points="212.7849,195.3,222.7849,185.3,611.7849,185.3,611.7849,277.59,601.7849,287.59,212.7849,287.59,212.7849,195.3" style="stroke:#000000;stroke-width:1;"/><line style="stroke:#000000;stroke-width:1;" x1="601.7849" x2="611.7849" y1="195.3" y2="185.3"/><line style="stroke:#000000;stroke-width:1;" x1="212.7849" x2="601.7849" y1="195.3" y2="195.3"/><line style="stroke:#000000;stroke-width:1;" x1="601.7849" x2="601.7849" y1="195.3" y2="287.59"/><text fill="#000000" font-family="Verdana" font-size="14" font-weight="bold" lengthAdjust="spacing" textLength="165.7031" x="325.4334" y="211.2951">Front Office Services</text></g><!--cluster Middle Office Services--><g class="cluster" data-entity="Middle Office Services" data-source-line="15" data-uid="ent0011" id="cluster_Middle Office Services"><polygon fill="#FFFFFF" points="635.7849,195.3,645.7849,185.3,1006.7849,185.3,1006.7849,277.59,996.7849,287.59,635.7849,287.59,635.7849,195.3" style="stroke:#000000;stroke-width:1;"/><line style="stroke:#000000;stroke-width:1;" x1="996.7849" x2="1006.7849" y1="195.3" y2="185.3"/><line style="stroke:#000000;stroke-width:1;" x1="635.7849" x2="996.7849" y1="195.3" y2="195.3"/><line style="stroke:#000000;stroke-width:1;" x1="996.7849" x2="996.7849" y1="195.3" y2="287.59"/><text fill="#000000" font-family="Verdana" font-size="14" font-weight="bold" lengthAdjust="spacing" textLength="176.0254" x="729.2722" y="211.2951">Middle Office Services</text></g><!--cluster Back Office Services--><g class="cluster" data-entity="Back Office Services" data-source-line="19" data-uid="ent0014" id="cluster_Back Office Services"><polygon fill="#FFFFFF" points="1030.7849,195.3,1040.7849,185.3,1509.7849,185.3,1509.7849,277.59,1499.7849,287.59,1030.7849,287.59,1030.7849,195.3" style="stroke:#000000;stroke-width:1;"/><line style="stroke:#000000;stroke-width:1;" x1="1499.7849" x2="1509.7849" y1="195.3" y2="185.3"/><line style="stroke:#000000;stroke-width:1;" x1="1030.7849" x2="1499.7849" y1="195.3" y2="195.3"/><line style="stroke:#000000;stroke-width:1;" x1="1499.7849" x2="1499.7849" y1="195.3" y2="287.59"/><text fill="#000000" font-family="Verdana" font-size="14" font-weight="bold" lengthAdjust="spacing" textLength="160.6855" x="1185.9421" y="211.2951">Back Office Services</text></g><!--cluster Shared Services--><g class="cluster" data-entity="Shared Services" data-source-line="23" data-uid="ent0017" id="cluster_Shared Services"><polygon fill="#FFFFFF" points="1533.7849,195.3,1543.7849,185.3,1928.7849,185.3,1928.7849,277.59,1918.7849,287.59,1533.7849,287.59,1533.7849,195.3" style="stroke:#000000;stroke-width:1;"/><line style="stroke:#000000;stroke-width:1;" x1="1918.7849" x2="1928.7849" y1="195.3" y2="185.3"/><line style="stroke:#000000;stroke-width:1;" x1="1533.7849" x2="1918.7849" y1="195.3" y2="195.3"/><line style="stroke:#000000;stroke-width:1;" x1="1918.7849" x2="1918.7849" y1="195.3" y2="287.59"/><text fill="#000000" font-family="Verdana" font-size="14" font-weight="bold" lengthAdjust="spacing" textLength="127.3262" x="1663.6218" y="211.2951">Shared Services</text></g><!--entity Trader UI--><g class="entity" data-entity="Trader UI" data-source-line="4" data-uid="ent0003" id="entity_Trader UI"><rect fill="#FFFFFF" height="46.2969" rx="2.5" ry="2.5" style="stroke:#000000;stroke-width:1;" width="104.9688" x="503.3049" y="51"/><rect fill="#FFFFFF" height="10" style="stroke:#000000;stroke-width:1;" width="15" x="588.2737" y="56"/><rect fill="#FFFFFF" height="2" style="stroke:#000000;stroke-width:1;" width="4" x="586.2737" y="58"/><rect fill="#FFFFFF" height="2" style="stroke:#000000;stroke-width:1;" width="4" x="586.2737" y="62"/><text fill="#000000" font-family="Verdana" font-size="14" lengthAdjust="spacing" textLength="64.9688" x="518.3049" y="83.9951">Trader UI</text></g><!--entity Risk Manager UI--><g class="entity" data-entity="Risk Manager UI" data-source-line="5" data-uid="ent0004" id="entity_Risk Manager UI"><rect fill="#FFFFFF" height="46.2969" rx="2.5" ry="2.5" style="stroke:#000000;stroke-width:1;" width="153.6611" x="642.9549" y="51"/><rect fill="#FFFFFF" height="10" style="stroke:#000000;stroke-width:1;" width="15" x="776.616" y="56"/><rect fill="#FFFFFF" height="2" style="stroke:#000000;stroke-width:1;" width="4" x="774.616" y="58"/><rect fill="#FFFFFF" height="2" style="stroke:#000000;stroke-width:1;" width="4" x="774.616" y="62"/><text fill="#000000" font-family="Verdana" font-size="14" lengthAdjust="spacing" textLength="113.6611" x="657.9549" y="83.9951">Risk Manager UI</text></g><!--entity Ops/BackOffice UI--><g class="entity" data-entity="Ops.BackOffice UI" data-source-line="6" data-uid="ent0005" id="entity_Ops.BackOffice UI"><rect fill="#FFFFFF" height="46.2969" rx="2.5" ry="2.5" style="stroke:#000000;stroke-width:1;" width="165.8086" x="1007.8849" y="51"/><rect fill="#FFFFFF" height="10" style="stroke:#000000;stroke-width:1;" width="15" x="1153.6935" y="56"/><rect fill="#FFFFFF" height="2" style="stroke:#000000;stroke-width:1;" width="4" x="1151.6935" y="58"/><rect fill="#FFFFFF" height="2" style="stroke:#000000;stroke-width:1;" width="4" x="1151.6935" y="62"/><text fill="#000000" font-family="Verdana" font-size="14" lengthAdjust="spacing" textLength="125.8086" x="1022.8849" y="83.9951">Ops/BackOffice UI</text></g><!--entity Compliance UI--><g class="entity" data-entity="Compliance UI" data-source-line="7" data-uid="ent0006" id="entity_Compliance UI"><rect fill="#FFFFFF" height="46.2969" rx="2.5" ry="2.5" style="stroke:#000000;stroke-width:1;" width="141.2334" x="831.1649" y="51"/><rect fill="#FFFFFF" height="10" style="stroke:#000000;stroke-width:1;" width="15" x="952.3983" y="56"/><rect fill="#FFFFFF" height="2" style="stroke:#000000;stroke-width:1;" width="4" x="950.3983" y="58"/><rect fill="#FFFFFF" height="2" style="stroke:#000000;stroke-width:1;" width="4" x="950.3983" y="62"/><text fill="#000000" font-family="Verdana" font-size="14" lengthAdjust="spacing" textLength="101.2334" x="846.1649" y="83.9951">Compliance UI</text></g><!--entity Trading Service--><g class="entity" data-entity="Trading Service" data-source-line="12" data-uid="ent0009" id="entity_Trading Service"><rect fill="#FFFFFF" height="46.2969" rx="2.5" ry="2.5" style="stroke:#000000;stroke-width:1;" width="149.6143" x="228.9749" y="225.3"/><rect fill="#FFFFFF" height="10" style="stroke:#000000;stroke-width:1;" width="15" x="358.5892" y="230.3"/><rect fill="#FFFFFF" height="2" style="stroke:#000000;stroke-width:1;" width="4" x="356.5892" y="232.3"/><rect fill="#FFFFFF" height="2" style="stroke:#000000;stroke-width:1;" width="4" x="356.5892" y="236.3"/><text fill="#000000" font-family="Verdana" font-size="14" lengthAdjust="spacing" textLength="109.6143" x="243.9749" y="258.2951">Trading Service</text></g><!--entity Market Data Service--><g class="entity" data-entity="Market Data Service" data-source-line="13" data-uid="ent0010" id="entity_Market Data Service"><rect fill="#FFFFFF" height="46.2969" rx="2.5" ry="2.5" style="stroke:#000000;stroke-width:1;" width="182.6934" x="413.4349" y="225.3"/><rect fill="#FFFFFF" height="10" style="stroke:#000000;stroke-width:1;" width="15" x="576.1283" y="230.3"/><rect fill="#FFFFFF" height="2" style="stroke:#000000;stroke-width:1;" width="4" x="574.1283" y="232.3"/><rect fill="#FFFFFF" height="2" style="stroke:#000000;stroke-width:1;" width="4" x="574.1283" y="236.3"/><text fill="#000000" font-family="Verdana" font-size="14" lengthAdjust="spacing" textLength="142.6934" x="428.4349" y="258.2951">Market Data Service</text></g><!--entity Risk Service--><g class="entity" data-entity="Risk Service" data-source-line="16" data-uid="ent0012" id="entity_Risk Service"><rect fill="#FFFFFF" height="46.2969" rx="2.5" ry="2.5" style="stroke:#000000;stroke-width:1;" width="125.21" x="652.1849" y="225.3"/><rect fill="#FFFFFF" height="10" style="stroke:#000000;stroke-width:1;" width="15" x="757.3949" y="230.3"/><rect fill="#FFFFFF" height="2" style="stroke:#000000;stroke-width:1;" width="4" x="755.3949" y="232.3"/><rect fill="#FFFFFF" height="2" style="stroke:#000000;stroke-width:1;" width="4" x="755.3949" y="236.3"/><text fill="#000000" font-family="Verdana" font-size="14" lengthAdjust="spacing" textLength="85.21" x="667.1849" y="258.2951">Risk Service</text></g><!--entity Compliance Service--><g class="entity" data-entity="Compliance Service" data-source-line="17" data-uid="ent0013" id="entity_Compliance Service"><rect fill="#FFFFFF" height="46.2969" rx="2.5" ry="2.5" style="stroke:#000000;stroke-width:1;" width="178.5986" x="812.4849" y="225.3"/><rect fill="#FFFFFF" height="10" style="stroke:#000000;stroke-width:1;" width="15" x="971.0835" y="230.3"/><rect fill="#FFFFFF" height="2" style="stroke:#000000;stroke-width:1;" width="4" x="969.0835" y="232.3"/><rect fill="#FFFFFF" height="2" style="stroke:#000000;stroke-width:1;" width="4" x="969.0835" y="236.3"/><text fill="#000000" font-family="Verdana" font-size="14" lengthAdjust="spacing" textLength="138.5986" x="827.4849" y="258.2951">Compliance Service</text></g><!--entity Finance & Settlements Service--><g class="entity" data-entity="Finance . Settlements Service" data-source-line="20" data-uid="ent0015" id="entity_Finance . Settlements Service"><rect fill="#FFFFFF" height="46.2969" rx="2.5" ry="2.5" style="stroke:#000000;stroke-width:1;" width="255.4756" x="1047.0449" y="225.3"/><rect fill="#FFFFFF" height="10" style="stroke:#000000;stroke-width:1;" width="15" x="1282.5205" y="230.3"/><rect fill="#FFFFFF" height="2" style="stroke:#000000;stroke-width:1;" width="4" x="1280.5205" y="232.3"/><rect fill="#FFFFFF" height="2" style="stroke:#000000;stroke-width:1;" width="4" x="1280.5205" y="236.3"/><text fill="#000000" font-family="Verdana" font-size="14" lengthAdjust="spacing" textLength="215.4756" x="1062.0449" y="258.2951">Finance &amp; Settlements Service</text></g><!--entity Logistics Service--><g class="entity" data-entity="Logistics Service" data-source-line="21" data-uid="ent0016" id="entity_Logistics Service"><rect fill="#FFFFFF" height="46.2969" rx="2.5" ry="2.5" style="stroke:#000000;stroke-width:1;" width="156.9971" x="1337.2849" y="225.3"/><rect fill="#FFFFFF" height="10" style="stroke:#000000;stroke-width:1;" width="15" x="1474.282" y="230.3"/><rect fill="#FFFFFF" height="2" style="stroke:#000000;stroke-width:1;" width="4" x="1472.282" y="232.3"/><rect fill="#FFFFFF" height="2" style="stroke:#000000;stroke-width:1;" width="4" x="1472.282" y="236.3"/><text fill="#000000" font-family="Verdana" font-size="14" lengthAdjust="spacing" textLength="116.9971" x="1352.2849" y="258.2951">Logistics Service</text></g><!--entity Reference Data Service--><g class="entity" data-entity="Reference Data Service" data-source-line="24" data-uid="ent0018" id="entity_Reference Data Service"><rect fill="#FFFFFF" height="46.2969" rx="2.5" ry="2.5" style="stroke:#000000;stroke-width:1;" width="205.5049" x="1550.0349" y="225.3"/><rect fill="#FFFFFF" height="10" style="stroke:#000000;stroke-width:1;" width="15" x="1735.5398" y="230.3"/><rect fill="#FFFFFF" height="2" style="stroke:#000000;stroke-width:1;" width="4" x="1733.5398" y="232.3"/><rect fill="#FFFFFF" height="2" style="stroke:#000000;stroke-width:1;" width="4" x="1733.5398" y="236.3"/><text fill="#000000" font-family="Verdana" font-size="14" lengthAdjust="spacing" textLength="165.5049" x="1565.0349" y="258.2951">Reference Data Service</text></g><!--entity IAM Service--><g class="entity" data-entity="IAM Service" data-source-line="25" data-uid="ent0019" id="entity_IAM Service"><rect fill="#FFFFFF" height="46.2969" rx="2.5" ry="2.5" style="stroke:#000000;stroke-width:1;" width="121.9766" x="1790.7949" y="225.3"/><rect fill="#FFFFFF" height="10" style="stroke:#000000;stroke-width:1;" width="15" x="1892.7715" y="230.3"/><rect fill="#FFFFFF" height="2" style="stroke:#000000;stroke-width:1;" width="4" x="1890.7715" y="232.3"/><rect fill="#FFFFFF" height="2" style="stroke:#000000;stroke-width:1;" width="4" x="1890.7715" y="236.3"/><text fill="#000000" font-family="Verdana" font-size="14" lengthAdjust="spacing" textLength="81.9766" x="1805.7949" y="258.2951">IAM Service</text></g><!--entity K--><g class="entity" data-entity="K" data-source-line="29" data-uid="ent0020" id="entity_K"><path d="M691.5204,341.5923 C695.6943,333.8635 703.5955,333.2961 707.3506,341.9958 C712.3247,333.5842 719.7419,334.219 725.378,341.2215 C727.7537,333.7318 734.8674,330.8698 740.3105,338.1124 C745.5675,329.8958 751.683,331.3461 756.9114,338.1441 C761.7972,330.4969 767.5869,331.5008 772.8001,337.7703 C778.4593,329.6906 786.3243,330.9465 790.8153,339.0692 C795.288,330.7038 800.6946,330.141 807.3834,336.5909 C811.6564,330.5481 817.7354,329.2722 822.2408,336.3272 C827.081,328.9035 836.1425,327.1213 840.3922,336.9484 C844.7995,329.2815 852.1431,331.4987 855.4126,338.1426 C859.9884,329.9039 866.7311,329.5238 871.3011,338.1481 C876.1384,331.4131 884.083,330.5446 888.4802,338.6573 C894.1705,330.5538 900.5968,332.505 905.0987,339.9292 C910.1461,333.0659 915.8953,333.0048 920.6388,340.2636 C930.6837,339.0556 936.5302,345.0669 931.7363,355.0191 C934.3663,365.0253 930.1108,369.9631 920.0243,370.0812 C916.6109,379.5312 910.7473,379.7574 903.7575,373.8758 C899.1802,380.3001 892.0724,380.7827 887.6959,373.6381 C884.4566,383.728 876.6509,384.4602 870.6092,376.2556 C865.3669,385.204 859.7586,384.2847 854.0432,376.7305 C850.7762,383.8246 844.721,384.1071 840.5646,377.6126 C835.0145,385.8919 828.9253,386.3778 822.8008,378.2339 C818.842,387.7696 810.2569,387.6981 805.3611,379.1369 C800.2725,386.8984 795.2322,387.6897 789.3439,379.9639 C783.7381,386.6206 778.0908,385.7149 774.8607,377.6298 C768.7319,386.5496 760.5763,384.4447 756.3091,375.6772 C751.6204,381.125 745.2207,382.1577 742.1335,374.0077 C736.0234,383.1763 729.6449,380.601 724.3454,373.1405 C718.6195,381.404 713.8097,379.7053 708.3375,372.8715 C702.3636,381.8443 695.761,380.9501 690.4804,372.1739 C680.423,369.8101 675.5148,365.1177 682.0953,354.748 C678.8985,346.9826 683.6505,341.4291 691.5204,341.5923" fill="#FFFFFF" style="stroke:#000000;stroke-width:1;"/><text fill="#000000" font-family="Verdana" font-size="14" lengthAdjust="spacing" textLength="215.7832" x="696.8949" y="359.5851">Event Backbone (Kafka/Pulsar)</text></g><!--entity DBTrade--><g class="entity" data-entity="DBTrade" data-source-line="30" data-uid="ent0021" id="entity_DBTrade"><path d="M214.7149,342.09 C214.7149,332.09 265.7886,332.09 265.7886,332.09 C265.7886,332.09 316.8624,332.09 316.8624,342.09 L316.8624,367.3869 C316.8624,377.3869 265.7886,377.3869 265.7886,377.3869 C265.7886,377.3869 214.7149,377.3869 214.7149,367.3869 L214.7149,342.09" fill="#FFFFFF" style="stroke:#000000;stroke-width:1;"/><path d="M214.7149,342.09 C214.7149,352.09 265.7886,352.09 265.7886,352.09 C265.7886,352.09 316.8624,352.09 316.8624,342.09" fill="none" style="stroke:#000000;stroke-width:1;"/><text fill="#000000" font-family="Verdana" font-size="14" lengthAdjust="spacing" textLength="82.1475" x="224.7149" y="369.0851">Trade Store</text></g><!--entity DBRisk--><g class="entity" data-entity="DBRisk" data-source-line="31" data-uid="ent0022" id="entity_DBRisk"><path d="M572.8549,342.09 C572.8549,332.09 609.7817,332.09 609.7817,332.09 C609.7817,332.09 646.7084,332.09 646.7084,342.09 L646.7084,367.3869 C646.7084,377.3869 609.7817,377.3869 609.7817,377.3869 C609.7817,377.3869 572.8549,377.3869 572.8549,367.3869 L572.8549,342.09" fill="#FFFFFF" style="stroke:#000000;stroke-width:1;"/><path d="M572.8549,342.09 C572.8549,352.09 609.7817,352.09 609.7817,352.09 C609.7817,352.09 646.7084,352.09 646.7084,342.09" fill="none" style="stroke:#000000;stroke-width:1;"/><text fill="#000000" font-family="Verdana" font-size="14" lengthAdjust="spacing" textLength="53.8535" x="582.8549" y="369.0851">Risk DB</text></g><!--entity DBFin--><g class="entity" data-entity="DBFin" data-source-line="32" data-uid="ent0023" id="entity_DBFin"><path d="M1125.0749,342.09 C1125.0749,332.09 1174.7815,332.09 1174.7815,332.09 C1174.7815,332.09 1224.488,332.09 1224.488,342.09 L1224.488,367.3869 C1224.488,377.3869 1174.7815,377.3869 1174.7815,377.3869 C1174.7815,377.3869 1125.0749,377.3869 1125.0749,367.3869 L1125.0749,342.09" fill="#FFFFFF" style="stroke:#000000;stroke-width:1;"/><path d="M1125.0749,342.09 C1125.0749,352.09 1174.7815,352.09 1174.7815,352.09 C1174.7815,352.09 1224.488,352.09 1224.488,342.09" fill="none" style="stroke:#000000;stroke-width:1;"/><text fill="#000000" font-family="Verdana" font-size="14" lengthAdjust="spacing" textLength="79.4131" x="1135.0749" y="369.0851">Finance DB</text></g><!--entity DBLog--><g class="entity" data-entity="DBLog" data-source-line="33" data-uid="ent0024" id="entity_DBLog"><path d="M1494.9649,342.09 C1494.9649,332.09 1547.7852,332.09 1547.7852,332.09 C1547.7852,332.09 1600.6055,332.09 1600.6055,342.09 L1600.6055,367.3869 C1600.6055,377.3869 1547.7852,377.3869 1547.7852,377.3869 C1547.7852,377.3869 1494.9649,377.3869 1494.9649,367.3869 L1494.9649,342.09" fill="#FFFFFF" style="stroke:#000000;stroke-width:1;"/><path d="M1494.9649,342.09 C1494.9649,352.09 1547.7852,352.09 1547.7852,352.09 C1547.7852,352.09 1600.6055,352.09 1600.6055,342.09" fill="none" style="stroke:#000000;stroke-width:1;"/><text fill="#000000" font-family="Verdana" font-size="14" lengthAdjust="spacing" textLength="85.6406" x="1504.9649" y="369.0851">Logistics DB</text></g><!--entity DBCmp--><g class="entity" data-entity="DBCmp" data-source-line="34" data-uid="ent0025" id="entity_DBCmp"><path d="M963.1649,342.09 C963.1649,332.09 1026.786,332.09 1026.786,332.09 C1026.786,332.09 1090.4071,332.09 1090.4071,342.09 L1090.4071,367.3869 C1090.4071,377.3869 1026.786,377.3869 1026.786,377.3869 C1026.786,377.3869 963.1649,377.3869 963.1649,367.3869 L963.1649,342.09" fill="#FFFFFF" style="stroke:#000000;stroke-width:1;"/><path d="M963.1649,342.09 C963.1649,352.09 1026.786,352.09 1026.786,352.09 C1026.786,352.09 1090.4071,352.09 1090.4071,342.09" fill="none" style="stroke:#000000;stroke-width:1;"/><text fill="#000000" font-family="Verdana" font-size="14" lengthAdjust="spacing" textLength="107.2422" x="973.1649" y="369.0851">Compliance DB</text></g><!--entity DBRef--><g class="entity" data-entity="DBRef" data-source-line="35" data-uid="ent0026" id="entity_DBRef"><path d="M1635.6449,342.09 C1635.6449,332.09 1693.7802,332.09 1693.7802,332.09 C1693.7802,332.09 1751.9154,332.09 1751.9154,342.09 L1751.9154,367.3869 C1751.9154,377.3869 1693.7802,377.3869 1693.7802,377.3869 C1693.7802,377.3869 1635.6449,377.3869 1635.6449,367.3869 L1635.6449,342.09" fill="#FFFFFF" style="stroke:#000000;stroke-width:1;"/><path d="M1635.6449,342.09 C1635.6449,352.09 1693.7802,352.09 1693.7802,352.09 C1693.7802,352.09 1751.9154,352.09 1751.9154,342.09" fill="none" style="stroke:#000000;stroke-width:1;"/><text fill="#000000" font-family="Verdana" font-size="14" lengthAdjust="spacing" textLength="96.2705" x="1645.6449" y="369.0851">Reference DB</text></g><!--entity EX--><g class="entity" data-entity="EX" data-source-line="57" data-uid="ent0044" id="entity_EX"><path d="M24.4202,340.0478 C28.1899,332.9723 33.6227,333.9826 38.0401,339.3383 C42.206,333.8751 46.2832,333.8887 50.1516,339.6591 C53.456,333.1185 57.5218,333.2812 61.7184,338.8038 C66.1563,331.5878 70.2276,331.8615 75.0711,338.4103 C78.6866,333.0612 82.9856,333.2733 86.6739,338.3291 C89.2792,332.03 94.8893,331.7147 98.1989,337.6666 C103.0136,330.5297 107.4541,331.2126 111.8242,338.0986 C115.096,333.1485 120.7621,332.6352 123.1015,339.0257 C127.2543,333.0445 132.5695,332.79 136.7118,339.0374 C139.6637,332.9466 144.984,333.6387 148.3781,338.5693 C152.7019,332.9976 156.5405,334.7831 159.6295,339.8724 C164.0837,334.63 168.9449,335.0764 172.3067,341.1014 C180.8193,344.5571 181.8866,350.016 175.8821,356.7818 C182.1389,361.5301 181.371,367.8585 174.1074,370.9081 C170.9539,379.0097 164.6369,379.6672 159.7721,372.5166 C156.2484,377.4667 151.3106,376.9024 148.4588,371.7631 C145.5033,378.0865 141.5204,379.1731 136.632,373.7011 C132.8061,380.3505 128.4637,379.8819 124.2563,374.0803 C121.4629,381.4876 115.3644,381.6238 111.3323,375.2412 C108.0143,380.5577 103.3457,381.5698 99.7659,375.5073 C95.1247,380.4847 90.0399,380.5626 86.4849,374.2316 C82.5812,380.3213 76.6278,379.803 73.1033,373.8115 C69.8749,379.489 64.981,379.5597 61.4856,374.0898 C56.2051,378.7763 52.3463,378.0218 49.3146,371.6212 C45.7715,377.2051 39.9532,376.8804 37.0017,370.9865 C33.2326,375.6487 29.2517,376.1542 25.567,370.8892 C15.2801,369.7882 11,365.5303 16.4793,355.2613 C11.0189,345.845 14.0027,341.1764 24.4202,340.0478" fill="#FFFFFF" style="stroke:#000000;stroke-width:1;"/><text fill="#000000" font-family="Verdana" font-size="14" lengthAdjust="spacing" textLength="134.3604" x="30.6049" y="359.5851">Exchanges/Brokers</text></g><!--entity MDP--><g class="entity" data-entity="MDP" data-source-line="58" data-uid="ent0045" id="entity_MDP"><path d="M360.0407,340.255 C363.5723,334.3584 369.2128,333.7439 372.4709,340.5232 C376.1517,334.026 380.5844,332.3503 385.907,338.8223 C389.3101,332.6775 394.7772,333.8081 398.0841,338.9264 C402.0499,333.8053 405.8807,334.1502 409.8311,338.9447 C412.2859,333.4104 417.4114,332.8306 421.0172,337.708 C424.7708,332.95 429.758,332.8609 433.1149,338.1841 C437.065,332.4605 441.8795,331.4421 445.9797,338.0273 C449.7389,333.3605 454.0637,332.3372 457.1945,338.6682 C460.6616,332.5167 467.1801,331.735 471.266,337.9647 C474.858,331.3429 479.7292,331.164 483.5492,337.7527 C487.0949,332.5535 492.5187,332.2374 495.4204,338.4241 C499.2564,332.9891 505.1989,333.7915 507.6556,339.8877 C511.6322,335.5746 515.3,336.5101 518.0868,341.2576 C522.8175,335.0923 527.4146,334.7263 531.9846,341.4311 C542.1205,340.7523 545.9582,345.3616 541.7183,354.9973 C547.0786,365.3959 541.6897,370.5075 531.4912,370.9001 C528.2538,377.6961 524.4314,377.0617 519.7535,372.3723 C515.1244,377.9673 510.5953,376.7579 506.9879,371.2026 C504.9533,377.3689 499.2642,378.3541 495.4584,372.9707 C491.217,378.9461 486.4432,378.0841 483.0374,372.1026 C480.4113,377.8492 475.487,379.6735 471.285,373.6803 C468.5467,380.8673 462.3134,381.0838 458.6166,374.5664 C453.6496,381.8473 449.4487,380.8026 444.8184,374.231 C441.7396,379.8339 437.9528,379.2013 434.7123,374.3878 C429.6857,381.0251 425.634,380.1608 421.253,373.7233 C417.475,380.4835 412.9645,379.4546 408.874,374.041 C405.3624,378.8732 400.4092,378.1337 397.4631,373.3687 C392.9335,379.0762 389.3864,378.8341 385.9292,372.3538 C382.0056,379.0789 375.9066,377.3748 373.025,371.303 C369.2346,377.4365 365.7012,377.3073 361.7718,371.4333 C351.3062,371.0528 346.2747,365.3614 349.7106,354.8626 C346.6276,345.8162 349.4542,339.6347 360.0407,340.255" fill="#FFFFFF" style="stroke:#000000;stroke-width:1;"/><text fill="#000000" font-family="Verdana" font-size="14" lengthAdjust="spacing" textLength="156.4404" x="366.5649" y="359.5851">Market Data Providers</text></g><!--entity BKH--><g class="entity" data-entity="BKH" data-source-line="59" data-uid="ent0046" id="entity_BKH"><path d="M1270.2614,340.714 C1274.1867,334.227 1277.946,335.2246 1282.0709,340.5138 C1285.2153,333.6163 1289.3897,333.4045 1294.2599,338.8031 C1297.8895,331.6298 1304.758,331.0188 1309.0012,338.1716 C1313.0307,331.5276 1318.1663,331.2658 1322.244,338.1243 C1326.1631,332.5592 1329.8059,332.6899 1333.7415,338.107 C1338.3875,332.4499 1342.5011,333.0488 1346.7294,338.5913 C1349.2731,331.455 1355.74,330.2484 1360.2764,336.5882 C1364.1441,331.777 1370.0966,330.6395 1372.9233,337.6973 C1377.1481,331.7117 1383.5987,332.2584 1386.0852,339.4355 C1390.136,331.2812 1396.0009,331.8498 1401.5003,337.8589 C1406.1128,331.5133 1411.3265,332.3014 1414.3953,339.3455 C1418.2589,334.2064 1422.0623,334.21 1425.7261,339.5613 C1430.1474,333.0495 1437.0631,332.5454 1440.7463,340.3365 C1444.4277,333.8865 1448.8207,333.2005 1453.2554,339.6033 C1465.1228,340.7994 1466.3093,347.1604 1462.0548,356.6691 C1464.7137,364.9555 1461.979,370.0363 1452.8978,370.6127 C1450.2079,377.8397 1445.7629,378.7418 1440.5744,372.984 C1436.1431,378.465 1431.9072,378.5666 1427.3916,373.0854 C1423.6455,379.6361 1419.3971,380.2387 1414.5083,374.2605 C1410.9135,382.3462 1406.1927,382.0701 1400.2377,376.7783 C1396.7203,382.4855 1391.2024,382.8563 1387.8364,376.6211 C1384.5294,383.7288 1378.9706,384.3007 1374.0908,378.2661 C1370.4397,385.0597 1365.0825,385.1283 1361.3504,378.342 C1356.6912,383.7591 1352.7098,383.4407 1349.0844,377.2496 C1344.1158,385.3539 1338.4067,383.4766 1334.0026,376.6783 C1329.7818,383.4154 1325.715,382.6259 1321.623,376.5539 C1316.7153,383.5102 1311.685,383.4277 1307.6837,375.6938 C1303.5066,380.1705 1298.5692,380.736 1295.991,374.0231 C1290.7146,379.3547 1286.0073,380.4365 1282.0932,372.5867 C1277.4713,379.3488 1271.0004,377.0399 1268.6889,370.294 C1258.8354,369.7517 1253.9761,364.5903 1259.2661,354.824 C1256.7944,345.1617 1259.3761,339.9677 1270.2614,340.714" fill="#FFFFFF" style="stroke:#000000;stroke-width:1;"/><text fill="#000000" font-family="Verdana" font-size="14" lengthAdjust="spacing" textLength="169.9551" x="1274.8049" y="359.5851">Banks / Clearing Houses</text></g><!--link Trader UI to Trading Service--><g class="link" data-entity-1="Trader UI" data-entity-2="Trading Service" data-source-line="37" data-uid="lnk27" id="link_Trader UI_Trading Service"><path d="M502.8649,84.9 C469.8349,92.87 427.6949,106.62 395.7849,129.3 C359.7549,154.89 334.0001,193.4011 318.7501,219.8711" fill="none" id="Trader UI-to-Trading Service" style="stroke:#000000;stroke-width:1;"/><polygon fill="#000000" points="315.7549,225.07,323.7137,219.2684,318.2509,220.7376,316.7818,215.2748,315.7549,225.07" style="stroke:#000000;stroke-width:1;"/></g><!--link Risk Manager UI to Risk Service--><g class="link" data-entity-1="Risk Manager UI" data-entity-2="Risk Service" data-source-line="38" data-uid="lnk28" id="link_Risk Manager UI_Risk Service"><path d="M719.1349,97.67 C718.1749,130.69 716.5693,185.8925 715.6093,218.9125" fill="none" id="Risk Manager UI-to-Risk Service" style="stroke:#000000;stroke-width:1;"/><polygon fill="#000000" points="715.4349,224.91,719.6948,216.03,715.5802,219.9121,711.6982,215.7976,715.4349,224.91" style="stroke:#000000;stroke-width:1;"/></g><!--link Ops/BackOffice UI to Finance & Settlements Service--><g class="link" data-entity-1="Ops.BackOffice UI" data-entity-2="Finance . Settlements Service" data-source-line="39" data-uid="lnk29" id="link_Ops.BackOffice UI_Finance . Settlements Service"><path d="M1101.7649,97.67 C1117.8649,130.69 1145.0753,186.4969 1161.1753,219.5169" fill="none" id="Ops/BackOffice UI-to-Finance &amp; Settlements Service" style="stroke:#000000;stroke-width:1;"/><polygon fill="#000000" points="1163.8049,224.91,1163.4559,215.0673,1161.6136,220.4158,1156.2652,218.5734,1163.8049,224.91" style="stroke:#000000;stroke-width:1;"/></g><!--link Ops/BackOffice UI to Logistics Service--><g class="link" data-entity-1="Ops.BackOffice UI" data-entity-2="Logistics Service" data-source-line="40" data-uid="lnk30" id="link_Ops.BackOffice UI_Logistics Service"><path d="M1173.9649,81.65 C1219.8049,88.34 1276.0949,101.88 1319.7849,129.3 C1358.0649,153.32 1385.0317,192.7715 1400.7117,219.7715" fill="none" id="Ops/BackOffice UI-to-Logistics Service" style="stroke:#000000;stroke-width:1;"/><polygon fill="#000000" points="1403.7249,224.96,1402.6641,215.1684,1401.2139,220.6362,1395.7461,219.186,1403.7249,224.96" style="stroke:#000000;stroke-width:1;"/></g><!--link Compliance UI to Compliance Service--><g class="link" data-entity-1="Compliance UI" data-entity-2="Compliance Service" data-source-line="41" data-uid="lnk31" id="link_Compliance UI_Compliance Service"><path d="M901.7849,97.67 C901.7849,130.69 901.7849,185.89 901.7849,218.91" fill="none" id="Compliance UI-to-Compliance Service" style="stroke:#000000;stroke-width:1;"/><polygon fill="#000000" points="901.7849,224.91,905.7849,215.91,901.7849,219.91,897.7849,215.91,901.7849,224.91" style="stroke:#000000;stroke-width:1;"/></g><!--link Trading Service to K--><g class="link" data-entity-1="Trading Service" data-entity-2="K" data-source-line="43" data-uid="lnk32" id="link_Trading Service_K"><path d="M325.2349,271.97 C342.5249,288.47 368.4049,309.66 395.7849,319.59 C451.8249,339.93 604.4649,325.63 663.7849,331.59 C669.5749,332.18 669.5381,332.1216 675.5081,332.8416" fill="none" id="Trading Service-to-K" style="stroke:#000000;stroke-width:1;"/><polygon fill="#000000" points="681.4649,333.56,673.0086,328.5112,676.5009,332.9613,672.0507,336.4536,681.4649,333.56" style="stroke:#000000;stroke-width:1;"/></g><!--link Market Data Service to K--><g class="link" data-entity-1="Market Data Service" data-entity-2="K" data-source-line="44" data-uid="lnk33" id="link_Market Data Service_K"><path d="M540.1649,272.07 C565.8049,287.53 601.8049,307.36 635.7849,319.59 C650.4349,324.86 660.2714,327.9553 675.9514,331.8453" fill="none" id="Market Data Service-to-K" style="stroke:#000000;stroke-width:1;"/><polygon fill="#000000" points="681.7749,333.29,674.0029,327.2406,676.922,332.0861,672.0766,335.0052,681.7749,333.29" style="stroke:#000000;stroke-width:1;"/></g><!--link Risk Service to K--><g class="link" data-entity-1="Risk Service" data-entity-2="K" data-source-line="45" data-uid="lnk34" id="link_Risk Service_K"><path d="M734.3149,272.08 C749.4049,289.57 766.2841,309.1282 781.3741,326.6082" fill="none" id="Risk Service-to-K" style="stroke:#000000;stroke-width:1;"/><polygon fill="#000000" points="785.2949,331.15,782.4416,321.7235,782.0276,327.3652,776.3859,326.9512,785.2949,331.15" style="stroke:#000000;stroke-width:1;"/></g><!--link Finance & Settlements Service to K--><g class="link" data-entity-1="Finance . Settlements Service" data-entity-2="K" data-source-line="46" data-uid="lnk35" id="link_Finance . Settlements Service_K"><path d="M1128.7449,272.03 C1095.5549,287.47 1049.2949,307.3 1006.7849,319.59 C998.1749,322.08 970.984,326.918 933.974,333.058" fill="none" id="Finance &amp; Settlements Service-to-K" style="stroke:#000000;stroke-width:1;"/><polygon fill="#000000" points="928.0549,334.04,937.5882,336.5131,932.9875,333.2217,936.2789,328.621,928.0549,334.04" style="stroke:#000000;stroke-width:1;"/></g><!--link Logistics Service to K--><g class="link" data-entity-1="Logistics Service" data-entity-2="K" data-source-line="47" data-uid="lnk36" id="link_Logistics Service_K"><path d="M1393.2549,272.08 C1375.1249,288.64 1348.0849,309.85 1319.7849,319.59 C1280.4749,333.13 987.1749,327.69 945.7849,331.59 C939.9849,332.14 940.0241,332.0713 934.0541,332.7713" fill="none" id="Logistics Service-to-K" style="stroke:#000000;stroke-width:1;"/><polygon fill="#000000" points="928.0949,333.47,937.4995,336.3947,933.0609,332.8877,936.5679,328.4491,928.0949,333.47" style="stroke:#000000;stroke-width:1;"/></g><!--link Compliance Service to K--><g class="link" data-entity-1="Compliance Service" data-entity-2="K" data-source-line="48" data-uid="lnk37" id="link_Compliance Service_K"><path d="M880.7349,272.08 C864.4649,289.57 846.1415,309.2768 829.8815,326.7568" fill="none" id="Compliance Service-to-K" style="stroke:#000000;stroke-width:1;"/><polygon fill="#000000" points="825.7949,331.15,834.8535,327.2846,829.2004,327.489,828.996,321.8359,825.7949,331.15" style="stroke:#000000;stroke-width:1;"/></g><!--link Trading Service to DBTrade--><g class="link" data-entity-1="Trading Service" data-entity-2="DBTrade" data-source-line="50" data-uid="lnk38" id="link_Trading Service_DBTrade"><path d="M295.5349,272.08 C289.0749,289.81 282.1987,308.6925 275.8087,326.2325" fill="none" id="Trading Service-to-DBTrade" style="stroke:#000000;stroke-width:1;"/><polygon fill="#000000" points="273.7549,331.87,280.594,324.7829,275.4664,327.1721,273.0773,322.0445,273.7549,331.87" style="stroke:#000000;stroke-width:1;"/></g><!--link Risk Service to DBRisk--><g class="link" data-entity-1="Risk Service" data-entity-2="DBRisk" data-source-line="51" data-uid="lnk39" id="link_Risk Service_DBRisk"><path d="M692.0049,272.08 C674.1449,289.81 653.7108,310.1006 636.0608,327.6406" fill="none" id="Risk Service-to-DBRisk" style="stroke:#000000;stroke-width:1;"/><polygon fill="#000000" points="631.8049,331.87,641.0083,328.3632,635.3515,328.3455,635.3692,322.6887,631.8049,331.87" style="stroke:#000000;stroke-width:1;"/></g><!--link Finance & Settlements Service to DBFin--><g class="link" data-entity-1="Finance . Settlements Service" data-entity-2="DBFin" data-source-line="52" data-uid="lnk40" id="link_Finance . Settlements Service_DBFin"><path d="M1174.7849,272.08 C1174.7849,289.81 1174.7849,308.33 1174.7849,325.87" fill="none" id="Finance &amp; Settlements Service-to-DBFin" style="stroke:#000000;stroke-width:1;"/><polygon fill="#000000" points="1174.7849,331.87,1178.7849,322.87,1174.7849,326.87,1170.7849,322.87,1174.7849,331.87" style="stroke:#000000;stroke-width:1;"/></g><!--link Logistics Service to DBLog--><g class="link" data-entity-1="Logistics Service" data-entity-2="DBLog" data-source-line="53" data-uid="lnk41" id="link_Logistics Service_DBLog"><path d="M1444.4249,272.08 C1466.8749,289.81 1493.197,310.6103 1515.397,328.1503" fill="none" id="Logistics Service-to-DBLog" style="stroke:#000000;stroke-width:1;"/><polygon fill="#000000" points="1520.1049,331.87,1515.5229,323.1519,1516.1817,328.7703,1510.5633,329.4291,1520.1049,331.87" style="stroke:#000000;stroke-width:1;"/></g><!--link Compliance Service to DBCmp--><g class="link" data-entity-1="Compliance Service" data-entity-2="DBCmp" data-source-line="54" data-uid="lnk42" id="link_Compliance Service_DBCmp"><path d="M928.9049,272.08 C950.1649,289.81 974.9481,310.4859 995.9681,328.0259" fill="none" id="Compliance Service-to-DBCmp" style="stroke:#000000;stroke-width:1;"/><polygon fill="#000000" points="1000.5749,331.87,996.2274,323.0326,996.7359,328.6666,991.1019,329.175,1000.5749,331.87" style="stroke:#000000;stroke-width:1;"/></g><!--link Reference Data Service to DBRef--><g class="link" data-entity-1="Reference Data Service" data-entity-2="DBRef" data-source-line="55" data-uid="lnk43" id="link_Reference Data Service_DBRef"><path d="M1661.6849,272.08 C1668.6549,289.81 1676.1012,308.7454 1682.9912,326.2854" fill="none" id="Reference Data Service-to-DBRef" style="stroke:#000000;stroke-width:1;"/><polygon fill="#000000" points="1685.1849,331.87,1685.6174,322.0306,1683.3568,327.2162,1678.1713,324.9556,1685.1849,331.87" style="stroke:#000000;stroke-width:1;"/></g><!--link Trading Service to EX--><g class="link" data-entity-1="Trading Service" data-entity-2="EX" data-source-line="61" data-uid="lnk47" id="link_Trading Service_EX"><path d="M259.0849,272.08 C224.5349,289.57 182.2781,310.9601 147.7481,328.4401" fill="none" id="Trading Service-to-EX" style="stroke:#000000;stroke-width:1;"/><polygon fill="#000000" points="142.3949,331.15,152.2313,330.6539,146.8559,328.8917,148.6181,323.5164,142.3949,331.15" style="stroke:#000000;stroke-width:1;"/></g><!--link Market Data Service to MDP--><g class="link" data-entity-1="Market Data Service" data-entity-2="MDP" data-source-line="62" data-uid="lnk48" id="link_Market Data Service_MDP"><path d="M491.7649,272.08 C481.7049,289.57 470.8278,308.4697 460.7678,325.9497" fill="none" id="Market Data Service-to-MDP" style="stroke:#000000;stroke-width:1;"/><polygon fill="#000000" points="457.7749,331.15,465.731,325.3448,460.2689,326.8164,458.7973,321.3544,457.7749,331.15" style="stroke:#000000;stroke-width:1;"/></g><!--link Finance & Settlements Service to BKH--><g class="link" data-entity-1="Finance . Settlements Service" data-entity-2="BKH" data-source-line="63" data-uid="lnk49" id="link_Finance . Settlements Service_BKH"><path d="M1214.9249,272.08 C1245.9549,289.57 1283.4881,310.7237 1314.4981,328.2037" fill="none" id="Finance &amp; Settlements Service-to-BKH" style="stroke:#000000;stroke-width:1;"/><polygon fill="#000000" points="1319.7249,331.15,1313.8489,323.246,1315.3692,328.6948,1309.9205,330.2151,1319.7249,331.15" style="stroke:#000000;stroke-width:1;"/></g><!--SRC=[ZLF1JeD04Btp5MCFHWzD_y14MerD9ILMeqdZOOIXtK1toUwsCJ7-kmlBbhM0zaHuytZpPkPneRUq8oWBP3m8k4W9HY-A9BmAcIkDcWckHl0Lh9ybfWP_cRy7woUcSeYGuyOXor9DGapoPPQnX2ms5RkoOCYRzs-dFtr-YY0kK6T2xYfj2zzBmJKq0YkI1_DiMpE-SQ2HZb3cf6666blqkn6AM9eMrAjK6szbF8STbMgQNerxnkilBWsiTM7MnxNoH1_5XYdD4jNLN6rHKdfYYJAIL0d-dcOzlury1RE-f13x54Pt1zCHAdyVWXDSBJ3BSHBl2uNoUWIeO16aHki3bUbPtmrMMaYgQxEmHZn6lPHPs5IhDw_efZtM3U2Lss6F10Dv16_5HyPqL_hjsmKSFL0M-8c3yVW6Uc9mcaFBEpboDvgMzjyTXxxhkUz9r2slBrpTBDVSHN-YNUtNG0xysxvZTSswIe-zfZHWqWMdnqwJcdCysG0D-RBf6VHcepFqopWhLNZSh_APR95lo5nIYfoagWDsz-Rg_jPZAGuiTPne5ZjIY3nNC85fGIYhjJo8lI9B2nSFG_ioNOQlMicViowZ_mC0]--></g></svg>