<svg xmlns="http://www.w3.org/2000/svg" xmlns:xlink="http://www.w3.org/1999/xlink" contentStyleType="text/css" data-diagram-type="ACTIVITY" height="406px" preserveAspectRatio="none" style="width:332px;height:406px;background:#FFFFFF;" version="1.1" viewBox="0 0 332 406" width="332px" zoomAndPan="magnify"><defs/><g><ellipse cx="171.6841" cy="15" fill="#FFFFFF" rx="10" ry="10" style="stroke:#000000;stroke-width:1;"/><rect fill="#FFFFFF" height="33.9688" rx="12.5" ry="12.5" style="stroke:#000000;stroke-width:1;" width="188.4805" x="77.4438" y="45"/><text fill="#000000" font-family="Verdana" font-size="12" lengthAdjust="spacing" textLength="168.4805" x="87.4438" y="66.1387">New Counterparty Detected</text><rect fill="#FFFFFF" height="33.9688" rx="12.5" ry="12.5" style="stroke:#000000;stroke-width:1;" width="176.8145" x="83.2769" y="98.9688"/><text fill="#000000" font-family="Verdana" font-size="12" lengthAdjust="spacing" textLength="156.8145" x="93.2769" y="120.1074">Collect Identification Docs</text><rect fill="#FFFFFF" height="33.9688" rx="12.5" ry="12.5" style="stroke:#000000;stroke-width:1;" width="169.666" x="86.8511" y="152.9375"/><text fill="#000000" font-family="Verdana" font-size="12" lengthAdjust="spacing" textLength="149.666" x="96.8511" y="174.0762">Run Sanctions Screening</text><polygon fill="#FFFFFF" points="132.4241,206.9063,210.9441,206.9063,222.9441,218.9063,210.9441,230.9063,132.4241,230.9063,120.4241,218.9063,132.4241,206.9063" style="stroke:#000000;stroke-width:1;"/><text fill="#000000" font-family="Verdana" font-size="11" lengthAdjust="spacing" textLength="78.52" x="132.4241" y="222.7144">Sanctions Hit?</text><text fill="#000000" font-family="Verdana" font-size="11" lengthAdjust="spacing" textLength="19.2178" x="101.2063" y="216.312">Yes</text><text fill="#000000" font-family="Verdana" font-size="11" lengthAdjust="spacing" textLength="14.9585" x="222.9441" y="216.312">No</text><rect fill="#FFFFFF" height="33.9688" rx="12.5" ry="12.5" style="stroke:#000000;stroke-width:1;" width="135.9336" x="18.4688" y="240.9063"/><text fill="#000000" font-family="Verdana" font-size="12" lengthAdjust="spacing" textLength="115.9336" x="28.4688" y="262.0449">Block Counterparty</text><rect fill="#FFFFFF" height="33.9688" rx="12.5" ry="12.5" style="stroke:#000000;stroke-width:1;" width="160.8711" x="6" y="294.875"/><text fill="#000000" font-family="Verdana" font-size="12" lengthAdjust="spacing" textLength="140.8711" x="16" y="316.0137">Escalate to Compliance</text><rect fill="#FFFFFF" height="33.9688" rx="12.5" ry="12.5" style="stroke:#000000;stroke-width:1;" width="130.7246" x="191.5703" y="240.9063"/><text fill="#000000" font-family="Verdana" font-size="12" lengthAdjust="spacing" textLength="110.7246" x="201.5703" y="262.0449">Assign Risk Rating</text><rect fill="#FFFFFF" height="33.9688" rx="12.5" ry="12.5" style="stroke:#000000;stroke-width:1;" width="140.123" x="186.8711" y="294.875"/><text fill="#000000" font-family="Verdana" font-size="12" lengthAdjust="spacing" textLength="120.123" x="196.8711" y="316.0137">Approve for Trading</text><polygon fill="#FFFFFF" points="171.6841,334.8438,183.6841,346.8438,171.6841,358.8438,159.6841,346.8438,171.6841,334.8438" style="stroke:#000000;stroke-width:1;"/><ellipse cx="171.6841" cy="389.8438" fill="none" rx="11" ry="11" style="stroke:#000000;stroke-width:1;"/><ellipse cx="171.6841" cy="389.8438" fill="#FFFFFF" rx="6" ry="6" style="stroke:#000000;stroke-width:1;"/><line style="stroke:#000000;stroke-width:1;" x1="171.6841" x2="171.6841" y1="25" y2="45"/><polygon fill="#000000" points="167.6841,35,171.6841,45,175.6841,35,171.6841,39" style="stroke:#000000;stroke-width:1;"/><line style="stroke:#000000;stroke-width:1;" x1="171.6841" x2="171.6841" y1="78.9688" y2="98.9688"/><polygon fill="#000000" points="167.6841,88.9688,171.6841,98.9688,175.6841,88.9688,171.6841,92.9688" style="stroke:#000000;stroke-width:1;"/><line style="stroke:#000000;stroke-width:1;" x1="171.6841" x2="171.6841" y1="132.9375" y2="152.9375"/><polygon fill="#000000" points="167.6841,142.9375,171.6841,152.9375,175.6841,142.9375,171.6841,146.9375" style="stroke:#000000;stroke-width:1;"/><line style="stroke:#000000;stroke-width:1;" x1="86.4355" x2="86.4355" y1="274.875" y2="294.875"/><polygon fill="#000000" points="82.4355,284.875,86.4355,294.875,90.4355,284.875,86.4355,288.875" style="stroke:#000000;stroke-width:1;"/><line style="stroke:#000000;stroke-width:1;" x1="256.9326" x2="256.9326" y1="274.875" y2="294.875"/><polygon fill="#000000" points="252.9326,284.875,256.9326,294.875,260.9326,284.875,256.9326,288.875" style="stroke:#000000;stroke-width:1;"/><line style="stroke:#000000;stroke-width:1;" x1="120.4241" x2="86.4355" y1="218.9063" y2="218.9063"/><line style="stroke:#000000;stroke-width:1;" x1="86.4355" x2="86.4355" y1="218.9063" y2="240.9063"/><polygon fill="#000000" points="82.4355,230.9063,86.4355,240.9063,90.4355,230.9063,86.4355,234.9063" style="stroke:#000000;stroke-width:1;"/><line style="stroke:#000000;stroke-width:1;" x1="222.9441" x2="256.9326" y1="218.9063" y2="218.9063"/><line style="stroke:#000000;stroke-width:1;" x1="256.9326" x2="256.9326" y1="218.9063" y2="240.9063"/><polygon fill="#000000" points="252.9326,230.9063,256.9326,240.9063,260.9326,230.9063,256.9326,234.9063" style="stroke:#000000;stroke-width:1;"/><line style="stroke:#000000;stroke-width:1;" x1="86.4355" x2="86.4355" y1="328.8438" y2="346.8438"/><line style="stroke:#000000;stroke-width:1;" x1="86.4355" x2="159.6841" y1="346.8438" y2="346.8438"/><polygon fill="#000000" points="149.6841,342.8438,159.6841,346.8438,149.6841,350.8438,153.6841,346.8438" style="stroke:#000000;stroke-width:1;"/><line style="stroke:#000000;stroke-width:1;" x1="256.9326" x2="256.9326" y1="328.8438" y2="346.8438"/><line style="stroke:#000000;stroke-width:1;" x1="256.9326" x2="183.6841" y1="346.8438" y2="346.8438"/><polygon fill="#000000" points="193.6841,342.8438,183.6841,346.8438,193.6841,350.8438,189.6841,346.8438" style="stroke:#000000;stroke-width:1;"/><line style="stroke:#000000;stroke-width:1;" x1="171.6841" x2="171.6841" y1="186.9063" y2="206.9063"/><polygon fill="#000000" points="167.6841,196.9063,171.6841,206.9063,175.6841,196.9063,171.6841,200.9063" style="stroke:#000000;stroke-width:1;"/><line style="stroke:#000000;stroke-width:1;" x1="171.6841" x2="171.6841" y1="358.8438" y2="378.8438"/><polygon fill="#000000" points="167.6841,368.8438,171.6841,378.8438,175.6841,368.8438,171.6841,372.8438" style="stroke:#000000;stroke-width:1;"/><!--SRC=[LOynJWD134NxEONfDbVOBL18aA19iKb3EPhz6wnCxD7O8UBsE3I8plfF_iz-yazSGQrcbfJCS_Sq7d2ddTx4qLi4txI7epYMAOqxhJLcUbyWpYkNxAn2UoqMTBu97REKHsPqB1qGblEKUANX3xonFsyer4B31soJnfUgvV9F6cslLdBD3d8DT6sLem5JGZNGSD3OsvhnMMXckz0SfpnSuxQrhb-WLJkTUbv-KyZ2QtoexGS0]--></g></svg>