<svg xmlns="http://www.w3.org/2000/svg" xmlns:xlink="http://www.w3.org/1999/xlink" contentStyleType="text/css" data-diagram-type="ACTIVITY" height="352px" preserveAspectRatio="none" style="width:314px;height:352px;background:#FFFFFF;" version="1.1" viewBox="0 0 314 352" width="314px" zoomAndPan="magnify"><defs/><g><ellipse cx="166.1514" cy="15" fill="#FFFFFF" rx="10" ry="10" style="stroke:#000000;stroke-width:1;"/><rect fill="#FFFFFF" height="33.9688" rx="12.5" ry="12.5" style="stroke:#000000;stroke-width:1;" width="135.6348" x="98.334" y="45"/><text fill="#000000" font-family="Verdana" font-size="12" lengthAdjust="spacing" textLength="115.6348" x="108.334" y="66.1387">Receive New Order</text><rect fill="#FFFFFF" height="33.9688" rx="12.5" ry="12.5" style="stroke:#000000;stroke-width:1;" width="180.9922" x="75.6553" y="98.9688"/><text fill="#000000" font-family="Verdana" font-size="12" lengthAdjust="spacing" textLength="160.9922" x="85.6553" y="120.1074">Calculate Exposure Impact</text><polygon fill="#FFFFFF" points="124.9712,152.9375,207.3315,152.9375,219.3315,164.9375,207.3315,176.9375,124.9712,176.9375,112.9712,164.9375,124.9712,152.9375" style="stroke:#000000;stroke-width:1;"/><text fill="#000000" font-family="Verdana" font-size="11" lengthAdjust="spacing" textLength="82.3604" x="124.9712" y="168.7456">Exceeds Limit?</text><text fill="#000000" font-family="Verdana" font-size="11" lengthAdjust="spacing" textLength="19.2178" x="93.7534" y="162.3433">Yes</text><text fill="#000000" font-family="Verdana" font-size="11" lengthAdjust="spacing" textLength="14.9585" x="219.3315" y="162.3433">No</text><rect fill="#FFFFFF" height="33.9688" rx="12.5" ry="12.5" style="stroke:#000000;stroke-width:1;" width="95.8672" x="37.6523" y="186.9375"/><text fill="#000000" font-family="Verdana" font-size="12" lengthAdjust="spacing" textLength="75.8672" x="47.6523" y="208.0762">Reject Order</text><rect fill="#FFFFFF" height="33.9688" rx="12.5" ry="12.5" style="stroke:#000000;stroke-width:1;" width="159.1719" x="6" y="240.9063"/><text fill="#000000" font-family="Verdana" font-size="12" lengthAdjust="spacing" textLength="139.1719" x="16" y="262.0449">Emit Limit Breach Alert</text><rect fill="#FFFFFF" height="33.9688" rx="12.5" ry="12.5" style="stroke:#000000;stroke-width:1;" width="108.3301" x="192.5518" y="186.9375"/><text fill="#000000" font-family="Verdana" font-size="12" lengthAdjust="spacing" textLength="88.3301" x="202.5518" y="208.0762">Approve Order</text><rect fill="#FFFFFF" height="33.9688" rx="12.5" ry="12.5" style="stroke:#000000;stroke-width:1;" width="123.0898" x="185.1719" y="240.9063"/><text fill="#000000" font-family="Verdana" font-size="12" lengthAdjust="spacing" textLength="103.0898" x="195.1719" y="262.0449">Update Exposure</text><polygon fill="#FFFFFF" points="166.1514,280.875,178.1514,292.875,166.1514,304.875,154.1514,292.875,166.1514,280.875" style="stroke:#000000;stroke-width:1;"/><ellipse cx="166.1514" cy="335.875" fill="none" rx="11" ry="11" style="stroke:#000000;stroke-width:1;"/><ellipse cx="166.1514" cy="335.875" fill="#FFFFFF" rx="6" ry="6" style="stroke:#000000;stroke-width:1;"/><line style="stroke:#000000;stroke-width:1;" x1="166.1514" x2="166.1514" y1="25" y2="45"/><polygon fill="#000000" points="162.1514,35,166.1514,45,170.1514,35,166.1514,39" style="stroke:#000000;stroke-width:1;"/><line style="stroke:#000000;stroke-width:1;" x1="166.1514" x2="166.1514" y1="78.9688" y2="98.9688"/><polygon fill="#000000" points="162.1514,88.9688,166.1514,98.9688,170.1514,88.9688,166.1514,92.9688" style="stroke:#000000;stroke-width:1;"/><line style="stroke:#000000;stroke-width:1;" x1="85.5859" x2="85.5859" y1="220.9063" y2="240.9063"/><polygon fill="#000000" points="81.5859,230.9063,85.5859,240.9063,89.5859,230.9063,85.5859,234.9063" style="stroke:#000000;stroke-width:1;"/><line style="stroke:#000000;stroke-width:1;" x1="246.7168" x2="246.7168" y1="220.9063" y2="240.9063"/><polygon fill="#000000" points="242.7168,230.9063,246.7168,240.9063,250.7168,230.9063,246.7168,234.9063" style="stroke:#000000;stroke-width:1;"/><line style="stroke:#000000;stroke-width:1;" x1="112.9712" x2="85.5859" y1="164.9375" y2="164.9375"/><line style="stroke:#000000;stroke-width:1;" x1="85.5859" x2="85.5859" y1="164.9375" y2="186.9375"/><polygon fill="#000000" points="81.5859,176.9375,85.5859,186.9375,89.5859,176.9375,85.5859,180.9375" style="stroke:#000000;stroke-width:1;"/><line style="stroke:#000000;stroke-width:1;" x1="219.3315" x2="246.7168" y1="164.9375" y2="164.9375"/><line style="stroke:#000000;stroke-width:1;" x1="246.7168" x2="246.7168" y1="164.9375" y2="186.9375"/><polygon fill="#000000" points="242.7168,176.9375,246.7168,186.9375,250.7168,176.9375,246.7168,180.9375" style="stroke:#000000;stroke-width:1;"/><line style="stroke:#000000;stroke-width:1;" x1="85.5859" x2="85.5859" y1="274.875" y2="292.875"/><line style="stroke:#000000;stroke-width:1;" x1="85.5859" x2="154.1514" y1="292.875" y2="292.875"/><polygon fill="#000000" points="144.1514,288.875,154.1514,292.875,144.1514,296.875,148.1514,292.875" style="stroke:#000000;stroke-width:1;"/><line style="stroke:#000000;stroke-width:1;" x1="246.7168" x2="246.7168" y1="274.875" y2="292.875"/><line style="stroke:#000000;stroke-width:1;" x1="246.7168" x2="178.1514" y1="292.875" y2="292.875"/><polygon fill="#000000" points="188.1514,288.875,178.1514,292.875,188.1514,296.875,184.1514,292.875" style="stroke:#000000;stroke-width:1;"/><line style="stroke:#000000;stroke-width:1;" x1="166.1514" x2="166.1514" y1="132.9375" y2="152.9375"/><polygon fill="#000000" points="162.1514,142.9375,166.1514,152.9375,170.1514,142.9375,166.1514,146.9375" style="stroke:#000000;stroke-width:1;"/><line style="stroke:#000000;stroke-width:1;" x1="166.1514" x2="166.1514" y1="304.875" y2="324.875"/><polygon fill="#000000" points="162.1514,314.875,166.1514,324.875,170.1514,314.875,166.1514,318.875" style="stroke:#000000;stroke-width:1;"/><!--SRC=[JOv12i8m44NtESMuQw_GBgHA5u8e22vSXkINHj9ccAJQupiYYllttl-RCc82SRHXDYONAyKq5pY41-Y49vt5GrhJx6rqIxG5rA-SyYAWmyJMbTQ4WQf-TO3FT0nJADkQD3jJTKEktxaxNFcLUYK-7Eq4retKHOXs43EeEYLLEcP9-k3hNDd_Joix-p3etyGl]--></g></svg>