<svg xmlns="http://www.w3.org/2000/svg" xmlns:xlink="http://www.w3.org/1999/xlink" contentStyleType="text/css" data-diagram-type="ACTIVITY" height="524px" preserveAspectRatio="none" style="width:529px;height:524px;background:#FFFFFF;" version="1.1" viewBox="0 0 529 524" width="529px" zoomAndPan="magnify"><defs/><g><ellipse cx="300.3975" cy="15" fill="#FFFFFF" rx="10" ry="10" style="stroke:#000000;stroke-width:1;"/><rect fill="#FFFFFF" height="33.9688" rx="12.5" ry="12.5" style="stroke:#000000;stroke-width:1;" width="120.9395" x="239.9277" y="45"/><text fill="#000000" font-family="Verdana" font-size="12" lengthAdjust="spacing" textLength="100.9395" x="249.9277" y="66.1387">Trade Confirmed</text><rect fill="#FFFFFF" height="33.9688" rx="12.5" ry="12.5" style="stroke:#000000;stroke-width:1;" width="122.7617" x="239.0166" y="98.9688"/><text fill="#000000" font-family="Verdana" font-size="12" lengthAdjust="spacing" textLength="102.7617" x="249.0166" y="120.1074">Generate Invoice</text><rect fill="#FFFFFF" height="33.9688" rx="12.5" ry="12.5" style="stroke:#000000;stroke-width:1;" width="196.2793" x="202.2578" y="152.9375"/><text fill="#000000" font-family="Verdana" font-size="12" lengthAdjust="spacing" textLength="176.2793" x="212.2578" y="174.0762">Send Invoice to Counterparty</text><polygon fill="#FFFFFF" points="246.1333,206.9063,354.6616,206.9063,366.6616,218.9063,354.6616,230.9063,246.1333,230.9063,234.1333,218.9063,246.1333,206.9063" style="stroke:#000000;stroke-width:1;"/><text fill="#000000" font-family="Verdana" font-size="11" lengthAdjust="spacing" textLength="108.5283" x="246.1333" y="222.7144">Payment Received?</text><text fill="#000000" font-family="Verdana" font-size="11" lengthAdjust="spacing" textLength="19.2178" x="214.9155" y="216.312">Yes</text><text fill="#000000" font-family="Verdana" font-size="11" lengthAdjust="spacing" textLength="14.9585" x="366.6616" y="216.312">No</text><rect fill="#FFFFFF" height="33.9688" rx="12.5" ry="12.5" style="stroke:#000000;stroke-width:1;" width="134.8027" x="94.6895" y="240.9063"/><text fill="#000000" font-family="Verdana" font-size="12" lengthAdjust="spacing" textLength="114.8027" x="104.6895" y="262.0449">Reconcile Payment</text><polygon fill="#FFFFFF" points="112.7788,294.875,211.4028,294.875,223.4028,306.875,211.4028,318.875,112.7788,318.875,100.7788,306.875,112.7788,294.875" style="stroke:#000000;stroke-width:1;"/><text fill="#000000" font-family="Verdana" font-size="11" lengthAdjust="spacing" textLength="98.624" x="112.7788" y="310.6831">Amount Matches?</text><text fill="#000000" font-family="Verdana" font-size="11" lengthAdjust="spacing" textLength="19.2178" x="81.561" y="304.2808">Yes</text><text fill="#000000" font-family="Verdana" font-size="11" lengthAdjust="spacing" textLength="14.9585" x="223.4028" y="304.2808">No</text><rect fill="#FFFFFF" height="33.9688" rx="12.5" ry="12.5" style="stroke:#000000;stroke-width:1;" width="143.082" x="6" y="328.875"/><text fill="#000000" font-family="Verdana" font-size="12" lengthAdjust="spacing" textLength="123.082" x="16" y="350.0137">Mark Invoice as Paid</text><rect fill="#FFFFFF" height="33.9688" rx="12.5" ry="12.5" style="stroke:#000000;stroke-width:1;" width="155.1172" x="169.082" y="328.875"/><text fill="#000000" font-family="Verdana" font-size="12" lengthAdjust="spacing" textLength="135.1172" x="179.082" y="350.0137">Record Short Payment</text><rect fill="#FFFFFF" height="33.9688" rx="12.5" ry="12.5" style="stroke:#000000;stroke-width:1;" width="135.1836" x="179.0488" y="382.8438"/><text fill="#000000" font-family="Verdana" font-size="12" lengthAdjust="spacing" textLength="115.1836" x="189.0488" y="403.9824">Open Dispute Case</text><polygon fill="#FFFFFF" points="162.0908,422.8125,174.0908,434.8125,162.0908,446.8125,150.0908,434.8125,162.0908,422.8125" style="stroke:#000000;stroke-width:1;"/><rect fill="#FFFFFF" height="33.9688" rx="12.5" ry="12.5" style="stroke:#000000;stroke-width:1;" width="169.0098" x="354.1992" y="240.9063"/><text fill="#000000" font-family="Verdana" font-size="12" lengthAdjust="spacing" textLength="149.0098" x="364.1992" y="262.0449">Mark Invoice as Overdue</text><polygon fill="#FFFFFF" points="300.3975,452.8125,312.3975,464.8125,300.3975,476.8125,288.3975,464.8125,300.3975,452.8125" style="stroke:#000000;stroke-width:1;"/><ellipse cx="300.3975" cy="507.8125" fill="none" rx="11" ry="11" style="stroke:#000000;stroke-width:1;"/><ellipse cx="300.3975" cy="507.8125" fill="#FFFFFF" rx="6" ry="6" style="stroke:#000000;stroke-width:1;"/><line style="stroke:#000000;stroke-width:1;" x1="300.3975" x2="300.3975" y1="25" y2="45"/><polygon fill="#000000" points="296.3975,35,300.3975,45,304.3975,35,300.3975,39" style="stroke:#000000;stroke-width:1;"/><line style="stroke:#000000;stroke-width:1;" x1="300.3975" x2="300.3975" y1="78.9688" y2="98.9688"/><polygon fill="#000000" points="296.3975,88.9688,300.3975,98.9688,304.3975,88.9688,300.3975,92.9688" style="stroke:#000000;stroke-width:1;"/><line style="stroke:#000000;stroke-width:1;" x1="300.3975" x2="300.3975" y1="132.9375" y2="152.9375"/><polygon fill="#000000" points="296.3975,142.9375,300.3975,152.9375,304.3975,142.9375,300.3975,146.9375" style="stroke:#000000;stroke-width:1;"/><line style="stroke:#000000;stroke-width:1;" x1="246.6406" x2="246.6406" y1="362.8438" y2="382.8438"/><polygon fill="#000000" points="242.6406,372.8438,246.6406,382.8438,250.6406,372.8438,246.6406,376.8438" style="stroke:#000000;stroke-width:1;"/><line style="stroke:#000000;stroke-width:1;" x1="100.7788" x2="77.541" y1="306.875" y2="306.875"/><line style="stroke:#000000;stroke-width:1;" x1="77.541" x2="77.541" y1="306.875" y2="328.875"/><polygon fill="#000000" points="73.541,318.875,77.541,328.875,81.541,318.875,77.541,322.875" style="stroke:#000000;stroke-width:1;"/><line style="stroke:#000000;stroke-width:1;" x1="223.4028" x2="246.6406" y1="306.875" y2="306.875"/><line style="stroke:#000000;stroke-width:1;" x1="246.6406" x2="246.6406" y1="306.875" y2="328.875"/><polygon fill="#000000" points="242.6406,318.875,246.6406,328.875,250.6406,318.875,246.6406,322.875" style="stroke:#000000;stroke-width:1;"/><line style="stroke:#000000;stroke-width:1;" x1="77.541" x2="77.541" y1="362.8438" y2="434.8125"/><line style="stroke:#000000;stroke-width:1;" x1="77.541" x2="150.0908" y1="434.8125" y2="434.8125"/><polygon fill="#000000" points="140.0908,430.8125,150.0908,434.8125,140.0908,438.8125,144.0908,434.8125" style="stroke:#000000;stroke-width:1;"/><line style="stroke:#000000;stroke-width:1;" x1="246.6406" x2="246.6406" y1="416.8125" y2="434.8125"/><line style="stroke:#000000;stroke-width:1;" x1="246.6406" x2="174.0908" y1="434.8125" y2="434.8125"/><polygon fill="#000000" points="184.0908,430.8125,174.0908,434.8125,184.0908,438.8125,180.0908,434.8125" style="stroke:#000000;stroke-width:1;"/><line style="stroke:#000000;stroke-width:1;" x1="162.0908" x2="162.0908" y1="274.875" y2="294.875"/><polygon fill="#000000" points="158.0908,284.875,162.0908,294.875,166.0908,284.875,162.0908,288.875" style="stroke:#000000;stroke-width:1;"/><line style="stroke:#000000;stroke-width:1;" x1="234.1333" x2="162.0908" y1="218.9063" y2="218.9063"/><line style="stroke:#000000;stroke-width:1;" x1="162.0908" x2="162.0908" y1="218.9063" y2="240.9063"/><polygon fill="#000000" points="158.0908,230.9063,162.0908,240.9063,166.0908,230.9063,162.0908,234.9063" style="stroke:#000000;stroke-width:1;"/><line style="stroke:#000000;stroke-width:1;" x1="366.6616" x2="438.7041" y1="218.9063" y2="218.9063"/><line style="stroke:#000000;stroke-width:1;" x1="438.7041" x2="438.7041" y1="218.9063" y2="240.9063"/><polygon fill="#000000" points="434.7041,230.9063,438.7041,240.9063,442.7041,230.9063,438.7041,234.9063" style="stroke:#000000;stroke-width:1;"/><line style="stroke:#000000;stroke-width:1;" x1="162.0908" x2="162.0908" y1="446.8125" y2="464.8125"/><line style="stroke:#000000;stroke-width:1;" x1="162.0908" x2="288.3975" y1="464.8125" y2="464.8125"/><polygon fill="#000000" points="278.3975,460.8125,288.3975,464.8125,278.3975,468.8125,282.3975,464.8125" style="stroke:#000000;stroke-width:1;"/><line style="stroke:#000000;stroke-width:1;" x1="438.7041" x2="438.7041" y1="274.875" y2="464.8125"/><line style="stroke:#000000;stroke-width:1;" x1="438.7041" x2="312.3975" y1="464.8125" y2="464.8125"/><polygon fill="#000000" points="322.3975,460.8125,312.3975,464.8125,322.3975,468.8125,318.3975,464.8125" style="stroke:#000000;stroke-width:1;"/><line style="stroke:#000000;stroke-width:1;" x1="300.3975" x2="300.3975" y1="186.9063" y2="206.9063"/><polygon fill="#000000" points="296.3975,196.9063,300.3975,206.9063,304.3975,196.9063,300.3975,200.9063" style="stroke:#000000;stroke-width:1;"/><line style="stroke:#000000;stroke-width:1;" x1="300.3975" x2="300.3975" y1="476.8125" y2="496.8125"/><polygon fill="#000000" points="296.3975,486.8125,300.3975,496.8125,304.3975,486.8125,300.3975,490.8125" style="stroke:#000000;stroke-width:1;"/><!--SRC=[NO_DQiD038Jl-nJgpNa5vr1A2gM7DAN99KVX7MDHMxlioeQyVHJoqvAZXfblD2ysO0BbaKL3gCR5Gdie746RfBsK2N4TsWye2XleKvSa7LpQG-Fz94jkdzLGiXDEwo0zDTzycg16F-WW2-BhYhnDgJcYhaBhSj9EHj3DU4szJHSGRTcw0VKfi-No-oZbwadnzp1MKFELRj0IQJ-aOd_STfUTyIurpxvXmzK7-FlI_uy-itSBIfmVpcefdm40]--></g></svg>