<svg xmlns="http://www.w3.org/2000/svg" xmlns:xlink="http://www.w3.org/1999/xlink" contentStyleType="text/css" data-diagram-type="DESCRIPTION" height="425px" preserveAspectRatio="none" style="width:767px;height:425px;background:#FFFFFF;" version="1.1" viewBox="0 0 767 425" width="767px" zoomAndPan="magnify"><defs/><g><!--cluster Compliance Context--><g class="cluster" data-entity="Compliance Context" data-source-line="6" data-uid="ent0004" id="cluster_Compliance Context"><path d="M13.5,214.57 L172.4512,214.57 A3.75,3.75 0 0 1 174.9512,217.07 L181.9512,236.8669 L440.5,236.8669 A2.5,2.5 0 0 1 443,239.3669 L443,415.66 A2.5,2.5 0 0 1 440.5,418.16 L13.5,418.16 A2.5,2.5 0 0 1 11,415.66 L11,217.07 A2.5,2.5 0 0 1 13.5,214.57" fill="#FFFFFF" style="stroke:#000000;stroke-width:1;"/><line style="stroke:#000000;stroke-width:1;" x1="11" x2="181.9512" y1="236.8669" y2="236.8669"/><text fill="#000000" font-family="Verdana" font-size="14" font-weight="bold" lengthAdjust="spacing" textLength="157.9512" x="15" y="229.5651">Compliance Context</text></g><!--entity KYC--><g class="entity" data-entity="KYC" data-source-line="7" data-uid="ent0005" id="entity_KYC"><rect fill="#FFFFFF" height="46.2969" rx="2.5" ry="2.5" style="stroke:#000000;stroke-width:1;" width="163.5664" x="31.22" y="249.57"/><rect fill="#FFFFFF" height="10" style="stroke:#000000;stroke-width:1;" width="15" x="174.7864" y="254.57"/><rect fill="#FFFFFF" height="2" style="stroke:#000000;stroke-width:1;" width="4" x="172.7864" y="256.57"/><rect fill="#FFFFFF" height="2" style="stroke:#000000;stroke-width:1;" width="4" x="172.7864" y="260.57"/><text fill="#000000" font-family="Verdana" font-size="14" lengthAdjust="spacing" textLength="123.5664" x="46.22" y="282.5651">KYC/AML Checker</text></g><!--entity SS--><g class="entity" data-entity="SS" data-source-line="8" data-uid="ent0006" id="entity_SS"><rect fill="#FFFFFF" height="46.2969" rx="2.5" ry="2.5" style="stroke:#000000;stroke-width:1;" width="182.6865" x="26.66" y="355.86"/><rect fill="#FFFFFF" height="10" style="stroke:#000000;stroke-width:1;" width="15" x="189.3465" y="360.86"/><rect fill="#FFFFFF" height="2" style="stroke:#000000;stroke-width:1;" width="4" x="187.3465" y="362.86"/><rect fill="#FFFFFF" height="2" style="stroke:#000000;stroke-width:1;" width="4" x="187.3465" y="366.86"/><text fill="#000000" font-family="Verdana" font-size="14" lengthAdjust="spacing" textLength="142.6865" x="41.66" y="388.8551">Sanctions Screening</text></g><!--entity TS--><g class="entity" data-entity="TS" data-source-line="9" data-uid="ent0007" id="entity_TS"><rect fill="#FFFFFF" height="46.2969" rx="2.5" ry="2.5" style="stroke:#000000;stroke-width:1;" width="170.6826" x="239.66" y="249.57"/><rect fill="#FFFFFF" height="10" style="stroke:#000000;stroke-width:1;" width="15" x="390.3426" y="254.57"/><rect fill="#FFFFFF" height="2" style="stroke:#000000;stroke-width:1;" width="4" x="388.3426" y="256.57"/><rect fill="#FFFFFF" height="2" style="stroke:#000000;stroke-width:1;" width="4" x="388.3426" y="260.57"/><text fill="#000000" font-family="Verdana" font-size="14" lengthAdjust="spacing" textLength="130.6826" x="254.66" y="282.5651">Trade Surveillance</text></g><!--entity RR--><g class="entity" data-entity="RR" data-source-line="10" data-uid="ent0008" id="entity_RR"><rect fill="#FFFFFF" height="46.2969" rx="2.5" ry="2.5" style="stroke:#000000;stroke-width:1;" width="182.5225" x="244.74" y="355.86"/><rect fill="#FFFFFF" height="10" style="stroke:#000000;stroke-width:1;" width="15" x="407.2625" y="360.86"/><rect fill="#FFFFFF" height="2" style="stroke:#000000;stroke-width:1;" width="4" x="405.2625" y="362.86"/><rect fill="#FFFFFF" height="2" style="stroke:#000000;stroke-width:1;" width="4" x="405.2625" y="366.86"/><text fill="#000000" font-family="Verdana" font-size="14" lengthAdjust="spacing" textLength="142.5225" x="259.74" y="388.8551">Regulatory Reporter</text></g><!--entity ComplianceOfficer--><g class="entity" data-entity="ComplianceOfficer" data-source-line="3" data-uid="ent0002" id="entity_ComplianceOfficer"><ellipse cx="421.0001" cy="19" fill="#FFFFFF" rx="8" ry="8" style="stroke:#000000;stroke-width:1;"/><path d="M421.0001,27 L421.0001,54 M408.0001,35 L434.0001,35 M421.0001,54 L408.0001,69 M421.0001,54 L434.0001,69" fill="none" style="stroke:#000000;stroke-width:1;"/><text fill="#000000" font-family="Verdana" font-size="14" lengthAdjust="spacing" textLength="129.2402" x="356.38" y="83.9951">ComplianceOfficer</text></g><!--entity Trader--><g class="entity" data-entity="Trader" data-source-line="4" data-uid="ent0003" id="entity_Trader"><ellipse cx="103.0013" cy="19" fill="#FFFFFF" rx="8" ry="8" style="stroke:#000000;stroke-width:1;"/><path d="M103.0013,27 L103.0013,54 M90.0013,35 L116.0013,35 M103.0013,54 L90.0013,69 M103.0013,54 L116.0013,69" fill="none" style="stroke:#000000;stroke-width:1;"/><text fill="#000000" font-family="Verdana" font-size="14" lengthAdjust="spacing" textLength="46.1426" x="79.93" y="83.9951">Trader</text></g><!--entity Run KYC/AML Checks--><g class="entity" data-entity="Run KYC.AML Checks" data-source-line="13" data-uid="ent0009" id="entity_Run KYC.AML Checks"><ellipse cx="102.9963" cy="168.4313" fill="#FFFFFF" rx="87.6563" ry="19.9313" style="stroke:#000000;stroke-width:1;"/><text fill="#000000" font-family="Verdana" font-size="14" lengthAdjust="spacing" textLength="148.415" x="28.7887" y="173.0797">Run KYC/AML Checks</text></g><!--entity Detect Market Abuse--><g class="entity" data-entity="Detect Market Abuse" data-source-line="14" data-uid="ent0011" id="entity_Detect Market Abuse"><ellipse cx="313.0041" cy="168.4268" fill="#FFFFFF" rx="87.2341" ry="19.8468" style="stroke:#000000;stroke-width:1;"/><text fill="#000000" font-family="Verdana" font-size="14" lengthAdjust="spacing" textLength="147.4512" x="239.2785" y="173.0753">Detect Market Abuse</text></g><!--entity File Regulatory Reports--><g class="entity" data-entity="File Regulatory Reports" data-source-line="15" data-uid="ent0013" id="entity_File Regulatory Reports"><ellipse cx="666.9973" cy="272.7135" fill="#FFFFFF" rx="94.7173" ry="21.3435" style="stroke:#000000;stroke-width:1;"/><text fill="#000000" font-family="Verdana" font-size="14" lengthAdjust="spacing" textLength="164.3428" x="584.8259" y="277.3619">File Regulatory Reports</text></g><!--entity Monitor Sanctions Lists--><g class="entity" data-entity="Monitor Sanctions Lists" data-source-line="16" data-uid="ent0015" id="entity_Monitor Sanctions Lists"><ellipse cx="529.0037" cy="168.4267" fill="#FFFFFF" rx="93.6837" ry="21.1367" style="stroke:#000000;stroke-width:1;"/><text fill="#000000" font-family="Verdana" font-size="14" lengthAdjust="spacing" textLength="162.0322" x="447.9876" y="173.0752">Monitor Sanctions Lists</text></g><!--link ComplianceOfficer to Run KYC/AML Checks--><g class="link" data-entity-1="ComplianceOfficer" data-entity-2="Run KYC.AML Checks" data-source-line="13" data-uid="lnk10" id="link_ComplianceOfficer_Run KYC.AML Checks"><path d="M355.88,73.76 C293.74,96.78 207.4064,128.7559 153.1964,148.8359" fill="none" id="ComplianceOfficer-to-Run KYC/AML Checks" style="stroke:#000000;stroke-width:1;"/><polygon fill="#000000" points="147.57,150.92,157.399,151.5448,152.2587,149.1833,154.6202,144.0429,147.57,150.92" style="stroke:#000000;stroke-width:1;"/></g><!--link ComplianceOfficer to Detect Market Abuse--><g class="link" data-entity-1="ComplianceOfficer" data-entity-2="Detect Market Abuse" data-source-line="14" data-uid="lnk12" id="link_ComplianceOfficer_Detect Market Abuse"><path d="M386.23,87.56 C367.49,108 349.2337,127.9065 334.2137,144.2965" fill="none" id="ComplianceOfficer-to-Detect Market Abuse" style="stroke:#000000;stroke-width:1;"/><polygon fill="#000000" points="330.16,148.72,339.1896,144.7873,333.5381,145.0338,333.2916,139.3823,330.16,148.72" style="stroke:#000000;stroke-width:1;"/></g><!--link ComplianceOfficer to File Regulatory Reports--><g class="link" data-entity-1="ComplianceOfficer" data-entity-2="File Regulatory Reports" data-source-line="15" data-uid="lnk14" id="link_ComplianceOfficer_File Regulatory Reports"><path d="M486.07,62.05 C535.6,74.92 601.6,100.05 640,147.29 C664.4,177.31 668.0891,218.4301 667.9591,245.2401" fill="none" id="ComplianceOfficer-to-File Regulatory Reports" style="stroke:#000000;stroke-width:1;"/><polygon fill="#000000" points="667.93,251.24,671.9736,242.2595,667.9542,246.2401,663.9737,242.2207,667.93,251.24" style="stroke:#000000;stroke-width:1;"/></g><!--link ComplianceOfficer to Monitor Sanctions Lists--><g class="link" data-entity-1="ComplianceOfficer" data-entity-2="Monitor Sanctions Lists" data-source-line="16" data-uid="lnk16" id="link_ComplianceOfficer_Monitor Sanctions Lists"><path d="M455.77,87.56 C474.02,107.47 491.5852,126.6275 506.5852,142.9875" fill="none" id="ComplianceOfficer-to-Monitor Sanctions Lists" style="stroke:#000000;stroke-width:1;"/><polygon fill="#000000" points="510.64,147.41,507.5061,138.0731,507.261,143.7246,501.6094,143.4795,510.64,147.41" style="stroke:#000000;stroke-width:1;"/></g><!--link Trader to Run KYC/AML Checks--><g class="link" data-entity-1="Trader" data-entity-2="Run KYC.AML Checks" data-source-line="17" data-uid="lnk17" id="link_Trader_Run KYC.AML Checks"><path d="M103,87.56 C103,107.74 103,125.69 103,142.07" fill="none" id="Trader-to-Run KYC/AML Checks" style="stroke:#000000;stroke-width:1;"/><polygon fill="#000000" points="103,148.07,107,139.07,103,143.07,99,139.07,103,148.07" style="stroke:#000000;stroke-width:1;"/></g><!--link Run KYC/AML Checks to KYC--><g class="link" data-entity-1="Run KYC.AML Checks" data-entity-2="KYC" data-source-line="19" data-uid="lnk18" id="link_Run KYC.AML Checks_KYC"><path d="M104.88,188.67 C106.57,205.91 108.4573,225.2484 110.2273,243.3884" fill="none" id="Run KYC/AML Checks-to-KYC" style="stroke:#000000;stroke-width:1;"/><polygon fill="#000000" points="110.81,249.36,113.9171,240.0141,110.3244,244.3836,105.9549,240.791,110.81,249.36" style="stroke:#000000;stroke-width:1;"/></g><!--link KYC to SS--><g class="link" data-entity-1="KYC" data-entity-2="SS" data-source-line="20" data-uid="lnk19" id="link_KYC_SS"><path d="M114.08,296.35 C114.92,313.84 115.792,331.9469 116.632,349.4269" fill="none" id="KYC-to-SS" style="stroke:#000000;stroke-width:1;"/><polygon fill="#000000" points="116.92,355.42,120.4834,346.2384,116.68,350.4258,112.4926,346.6224,116.92,355.42" style="stroke:#000000;stroke-width:1;"/></g><!--link Detect Market Abuse to TS--><g class="link" data-entity-1="Detect Market Abuse" data-entity-2="TS" data-source-line="21" data-uid="lnk20" id="link_Detect Market Abuse_TS"><path d="M315.26,188.67 C317.28,205.91 319.5503,225.2609 321.6803,243.4009" fill="none" id="Detect Market Abuse-to-TS" style="stroke:#000000;stroke-width:1;"/><polygon fill="#000000" points="322.38,249.36,325.3031,239.9549,321.7969,244.3941,317.3577,240.8879,322.38,249.36" style="stroke:#000000;stroke-width:1;"/></g><!--link File Regulatory Reports to RR--><g class="link" data-entity-1="File Regulatory Reports" data-entity-2="RR" data-source-line="22" data-uid="lnk21" id="link_File Regulatory Reports_RR"><path d="M613.08,290.7 C557.21,308.31 475.3027,334.1169 413.5727,353.5669" fill="none" id="File Regulatory Reports-to-RR" style="stroke:#000000;stroke-width:1;"/><polygon fill="#000000" points="407.85,355.37,417.6361,356.4804,412.6189,353.8674,415.2319,348.8502,407.85,355.37" style="stroke:#000000;stroke-width:1;"/></g><!--link Monitor Sanctions Lists to SS--><g class="link" data-entity-1="Monitor Sanctions Lists" data-entity-2="SS" data-source-line="23" data-uid="lnk22" id="link_Monitor Sanctions Lists_SS"><path d="M518.25,189.88 C502.35,218.09 469.89,268.55 428,295.86 C409.46,307.95 300.208,335.3251 215.648,355.3851" fill="none" id="Monitor Sanctions Lists-to-SS" style="stroke:#000000;stroke-width:1;"/><polygon fill="#000000" points="209.81,356.77,219.4903,358.5846,214.675,355.6159,217.6437,350.8006,209.81,356.77" style="stroke:#000000;stroke-width:1;"/></g><!--link TS to RR--><g class="link" data-entity-1="TS" data-entity-2="RR" data-source-line="24" data-uid="lnk23" id="link_TS_RR"><path d="M327.39,296.35 C329.23,313.84 331.1385,331.9733 332.9885,349.4533" fill="none" id="TS-to-RR" style="stroke:#000000;stroke-width:1;"/><polygon fill="#000000" points="333.62,355.42,336.6506,346.049,333.0938,350.4478,328.695,346.891,333.62,355.42" style="stroke:#000000;stroke-width:1;"/></g><!--SRC=[TP11QiCm44NtSuffLkaYz0Q5uD9DOmgIDy5aeQeJHrYHZ2INb9AxPwowX99eOP1ddZvF_o4Tw4WuM6KSWDB91wpySR16EKtl-xtH5EPv4zGd_y2WTAywmiKLv3ikqIajy0VQjstrjAutM1r8znHsg2Bo35h9Q3BUHPGw43dZkhoK4jeSZd8CNsIidJBpgk6Le6wqYWs-KT3WGvepXO0pm8qjhbRFk1IZmtyYyR64lb0YdR1MeQU4wuynKf5zDPRmHgYSNNjdfkwkJz-OEF6_PPPTuTuqurEL_EKpDtTNFo-vkw9l1hZ0ek1VV2Ddz080]--></g></svg>