<svg xmlns="http://www.w3.org/2000/svg" xmlns:xlink="http://www.w3.org/1999/xlink" contentStyleType="text/css" data-diagram-type="DESCRIPTION" height="566px" preserveAspectRatio="none" style="width:806px;height:566px;background:#FFFFFF;" version="1.1" viewBox="0 0 806 566" width="806px" zoomAndPan="magnify"><defs/><g><!--cluster Finance Context--><g class="cluster" data-entity="Finance Context" data-source-line="7" data-uid="ent0005" id="cluster_Finance Context"><path d="M314.81,127.79 L443.9907,127.79 A3.75,3.75 0 0 1 446.4907,130.29 L453.4907,150.0869 L541.81,150.0869 A2.5,2.5 0 0 1 544.31,152.5869 L544.31,556.98 A2.5,2.5 0 0 1 541.81,559.48 L314.81,559.48 A2.5,2.5 0 0 1 312.31,556.98 L312.31,130.29 A2.5,2.5 0 0 1 314.81,127.79" fill="#FFFFFF" style="stroke:#000000;stroke-width:1;"/><line style="stroke:#000000;stroke-width:1;" x1="312.31" x2="453.4907" y1="150.0869" y2="150.0869"/><text fill="#000000" font-family="Verdana" font-size="14" font-weight="bold" lengthAdjust="spacing" textLength="128.1807" x="316.31" y="142.7851">Finance Context</text></g><!--entity CONF--><g class="entity" data-entity="CONF" data-source-line="8" data-uid="ent0006" id="entity_CONF"><rect fill="#FFFFFF" height="46.2969" rx="2.5" ry="2.5" style="stroke:#000000;stroke-width:1;" width="175.6592" x="335.48" y="162.79"/><rect fill="#FFFFFF" height="10" style="stroke:#000000;stroke-width:1;" width="15" x="491.1392" y="167.79"/><rect fill="#FFFFFF" height="2" style="stroke:#000000;stroke-width:1;" width="4" x="489.1392" y="169.79"/><rect fill="#FFFFFF" height="2" style="stroke:#000000;stroke-width:1;" width="4" x="489.1392" y="173.79"/><text fill="#000000" font-family="Verdana" font-size="14" lengthAdjust="spacing" textLength="135.6592" x="350.48" y="195.7851">Trade Confirmation</text></g><!--entity INV--><g class="entity" data-entity="INV" data-source-line="9" data-uid="ent0007" id="entity_INV"><rect fill="#FFFFFF" height="46.2969" rx="2.5" ry="2.5" style="stroke:#000000;stroke-width:1;" width="165.5967" x="340.51" y="284.59"/><rect fill="#FFFFFF" height="10" style="stroke:#000000;stroke-width:1;" width="15" x="486.1067" y="289.59"/><rect fill="#FFFFFF" height="2" style="stroke:#000000;stroke-width:1;" width="4" x="484.1067" y="291.59"/><rect fill="#FFFFFF" height="2" style="stroke:#000000;stroke-width:1;" width="4" x="484.1067" y="295.59"/><text fill="#000000" font-family="Verdana" font-size="14" lengthAdjust="spacing" textLength="125.5967" x="355.51" y="317.5851">Invoice Generator</text></g><!--entity CASH--><g class="entity" data-entity="CASH" data-source-line="10" data-uid="ent0008" id="entity_CASH"><rect fill="#FFFFFF" height="46.2969" rx="2.5" ry="2.5" style="stroke:#000000;stroke-width:1;" width="177.2109" x="336.7" y="390.89"/><rect fill="#FFFFFF" height="10" style="stroke:#000000;stroke-width:1;" width="15" x="493.9109" y="395.89"/><rect fill="#FFFFFF" height="2" style="stroke:#000000;stroke-width:1;" width="4" x="491.9109" y="397.89"/><rect fill="#FFFFFF" height="2" style="stroke:#000000;stroke-width:1;" width="4" x="491.9109" y="401.89"/><text fill="#000000" font-family="Verdana" font-size="14" lengthAdjust="spacing" textLength="137.2109" x="351.7" y="423.8851">Cash Reconciliation</text></g><!--entity ACC--><g class="entity" data-entity="ACC" data-source-line="11" data-uid="ent0009" id="entity_ACC"><rect fill="#FFFFFF" height="46.2969" rx="2.5" ry="2.5" style="stroke:#000000;stroke-width:1;" width="200.0156" x="328.3" y="497.18"/><rect fill="#FFFFFF" height="10" style="stroke:#000000;stroke-width:1;" width="15" x="508.3156" y="502.18"/><rect fill="#FFFFFF" height="2" style="stroke:#000000;stroke-width:1;" width="4" x="506.3156" y="504.18"/><rect fill="#FFFFFF" height="2" style="stroke:#000000;stroke-width:1;" width="4" x="506.3156" y="508.18"/><text fill="#000000" font-family="Verdana" font-size="14" lengthAdjust="spacing" textLength="160.0156" x="343.3" y="530.1751">Accounting Integration</text></g><!--entity BackOffice--><g class="entity" data-entity="BackOffice" data-source-line="3" data-uid="ent0002" id="entity_BackOffice"><ellipse cx="221.3027" cy="19" fill="#FFFFFF" rx="8" ry="8" style="stroke:#000000;stroke-width:1;"/><path d="M221.3027,27 L221.3027,54 M208.3027,35 L234.3027,35 M221.3027,54 L208.3027,69 M221.3027,54 L234.3027,69" fill="none" style="stroke:#000000;stroke-width:1;"/><text fill="#000000" font-family="Verdana" font-size="14" lengthAdjust="spacing" textLength="75.0654" x="183.77" y="83.9951">BackOffice</text></g><!--entity Counterparty--><g class="entity" data-entity="Counterparty" data-source-line="4" data-uid="ent0003" id="entity_Counterparty"><ellipse cx="634.3107" cy="156.29" fill="#FFFFFF" rx="8" ry="8" style="stroke:#000000;stroke-width:1;"/><path d="M634.3107,164.29 L634.3107,191.29 M621.3107,172.29 L647.3107,172.29 M634.3107,191.29 L621.3107,206.29 M634.3107,191.29 L647.3107,206.29" fill="none" style="stroke:#000000;stroke-width:1;"/><text fill="#000000" font-family="Verdana" font-size="14" lengthAdjust="spacing" textLength="92.9414" x="587.84" y="221.2851">Counterparty</text></g><!--entity Bank--><g class="entity" data-entity="Bank" data-source-line="5" data-uid="ent0004" id="entity_Bank"><ellipse cx="93.302" cy="156.29" fill="#FFFFFF" rx="8" ry="8" style="stroke:#000000;stroke-width:1;"/><path d="M93.302,164.29 L93.302,191.29 M80.302,172.29 L106.302,172.29 M93.302,191.29 L80.302,206.29 M93.302,191.29 L106.302,206.29" fill="none" style="stroke:#000000;stroke-width:1;"/><text fill="#000000" font-family="Verdana" font-size="14" lengthAdjust="spacing" textLength="35.1641" x="75.72" y="221.2851">Bank</text></g><!--entity Generate Invoice--><g class="entity" data-entity="Generate Invoice" data-source-line="14" data-uid="ent0010" id="entity_Generate Invoice"><ellipse cx="221.3093" cy="185.9359" fill="#FFFFFF" rx="75.4793" ry="17.4959" style="stroke:#000000;stroke-width:1;"/><text fill="#000000" font-family="Verdana" font-size="14" lengthAdjust="spacing" textLength="119.8887" x="161.365" y="190.5843">Generate Invoice</text></g><!--entity Reconcile Accounts--><g class="entity" data-entity="Reconcile Accounts" data-source-line="15" data-uid="ent0012" id="entity_Reconcile Accounts"><ellipse cx="93.3068" cy="307.7414" fill="#FFFFFF" rx="82.3068" ry="18.8614" style="stroke:#000000;stroke-width:1;"/><text fill="#000000" font-family="Verdana" font-size="14" lengthAdjust="spacing" textLength="136.083" x="25.2653" y="312.3898">Reconcile Accounts</text></g><!--entity Post to General Ledger--><g class="entity" data-entity="Post to General Ledger" data-source-line="16" data-uid="ent0014" id="entity_Post to General Ledger"><ellipse cx="707.3094" cy="414.0279" fill="#FFFFFF" rx="93.1894" ry="21.0379" style="stroke:#000000;stroke-width:1;"/><text fill="#000000" font-family="Verdana" font-size="14" lengthAdjust="spacing" textLength="160.9248" x="626.847" y="418.6763">Post to General Ledger</text></g><!--entity Record Payment--><g class="entity" data-entity="Record Payment" data-source-line="17" data-uid="ent0016" id="entity_Record Payment"><ellipse cx="634.3127" cy="307.7445" fill="#FFFFFF" rx="73.7227" ry="17.1445" style="stroke:#000000;stroke-width:1;"/><text fill="#000000" font-family="Verdana" font-size="14" lengthAdjust="spacing" textLength="115.6162" x="576.5046" y="312.393">Record Payment</text></g><!--link BackOffice to Generate Invoice--><g class="link" data-entity-1="BackOffice" data-entity-2="Generate Invoice" data-source-line="14" data-uid="lnk11" id="link_BackOffice_Generate Invoice"><path d="M221.31,87.69 C221.31,114.11 221.31,142.03 221.31,162.03" fill="none" id="BackOffice-to-Generate Invoice" style="stroke:#000000;stroke-width:1;"/><polygon fill="#000000" points="221.31,168.03,225.31,159.03,221.31,163.03,217.31,159.03,221.31,168.03" style="stroke:#000000;stroke-width:1;"/></g><!--link BackOffice to Reconcile Accounts--><g class="link" data-entity-1="BackOffice" data-entity-2="Reconcile Accounts" data-source-line="15" data-uid="lnk13" id="link_BackOffice_Reconcile Accounts"><path d="M183.33,54.08 C144.45,60.88 85.92,77.85 58.31,119.79 C23.08,173.3 58.3397,247.8798 78.9297,283.3798" fill="none" id="BackOffice-to-Reconcile Accounts" style="stroke:#000000;stroke-width:1;"/><polygon fill="#000000" points="81.94,288.57,80.8847,278.7778,79.4314,284.2448,73.9644,282.7916,81.94,288.57" style="stroke:#000000;stroke-width:1;"/></g><!--link BackOffice to Post to General Ledger--><g class="link" data-entity-1="BackOffice" data-entity-2="Post to General Ledger" data-source-line="16" data-uid="lnk15" id="link_BackOffice_Post to General Ledger"><path d="M259.15,49.68 C360.8,50.61 636.32,58.82 698.31,119.79 C773.29,193.55 735.1025,333.4431 716.7825,386.9831" fill="none" id="BackOffice-to-Post to General Ledger" style="stroke:#000000;stroke-width:1;"/><polygon fill="#000000" points="714.84,392.66,721.5383,385.4397,716.4587,387.9293,713.9691,382.8497,714.84,392.66" style="stroke:#000000;stroke-width:1;"/></g><!--link Counterparty to Record Payment--><g class="link" data-entity-1="Counterparty" data-entity-2="Record Payment" data-source-line="17" data-uid="lnk17" id="link_Counterparty_Record Payment"><path d="M634.31,224.85 C634.31,246.92 634.31,267.62 634.31,284.39" fill="none" id="Counterparty-to-Record Payment" style="stroke:#000000;stroke-width:1;"/><polygon fill="#000000" points="634.31,290.39,638.31,281.39,634.31,285.39,630.31,281.39,634.31,290.39" style="stroke:#000000;stroke-width:1;"/></g><!--link Bank to Reconcile Accounts--><g class="link" data-entity-1="Bank" data-entity-2="Reconcile Accounts" data-source-line="18" data-uid="lnk18" id="link_Bank_Reconcile Accounts"><path d="M93.31,224.85 C93.31,246.1 93.31,265.63 93.31,282.48" fill="none" id="Bank-to-Reconcile Accounts" style="stroke:#000000;stroke-width:1;"/><polygon fill="#000000" points="93.31,288.48,97.31,279.48,93.31,283.48,89.31,279.48,93.31,288.48" style="stroke:#000000;stroke-width:1;"/></g><!--link Generate Invoice to INV--><g class="link" data-entity-1="Generate Invoice" data-entity-2="INV" data-source-line="20" data-uid="lnk19" id="link_Generate Invoice_INV"><path d="M247.71,202.6 C282.79,223.4 339.8297,257.2288 379.9997,281.0588" fill="none" id="Generate Invoice-to-INV" style="stroke:#000000;stroke-width:1;"/><polygon fill="#000000" points="385.16,284.12,379.4604,276.0879,380.8597,281.569,375.3787,282.9683,385.16,284.12" style="stroke:#000000;stroke-width:1;"/></g><!--link Reconcile Accounts to CASH--><g class="link" data-entity-1="Reconcile Accounts" data-entity-2="CASH" data-source-line="21" data-uid="lnk20" id="link_Reconcile Accounts_CASH"><path d="M140.52,323.57 C196.02,341 282.9859,368.3214 347.4959,388.5914" fill="none" id="Reconcile Accounts-to-CASH" style="stroke:#000000;stroke-width:1;"/><polygon fill="#000000" points="353.22,390.39,345.8329,383.8761,348.4499,388.8912,343.4348,391.5082,353.22,390.39" style="stroke:#000000;stroke-width:1;"/></g><!--link Post to General Ledger to ACC--><g class="link" data-entity-1="Post to General Ledger" data-entity-2="ACC" data-source-line="22" data-uid="lnk21" id="link_Post to General Ledger_ACC"><path d="M660.29,432.61 C613.08,450.26 545.7702,475.4191 494.3002,494.6591" fill="none" id="Post to General Ledger-to-ACC" style="stroke:#000000;stroke-width:1;"/><polygon fill="#000000" points="488.68,496.76,498.5108,497.3555,493.3635,495.0093,495.7097,489.8619,488.68,496.76" style="stroke:#000000;stroke-width:1;"/></g><!--link Record Payment to CASH--><g class="link" data-entity-1="Record Payment" data-entity-2="CASH" data-source-line="23" data-uid="lnk22" id="link_Record Payment_CASH"><path d="M604.36,323.68 C569.37,341.14 516.4787,367.541 475.9587,387.761" fill="none" id="Record Payment-to-CASH" style="stroke:#000000;stroke-width:1;"/><polygon fill="#000000" points="470.59,390.44,480.429,390.0006,475.0639,388.2075,476.857,382.8423,470.59,390.44" style="stroke:#000000;stroke-width:1;"/></g><!--link CONF to INV--><g class="link" data-entity-1="CONF" data-entity-2="INV" data-source-line="24" data-uid="lnk23" id="link_CONF_INV"><path d="M423.31,209.47 C423.31,230.89 423.31,256.92 423.31,278.31" fill="none" id="CONF-to-INV" style="stroke:#000000;stroke-width:1;"/><polygon fill="#000000" points="423.31,284.31,427.31,275.31,423.31,279.31,419.31,275.31,423.31,284.31" style="stroke:#000000;stroke-width:1;"/></g><!--link INV to CASH--><g class="link" data-entity-1="INV" data-entity-2="CASH" data-source-line="25" data-uid="lnk24" id="link_INV_CASH"><path d="M423.74,331.37 C424.08,348.86 424.4267,366.9711 424.7567,384.4511" fill="none" id="INV-to-CASH" style="stroke:#000000;stroke-width:1;"/><polygon fill="#000000" points="424.87,390.45,428.6994,381.3761,424.7756,385.4509,420.7008,381.5271,424.87,390.45" style="stroke:#000000;stroke-width:1;"/></g><!--link CASH to ACC--><g class="link" data-entity-1="CASH" data-entity-2="ACC" data-source-line="26" data-uid="lnk25" id="link_CASH_ACC"><path d="M425.96,437.67 C426.46,455.16 426.975,473.2626 427.485,490.7426" fill="none" id="CASH-to-ACC" style="stroke:#000000;stroke-width:1;"/><polygon fill="#000000" points="427.66,496.74,431.3958,487.6272,427.5142,491.7421,423.3992,487.8605,427.66,496.74" style="stroke:#000000;stroke-width:1;"/></g><!--SRC=[TP71JiCm44Jl-nLBJ_JGNq0AbWgHK5i1uX9nM3cRr4goZXo3g13_ZcsbJKJemJvutywCnZV-o1rZtv8H0DBUEhmdtUohocWU7vJz4C-k9-TF5qOQW3wGL3EkjaP8D0SoW5z-XTzGl3egqqjbN4VUM7b76b3jTrieSlcqmG0VMDXHK4opVFS6XQBXYC-ihMZJcjbYzl88HQPrJ6EanZnurMu2CgNW1s2AZvlD7TwE5eoZvtf1dCqOH_LXoHpiuD7RCN2BJrpMxDOmxsPISoKUwDIn-AWapNKVMEPBSApYluKqJ5LSYvI8sCNV9DDg_8EBIpYpIRZE0hy0]--></g></svg>