<svg xmlns="http://www.w3.org/2000/svg" xmlns:xlink="http://www.w3.org/1999/xlink" contentStyleType="text/css" data-diagram-type="SEQUENCE" height="329px" preserveAspectRatio="none" style="width:746px;height:329px;background:#FFFFFF;" version="1.1" viewBox="0 0 746 329" width="746px" zoomAndPan="magnify"><defs/><g><g><title>Trader</title><rect fill="#000000" fill-opacity="0.00000" height="165.6641" width="8" x="32.0713" y="82.2969"/><line style="stroke:#000000;stroke-width:1;stroke-dasharray:5,5;" x1="36" x2="36" y1="82.2969" y2="247.9609"/></g><g><title>Trading</title><rect fill="#000000" fill-opacity="0.00000" height="165.6641" width="8" x="316.8965" y="82.2969"/><line style="stroke:#000000;stroke-width:1;stroke-dasharray:5,5;" x1="320.1851" x2="320.1851" y1="82.2969" y2="247.9609"/></g><g><title>Risk</title><rect fill="#000000" fill-opacity="0.00000" height="165.6641" width="8" x="522.0522" y="82.2969"/><line style="stroke:#000000;stroke-width:1;stroke-dasharray:5,5;" x1="525.543" x2="525.543" y1="82.2969" y2="247.9609"/></g><g><title>Risk</title><rect fill="#000000" fill-opacity="0.00000" height="165.6641" width="8" x="715.0205" y="82.2969"/><line style="stroke:#000000;stroke-width:1;stroke-dasharray:5,5;" x1="718.5112" x2="718.5112" y1="82.2969" y2="247.9609"/></g><g class="participant participant-head" data-participant="Trader"><text fill="#000000" font-family="Verdana" font-size="14" lengthAdjust="spacing" textLength="46.1426" x="10" y="78.9951">Trader</text><ellipse cx="36.0713" cy="14" fill="#FFFFFF" rx="8" ry="8" style="stroke:#000000;stroke-width:1;"/><path d="M36.0713,22 L36.0713,49 M23.0713,30 L49.0713,30 M36.0713,49 L23.0713,64 M36.0713,49 L49.0713,64" fill="none" style="stroke:#000000;stroke-width:1;"/></g><g class="participant participant-tail" data-participant="Trader"><text fill="#000000" font-family="Verdana" font-size="14" lengthAdjust="spacing" textLength="46.1426" x="10" y="259.9561">Trader</text><ellipse cx="36.0713" cy="272.2578" fill="#FFFFFF" rx="8" ry="8" style="stroke:#000000;stroke-width:1;"/><path d="M36.0713,280.2578 L36.0713,307.2578 M23.0713,288.2578 L49.0713,288.2578 M36.0713,307.2578 L23.0713,322.2578 M36.0713,307.2578 L49.0713,322.2578" fill="none" style="stroke:#000000;stroke-width:1;"/></g><g class="participant participant-head" data-participant="TR"><rect fill="#FFFFFF" height="30.2969" rx="2.5" ry="2.5" style="stroke:#000000;stroke-width:1;" width="67.4229" x="287.1851" y="51"/><text fill="#000000" font-family="Verdana" font-size="14" lengthAdjust="spacing" textLength="53.4229" x="294.1851" y="70.9951">Trading</text></g><g class="participant participant-tail" data-participant="TR"><rect fill="#FFFFFF" height="30.2969" rx="2.5" ry="2.5" style="stroke:#000000;stroke-width:1;" width="67.4229" x="287.1851" y="246.9609"/><text fill="#000000" font-family="Verdana" font-size="14" lengthAdjust="spacing" textLength="53.4229" x="294.1851" y="266.9561">Trading</text></g><g class="participant participant-head" data-participant="RK"><rect fill="#FFFFFF" height="30.2969" rx="2.5" ry="2.5" style="stroke:#000000;stroke-width:1;" width="43.0186" x="504.543" y="51"/><text fill="#000000" font-family="Verdana" font-size="14" lengthAdjust="spacing" textLength="29.0186" x="511.543" y="70.9951">Risk</text></g><g class="participant participant-tail" data-participant="RK"><rect fill="#FFFFFF" height="30.2969" rx="2.5" ry="2.5" style="stroke:#000000;stroke-width:1;" width="43.0186" x="504.543" y="246.9609"/><text fill="#000000" font-family="Verdana" font-size="14" lengthAdjust="spacing" textLength="29.0186" x="511.543" y="266.9561">Risk</text></g><g class="participant participant-head" data-participant="Risk"><rect fill="#FFFFFF" height="30.2969" rx="2.5" ry="2.5" style="stroke:#000000;stroke-width:1;" width="43.0186" x="697.5112" y="51"/><text fill="#000000" font-family="Verdana" font-size="14" lengthAdjust="spacing" textLength="29.0186" x="704.5112" y="70.9951">Risk</text></g><g class="participant participant-tail" data-participant="Risk"><rect fill="#FFFFFF" height="30.2969" rx="2.5" ry="2.5" style="stroke:#000000;stroke-width:1;" width="43.0186" x="697.5112" y="246.9609"/><text fill="#000000" font-family="Verdana" font-size="14" lengthAdjust="spacing" textLength="29.0186" x="704.5112" y="266.9561">Risk</text></g><g class="message" data-participant-1="Trader" data-participant-2="TR"><polygon fill="#000000" points="308.8965,109.4297,318.8965,113.4297,308.8965,117.4297,312.8965,113.4297" style="stroke:#000000;stroke-width:1;"/><line style="stroke:#000000;stroke-width:1;" x1="36.0713" x2="314.8965" y1="113.4297" y2="113.4297"/><text fill="#000000" font-family="Verdana" font-size="13" lengthAdjust="spacing" textLength="71.7349" x="43.0713" y="108.3638">PlaceOrder</text></g><g class="message" data-participant-1="TR" data-participant-2="RK"><polygon fill="#000000" points="514.0522,138.5625,524.0522,142.5625,514.0522,146.5625,518.0522,142.5625" style="stroke:#000000;stroke-width:1;"/><line style="stroke:#000000;stroke-width:1;" x1="320.8965" x2="520.0522" y1="142.5625" y2="142.5625"/><text fill="#000000" font-family="Verdana" font-size="13" lengthAdjust="spacing" textLength="137.6743" x="327.8965" y="137.4966">CheckPreTradeLimits</text></g><g class="message" data-participant-1="RK" data-participant-2="TR"><polygon fill="#000000" points="331.8965,167.6953,321.8965,171.6953,331.8965,175.6953,327.8965,171.6953" style="stroke:#000000;stroke-width:1;"/><line style="stroke:#000000;stroke-width:1;stroke-dasharray:2,2;" x1="325.8965" x2="525.0522" y1="171.6953" y2="171.6953"/><text fill="#000000" font-family="Verdana" font-size="13" lengthAdjust="spacing" textLength="181.1558" x="337.8965" y="166.6294">LimitCheckResult (BREACH)</text></g><g class="message" data-participant-1="TR" data-participant-2="Trader"><polygon fill="#000000" points="47.0713,196.8281,37.0713,200.8281,47.0713,204.8281,43.0713,200.8281" style="stroke:#000000;stroke-width:1;"/><line style="stroke:#000000;stroke-width:1;" x1="41.0713" x2="319.8965" y1="200.8281" y2="200.8281"/><text fill="#000000" font-family="Verdana" font-size="13" lengthAdjust="spacing" textLength="260.8252" x="53.0713" y="195.7622">RejectOrder("Exposure limit exceeded")</text></g><g class="message" data-participant-1="RK" data-participant-2="Risk"><polygon fill="#000000" points="707.0205,225.9609,717.0205,229.9609,707.0205,233.9609,711.0205,229.9609" style="stroke:#000000;stroke-width:1;"/><line style="stroke:#000000;stroke-width:1;" x1="526.0522" x2="713.0205" y1="229.9609" y2="229.9609"/><text fill="#000000" font-family="Verdana" font-size="13" lengthAdjust="spacing" textLength="168.9683" x="533.0522" y="224.895">Emit LimitBreached event</text></g><!--SRC=[LOvB2eCm54NdMSMh8nsu0GT25Q7GGYMuWP1SQkgN91QNtoJQGOVltD-xk1uJQ1s5dfcGRZ7K6Q5Ws2gCqrAlOdOHwVb5mbB7_nIkxH0mlpDs12allOaAQaSXyJIXoz-UyhkdTGyvj0RH_D2JTfPv8V-b8eec3hkDZjAADzVwbfqbvqX176z85_lJfDdNnMu6D8OuOPU0Wagos5qURnRK134kL0P2zb243sRt1G00]--></g></svg>