<svg xmlns="http://www.w3.org/2000/svg" xmlns:xlink="http://www.w3.org/1999/xlink" contentStyleType="text/css" data-diagram-type="SEQUENCE" height="400px" preserveAspectRatio="none" style="width:373px;height:400px;background:#FFFFFF;" version="1.1" viewBox="0 0 373 400" width="373px" zoomAndPan="magnify"><defs/><g><g><title>Trader</title><rect fill="#000000" fill-opacity="0.00000" height="236.9297" width="8" x="32.0713" y="82.2969"/><line style="stroke:#000000;stroke-width:1;stroke-dasharray:5,5;" x1="36" x2="36" y1="82.2969" y2="319.2266"/></g><g><title>Trading</title><rect fill="#000000" fill-opacity="0.00000" height="236.9297" width="8" x="127.8062" y="82.2969"/><line style="stroke:#000000;stroke-width:1;stroke-dasharray:5,5;" x1="131.0947" x2="131.0947" y1="82.2969" y2="319.2266"/></g><g><title>Exchange</title><rect fill="#000000" fill-opacity="0.00000" height="236.9297" width="8" x="249.5347" y="82.2969"/><line style="stroke:#000000;stroke-width:1;stroke-dasharray:5,5;" x1="253.208" x2="253.208" y1="82.2969" y2="319.2266"/></g><g><title>Risk</title><rect fill="#000000" fill-opacity="0.00000" height="236.9297" width="8" x="342.3706" y="82.2969"/><line style="stroke:#000000;stroke-width:1;stroke-dasharray:5,5;" x1="345.8613" x2="345.8613" y1="82.2969" y2="319.2266"/></g><g class="participant participant-head" data-participant="Trader"><text fill="#000000" font-family="Verdana" font-size="14" lengthAdjust="spacing" textLength="46.1426" x="10" y="78.9951">Trader</text><ellipse cx="36.0713" cy="14" fill="#FFFFFF" rx="8" ry="8" style="stroke:#000000;stroke-width:1;"/><path d="M36.0713,22 L36.0713,49 M23.0713,30 L49.0713,30 M36.0713,49 L23.0713,64 M36.0713,49 L49.0713,64" fill="none" style="stroke:#000000;stroke-width:1;"/></g><g class="participant participant-tail" data-participant="Trader"><text fill="#000000" font-family="Verdana" font-size="14" lengthAdjust="spacing" textLength="46.1426" x="10" y="331.2217">Trader</text><ellipse cx="36.0713" cy="343.5234" fill="#FFFFFF" rx="8" ry="8" style="stroke:#000000;stroke-width:1;"/><path d="M36.0713,351.5234 L36.0713,378.5234 M23.0713,359.5234 L49.0713,359.5234 M36.0713,378.5234 L23.0713,393.5234 M36.0713,378.5234 L49.0713,393.5234" fill="none" style="stroke:#000000;stroke-width:1;"/></g><g class="participant participant-head" data-participant="TR"><rect fill="#FFFFFF" height="30.2969" rx="2.5" ry="2.5" style="stroke:#000000;stroke-width:1;" width="67.4229" x="98.0947" y="51"/><text fill="#000000" font-family="Verdana" font-size="14" lengthAdjust="spacing" textLength="53.4229" x="105.0947" y="70.9951">Trading</text></g><g class="participant participant-tail" data-participant="TR"><rect fill="#FFFFFF" height="30.2969" rx="2.5" ry="2.5" style="stroke:#000000;stroke-width:1;" width="67.4229" x="98.0947" y="318.2266"/><text fill="#000000" font-family="Verdana" font-size="14" lengthAdjust="spacing" textLength="53.4229" x="105.0947" y="338.2217">Trading</text></g><g class="participant participant-head" data-participant="EX"><rect fill="#FFFFFF" height="30.2969" rx="2.5" ry="2.5" style="stroke:#000000;stroke-width:1;" width="82.6533" x="212.208" y="51"/><text fill="#000000" font-family="Verdana" font-size="14" lengthAdjust="spacing" textLength="68.6533" x="219.208" y="70.9951">Exchange</text></g><g class="participant participant-tail" data-participant="EX"><rect fill="#FFFFFF" height="30.2969" rx="2.5" ry="2.5" style="stroke:#000000;stroke-width:1;" width="82.6533" x="212.208" y="318.2266"/><text fill="#000000" font-family="Verdana" font-size="14" lengthAdjust="spacing" textLength="68.6533" x="219.208" y="338.2217">Exchange</text></g><g class="participant participant-head" data-participant="RK"><rect fill="#FFFFFF" height="30.2969" rx="2.5" ry="2.5" style="stroke:#000000;stroke-width:1;" width="43.0186" x="324.8613" y="51"/><text fill="#000000" font-family="Verdana" font-size="14" lengthAdjust="spacing" textLength="29.0186" x="331.8613" y="70.9951">Risk</text></g><g class="participant participant-tail" data-participant="RK"><rect fill="#FFFFFF" height="30.2969" rx="2.5" ry="2.5" style="stroke:#000000;stroke-width:1;" width="43.0186" x="324.8613" y="318.2266"/><text fill="#000000" font-family="Verdana" font-size="14" lengthAdjust="spacing" textLength="29.0186" x="331.8613" y="338.2217">Risk</text></g><g class="message" data-participant-1="Trader" data-participant-2="TR"><polygon fill="#000000" points="119.8062,109.4297,129.8062,113.4297,119.8062,117.4297,123.8062,113.4297" style="stroke:#000000;stroke-width:1;"/><line style="stroke:#000000;stroke-width:1;" x1="36.0713" x2="125.8062" y1="113.4297" y2="113.4297"/><text fill="#000000" font-family="Verdana" font-size="13" lengthAdjust="spacing" textLength="71.7349" x="43.0713" y="108.3638">PlaceOrder</text></g><g class="message" data-participant-1="TR" data-participant-2="RK"><polygon fill="#000000" points="334.3706,138.5625,344.3706,142.5625,334.3706,146.5625,338.3706,142.5625" style="stroke:#000000;stroke-width:1;"/><line style="stroke:#000000;stroke-width:1;" x1="131.8062" x2="340.3706" y1="142.5625" y2="142.5625"/><text fill="#000000" font-family="Verdana" font-size="13" lengthAdjust="spacing" textLength="137.6743" x="138.8062" y="137.4966">CheckPreTradeLimits</text></g><g class="message" data-participant-1="RK" data-participant-2="TR"><polygon fill="#000000" points="142.8062,167.6953,132.8062,171.6953,142.8062,175.6953,138.8062,171.6953" style="stroke:#000000;stroke-width:1;"/><line style="stroke:#000000;stroke-width:1;stroke-dasharray:2,2;" x1="136.8062" x2="345.3706" y1="171.6953" y2="171.6953"/><text fill="#000000" font-family="Verdana" font-size="13" lengthAdjust="spacing" textLength="146.0024" x="148.8062" y="166.6294">LimitCheckResult (OK)</text></g><g class="message" data-participant-1="TR" data-participant-2="EX"><polygon fill="#000000" points="241.5347,196.8281,251.5347,200.8281,241.5347,204.8281,245.5347,200.8281" style="stroke:#000000;stroke-width:1;"/><line style="stroke:#000000;stroke-width:1;" x1="131.8062" x2="247.5347" y1="200.8281" y2="200.8281"/><text fill="#000000" font-family="Verdana" font-size="13" lengthAdjust="spacing" textLength="75.4927" x="138.8062" y="195.7622">RouteOrder</text></g><g class="message" data-participant-1="EX" data-participant-2="TR"><polygon fill="#000000" points="142.8062,225.9609,132.8062,229.9609,142.8062,233.9609,138.8062,229.9609" style="stroke:#000000;stroke-width:1;"/><line style="stroke:#000000;stroke-width:1;stroke-dasharray:2,2;" x1="136.8062" x2="252.5347" y1="229.9609" y2="229.9609"/><text fill="#000000" font-family="Verdana" font-size="13" lengthAdjust="spacing" textLength="97.7285" x="148.8062" y="224.895">TradeCaptured</text></g><g class="message" data-participant-1="TR" data-participant-2="TR"><line style="stroke:#000000;stroke-width:1;" x1="131.8062" x2="173.8062" y1="259.0938" y2="259.0938"/><line style="stroke:#000000;stroke-width:1;" x1="173.8062" x2="173.8062" y1="259.0938" y2="272.0938"/><line style="stroke:#000000;stroke-width:1;" x1="132.8062" x2="173.8062" y1="272.0938" y2="272.0938"/><polygon fill="#000000" points="142.8062,268.0938,132.8062,272.0938,142.8062,276.0938,138.8062,272.0938" style="stroke:#000000;stroke-width:1;"/><text fill="#000000" font-family="Verdana" font-size="13" lengthAdjust="spacing" textLength="98.1602" x="138.8062" y="254.0278">UpdatePosition</text></g><g class="message" data-participant-1="TR" data-participant-2="RK"><polygon fill="#000000" points="334.3706,297.2266,344.3706,301.2266,334.3706,305.2266,338.3706,301.2266" style="stroke:#000000;stroke-width:1;"/><line style="stroke:#000000;stroke-width:1;" x1="131.8062" x2="340.3706" y1="301.2266" y2="301.2266"/><text fill="#000000" font-family="Verdana" font-size="13" lengthAdjust="spacing" textLength="157.1108" x="138.8062" y="296.1606">Publish PositionUpdated</text></g><!--SRC=[LOv13e8m44NtFSMuqmKNSE66iC84qc32TYmJcG2bQQU9nxTKDBgSz_x_xK56MWZSZ6mL6bazT1u7yigX5pRiq4f6R1-00JhzPwgd6T4-Q5DL_wSqXsd3kbRglGd59VNX3EsCXXg_FPFkH7MTQ3cIcLfFENpbXIMe98fFAwCSqXJYB71iwjC-KFKfeDSe-sowlxsyLwAJw6dOyrdSt812xHfOUBM_NsdZVUOmmiUzayCB]--></g></svg>