<svg xmlns="http://www.w3.org/2000/svg" xmlns:xlink="http://www.w3.org/1999/xlink" contentStyleType="text/css" data-diagram-type="SEQUENCE" height="355px" preserveAspectRatio="none" style="width:627px;height:355px;background:#FFFFFF;" version="1.1" viewBox="0 0 627 355" width="627px" zoomAndPan="magnify"><defs/><g><g><title>Ops</title><rect fill="#000000" fill-opacity="0.00000" height="191.6641" width="8" x="22.6001" y="82.2969"/><line style="stroke:#000000;stroke-width:1;stroke-dasharray:5,5;" x1="26" x2="26" y1="82.2969" y2="273.9609"/></g><g><title>Logistics</title><rect fill="#000000" fill-opacity="0.00000" height="191.6641" width="8" x="205.812" y="82.2969"/><line style="stroke:#000000;stroke-width:1;stroke-dasharray:5,5;" x1="209.4092" x2="209.4092" y1="82.2969" y2="273.9609"/></g><g><title>Finance</title><rect fill="#000000" fill-opacity="0.00000" height="191.6641" width="8" x="385.6152" y="82.2969"/><line style="stroke:#000000;stroke-width:1;stroke-dasharray:5,5;" x1="389.3262" x2="389.3262" y1="82.2969" y2="273.9609"/></g><g class="participant participant-head" data-participant="OPS"><text fill="#000000" font-family="Verdana" font-size="14" lengthAdjust="spacing" textLength="27.2002" x="10" y="78.9951">Ops</text><ellipse cx="26.6001" cy="14" fill="#FFFFFF" rx="8" ry="8" style="stroke:#000000;stroke-width:1;"/><path d="M26.6001,22 L26.6001,49 M13.6001,30 L39.6001,30 M26.6001,49 L13.6001,64 M26.6001,49 L39.6001,64" fill="none" style="stroke:#000000;stroke-width:1;"/></g><g class="participant participant-tail" data-participant="OPS"><text fill="#000000" font-family="Verdana" font-size="14" lengthAdjust="spacing" textLength="27.2002" x="10" y="285.9561">Ops</text><ellipse cx="26.6001" cy="298.2578" fill="#FFFFFF" rx="8" ry="8" style="stroke:#000000;stroke-width:1;"/><path d="M26.6001,306.2578 L26.6001,333.2578 M13.6001,314.2578 L39.6001,314.2578 M26.6001,333.2578 L13.6001,348.2578 M26.6001,333.2578 L39.6001,348.2578" fill="none" style="stroke:#000000;stroke-width:1;"/></g><g class="participant participant-head" data-participant="LG"><rect fill="#FFFFFF" height="30.2969" rx="2.5" ry="2.5" style="stroke:#000000;stroke-width:1;" width="74.8057" x="172.4092" y="51"/><text fill="#000000" font-family="Verdana" font-size="14" lengthAdjust="spacing" textLength="60.8057" x="179.4092" y="70.9951">Logistics</text></g><g class="participant participant-tail" data-participant="LG"><rect fill="#FFFFFF" height="30.2969" rx="2.5" ry="2.5" style="stroke:#000000;stroke-width:1;" width="74.8057" x="172.4092" y="272.9609"/><text fill="#000000" font-family="Verdana" font-size="14" lengthAdjust="spacing" textLength="60.8057" x="179.4092" y="292.9561">Logistics</text></g><g class="participant participant-head" data-participant="FN"><rect fill="#FFFFFF" height="30.2969" rx="2.5" ry="2.5" style="stroke:#000000;stroke-width:1;" width="68.5781" x="355.3262" y="51"/><text fill="#000000" font-family="Verdana" font-size="14" lengthAdjust="spacing" textLength="54.5781" x="362.3262" y="70.9951">Finance</text></g><g class="participant participant-tail" data-participant="FN"><rect fill="#FFFFFF" height="30.2969" rx="2.5" ry="2.5" style="stroke:#000000;stroke-width:1;" width="68.5781" x="355.3262" y="272.9609"/><text fill="#000000" font-family="Verdana" font-size="14" lengthAdjust="spacing" textLength="54.5781" x="362.3262" y="292.9561">Finance</text></g><g class="message" data-participant-1="OPS" data-participant-2="LG"><polygon fill="#000000" points="197.812,109.4297,207.812,113.4297,197.812,117.4297,201.812,113.4297" style="stroke:#000000;stroke-width:1;"/><line style="stroke:#000000;stroke-width:1;" x1="26.6001" x2="203.812" y1="113.4297" y2="113.4297"/><text fill="#000000" font-family="Verdana" font-size="13" lengthAdjust="spacing" textLength="159.2119" x="33.6001" y="108.3638">RecordArrival(shipment)</text></g><g class="message" data-participant-1="LG" data-participant-2="LG"><line style="stroke:#000000;stroke-width:1;" x1="209.812" x2="251.812" y1="142.5625" y2="142.5625"/><line style="stroke:#000000;stroke-width:1;" x1="251.812" x2="251.812" y1="142.5625" y2="155.5625"/><line style="stroke:#000000;stroke-width:1;" x1="210.812" x2="251.812" y1="155.5625" y2="155.5625"/><polygon fill="#000000" points="220.812,151.5625,210.812,155.5625,220.812,159.5625,216.812,155.5625" style="stroke:#000000;stroke-width:1;"/><text fill="#000000" font-family="Verdana" font-size="13" lengthAdjust="spacing" textLength="109.1733" x="216.812" y="137.4966">UpdateInventory</text></g><g class="message" data-participant-1="LG" data-participant-2="FN"><polygon fill="#000000" points="377.6152,180.6953,387.6152,184.6953,377.6152,188.6953,381.6152,184.6953" style="stroke:#000000;stroke-width:1;"/><line style="stroke:#000000;stroke-width:1;" x1="209.812" x2="383.6152" y1="184.6953" y2="184.6953"/><text fill="#000000" font-family="Verdana" font-size="13" lengthAdjust="spacing" textLength="155.8032" x="216.812" y="179.6294">Emit ShipmentReceived</text></g><g class="message" data-participant-1="FN" data-participant-2="FN"><line style="stroke:#000000;stroke-width:1;" x1="389.6152" x2="431.6152" y1="213.8281" y2="213.8281"/><line style="stroke:#000000;stroke-width:1;" x1="431.6152" x2="431.6152" y1="213.8281" y2="226.8281"/><line style="stroke:#000000;stroke-width:1;" x1="390.6152" x2="431.6152" y1="226.8281" y2="226.8281"/><polygon fill="#000000" points="400.6152,222.8281,390.6152,226.8281,400.6152,230.8281,396.6152,226.8281" style="stroke:#000000;stroke-width:1;"/><text fill="#000000" font-family="Verdana" font-size="13" lengthAdjust="spacing" textLength="223.958" x="396.6152" y="208.7622">GenerateInvoice(basis=Shipment)</text></g><g class="message" data-participant-1="FN" data-participant-2="OPS"><polygon fill="#000000" points="37.6001,251.9609,27.6001,255.9609,37.6001,259.9609,33.6001,255.9609" style="stroke:#000000;stroke-width:1;"/><line style="stroke:#000000;stroke-width:1;" x1="31.6001" x2="388.6152" y1="255.9609" y2="255.9609"/><text fill="#000000" font-family="Verdana" font-size="13" lengthAdjust="spacing" textLength="88.3467" x="43.6001" y="250.895">InvoiceIssued</text></g><!--SRC=[LSv12i8m48NXVKunxkh22nGKNDXIAArOFC2O37QWJK8c5hozgMq5b-7xNv9Tx6aay0EoLQYZ2z1w0HHehvto629hzcWZrEx9aavVhCi_AzYYrJHBqIYLfd0ufGXok95smPn3u0c7J7hs8zcuLmctvEuDHghibC25zqf5a-WoSeHk7QMhY2SoAj4Mb6GfB6l7ch872ikn-pspfFE7SbYRIkH5vWC0]--></g></svg>