<svg xmlns="http://www.w3.org/2000/svg" xmlns:xlink="http://www.w3.org/1999/xlink" contentStyleType="text/css" data-diagram-type="DESCRIPTION" height="421px" preserveAspectRatio="none" style="width:749px;height:421px;background:#FFFFFF;" version="1.1" viewBox="0 0 749 421" width="749px" zoomAndPan="magnify"><defs/><g><!--cluster Risk Context--><g class="cluster" data-entity="Risk Context" data-source-line="6" data-uid="ent0004" id="cluster_Risk Context"><path d="M17.18,211.11 L118.0462,211.11 A3.75,3.75 0 0 1 120.5462,213.61 L127.5462,233.4069 L546.18,233.4069 A2.5,2.5 0 0 1 548.68,235.9069 L548.68,412.2 A2.5,2.5 0 0 1 546.18,414.7 L17.18,414.7 A2.5,2.5 0 0 1 14.68,412.2 L14.68,213.61 A2.5,2.5 0 0 1 17.18,211.11" fill="#FFFFFF" style="stroke:#000000;stroke-width:1;"/><line style="stroke:#000000;stroke-width:1;" x1="14.68" x2="127.5462" y1="233.4069" y2="233.4069"/><text fill="#000000" font-family="Verdana" font-size="14" font-weight="bold" lengthAdjust="spacing" textLength="99.8662" x="18.68" y="226.1051">Risk Context</text></g><!--entity EXC--><g class="entity" data-entity="EXC" data-source-line="7" data-uid="ent0005" id="entity_EXC"><rect fill="#FFFFFF" height="46.2969" rx="2.5" ry="2.5" style="stroke:#000000;stroke-width:1;" width="180.6631" x="30.35" y="246.11"/><rect fill="#FFFFFF" height="10" style="stroke:#000000;stroke-width:1;" width="15" x="191.0131" y="251.11"/><rect fill="#FFFFFF" height="2" style="stroke:#000000;stroke-width:1;" width="4" x="189.0131" y="253.11"/><rect fill="#FFFFFF" height="2" style="stroke:#000000;stroke-width:1;" width="4" x="189.0131" y="257.11"/><text fill="#000000" font-family="Verdana" font-size="14" lengthAdjust="spacing" textLength="140.6631" x="45.35" y="279.1051">Exposure Calculator</text></g><!--entity VAR--><g class="entity" data-entity="VAR" data-source-line="8" data-uid="ent0006" id="entity_VAR"><rect fill="#FFFFFF" height="46.2969" rx="2.5" ry="2.5" style="stroke:#000000;stroke-width:1;" width="120.3154" x="245.52" y="246.11"/><rect fill="#FFFFFF" height="10" style="stroke:#000000;stroke-width:1;" width="15" x="345.8354" y="251.11"/><rect fill="#FFFFFF" height="2" style="stroke:#000000;stroke-width:1;" width="4" x="343.8354" y="253.11"/><rect fill="#FFFFFF" height="2" style="stroke:#000000;stroke-width:1;" width="4" x="343.8354" y="257.11"/><text fill="#000000" font-family="Verdana" font-size="14" lengthAdjust="spacing" textLength="80.3154" x="260.52" y="279.1051">VaR Engine</text></g><!--entity LM--><g class="entity" data-entity="LM" data-source-line="9" data-uid="ent0007" id="entity_LM"><rect fill="#FFFFFF" height="46.2969" rx="2.5" ry="2.5" style="stroke:#000000;stroke-width:1;" width="140.5225" x="313.42" y="352.4"/><rect fill="#FFFFFF" height="10" style="stroke:#000000;stroke-width:1;" width="15" x="433.9425" y="357.4"/><rect fill="#FFFFFF" height="2" style="stroke:#000000;stroke-width:1;" width="4" x="431.9425" y="359.4"/><rect fill="#FFFFFF" height="2" style="stroke:#000000;stroke-width:1;" width="4" x="431.9425" y="363.4"/><text fill="#000000" font-family="Verdana" font-size="14" lengthAdjust="spacing" textLength="100.5225" x="328.42" y="385.3951">Limit Manager</text></g><!--entity ST--><g class="entity" data-entity="ST" data-source-line="10" data-uid="ent0008" id="entity_ST"><rect fill="#FFFFFF" height="46.2969" rx="2.5" ry="2.5" style="stroke:#000000;stroke-width:1;" width="132.1006" x="400.63" y="246.11"/><rect fill="#FFFFFF" height="10" style="stroke:#000000;stroke-width:1;" width="15" x="512.7306" y="251.11"/><rect fill="#FFFFFF" height="2" style="stroke:#000000;stroke-width:1;" width="4" x="510.7306" y="253.11"/><rect fill="#FFFFFF" height="2" style="stroke:#000000;stroke-width:1;" width="4" x="510.7306" y="257.11"/><text fill="#000000" font-family="Verdana" font-size="14" lengthAdjust="spacing" textLength="92.1006" x="415.63" y="279.1051">Stress Tester</text></g><!--entity RiskManager--><g class="entity" data-entity="RiskManager" data-source-line="3" data-uid="ent0002" id="entity_RiskManager"><ellipse cx="385.6824" cy="19" fill="#FFFFFF" rx="8" ry="8" style="stroke:#000000;stroke-width:1;"/><path d="M385.6824,27 L385.6824,54 M372.6824,35 L398.6824,35 M385.6824,54 L372.6824,69 M385.6824,54 L398.6824,69" fill="none" style="stroke:#000000;stroke-width:1;"/><text fill="#000000" font-family="Verdana" font-size="14" lengthAdjust="spacing" textLength="90.3848" x="340.49" y="83.9951">RiskManager</text></g><!--entity Trader--><g class="entity" data-entity="Trader" data-source-line="4" data-uid="ent0003" id="entity_Trader"><ellipse cx="87.6813" cy="19" fill="#FFFFFF" rx="8" ry="8" style="stroke:#000000;stroke-width:1;"/><path d="M87.6813,27 L87.6813,54 M74.6813,35 L100.6813,35 M87.6813,54 L74.6813,69 M87.6813,54 L100.6813,69" fill="none" style="stroke:#000000;stroke-width:1;"/><text fill="#000000" font-family="Verdana" font-size="14" lengthAdjust="spacing" textLength="46.1426" x="64.61" y="83.9951">Trader</text></g><!--entity Set Risk Limits--><g class="entity" data-entity="Set Risk Limits" data-source-line="13" data-uid="ent0009" id="entity_Set Risk Limits"><ellipse cx="674.6812" cy="166.6962" fill="#FFFFFF" rx="68.6312" ry="16.1262" style="stroke:#000000;stroke-width:1;"/><text fill="#000000" font-family="Verdana" font-size="14" lengthAdjust="spacing" textLength="102.9082" x="623.2271" y="171.3447">Set Risk Limits</text></g><!--entity Monitor Exposure--><g class="entity" data-entity="Monitor Exposure" data-source-line="14" data-uid="ent0011" id="entity_Monitor Exposure"><ellipse cx="87.6824" cy="166.6965" fill="#FFFFFF" rx="76.6824" ry="17.7365" style="stroke:#000000;stroke-width:1;"/><text fill="#000000" font-family="Verdana" font-size="14" lengthAdjust="spacing" textLength="122.7871" x="26.2888" y="171.3449">Monitor Exposure</text></g><!--entity Run VaR Calculation--><g class="entity" data-entity="Run VaR Calculation" data-source-line="15" data-uid="ent0013" id="entity_Run VaR Calculation"><ellipse cx="284.6847" cy="166.7029" fill="#FFFFFF" rx="85.0147" ry="19.4029" style="stroke:#000000;stroke-width:1;"/><text fill="#000000" font-family="Verdana" font-size="14" lengthAdjust="spacing" textLength="142.3584" x="213.5055" y="171.3514">Run VaR Calculation</text></g><!--entity Perform Stress Test--><g class="entity" data-entity="Perform Stress Test" data-source-line="16" data-uid="ent0015" id="entity_Perform Stress Test"><ellipse cx="487.6794" cy="166.6959" fill="#FFFFFF" rx="83.0794" ry="19.0159" style="stroke:#000000;stroke-width:1;"/><text fill="#000000" font-family="Verdana" font-size="14" lengthAdjust="spacing" textLength="137.8809" x="418.739" y="171.3443">Perform Stress Test</text></g><!--link RiskManager to Set Risk Limits--><g class="link" data-entity-1="RiskManager" data-entity-2="Set Risk Limits" data-source-line="13" data-uid="lnk10" id="link_RiskManager_Set Risk Limits"><path d="M431.15,67.91 C489.49,91.34 583.752,129.1946 635.612,150.0146" fill="none" id="RiskManager-to-Set Risk Limits" style="stroke:#000000;stroke-width:1;"/><polygon fill="#000000" points="641.18,152.25,634.3182,145.1849,636.54,150.3872,631.3377,152.609,641.18,152.25" style="stroke:#000000;stroke-width:1;"/></g><!--link RiskManager to Monitor Exposure--><g class="link" data-entity-1="RiskManager" data-entity-2="Monitor Exposure" data-source-line="14" data-uid="lnk12" id="link_RiskManager_Monitor Exposure"><path d="M340.1,67.4 C281.4,90.26 186.0408,127.3923 131.2808,148.7223" fill="none" id="RiskManager-to-Monitor Exposure" style="stroke:#000000;stroke-width:1;"/><polygon fill="#000000" points="125.69,150.9,135.5281,151.3606,130.349,149.0852,132.6244,143.9062,125.69,150.9" style="stroke:#000000;stroke-width:1;"/></g><!--link RiskManager to Run VaR Calculation--><g class="link" data-entity-1="RiskManager" data-entity-2="Run VaR Calculation" data-source-line="15" data-uid="lnk14" id="link_RiskManager_Run VaR Calculation"><path d="M352.61,87.65 C335.23,107.62 318.6578,126.653 304.7578,142.633" fill="none" id="RiskManager-to-Run VaR Calculation" style="stroke:#000000;stroke-width:1;"/><polygon fill="#000000" points="300.82,147.16,309.7447,142.9946,304.1015,143.3875,303.7086,137.7443,300.82,147.16" style="stroke:#000000;stroke-width:1;"/></g><!--link RiskManager to Perform Stress Test--><g class="link" data-entity-1="RiskManager" data-entity-2="Perform Stress Test" data-source-line="16" data-uid="lnk16" id="link_RiskManager_Perform Stress Test"><path d="M419.08,87.65 C436.86,107.88 453.9298,127.3026 467.9698,143.2826" fill="none" id="RiskManager-to-Perform Stress Test" style="stroke:#000000;stroke-width:1;"/><polygon fill="#000000" points="471.93,147.79,468.9946,138.3887,468.6298,144.0338,462.9847,143.669,471.93,147.79" style="stroke:#000000;stroke-width:1;"/></g><!--link Trader to Monitor Exposure--><g class="link" data-entity-1="Trader" data-entity-2="Monitor Exposure" data-source-line="17" data-uid="lnk17" id="link_Trader_Monitor Exposure"><path d="M87.68,87.65 C87.68,108.28 87.68,126.75 87.68,142.72" fill="none" id="Trader-to-Monitor Exposure" style="stroke:#000000;stroke-width:1;"/><polygon fill="#000000" points="87.68,148.72,91.68,139.72,87.68,143.72,83.68,139.72,87.68,148.72" style="stroke:#000000;stroke-width:1;"/></g><!--link Set Risk Limits to LM--><g class="link" data-entity-1="Set Risk Limits" data-entity-2="LM" data-source-line="19" data-uid="lnk18" id="link_Set Risk Limits_LM"><path d="M662.62,182.74 C641.84,207.92 597.06,259.11 550.68,292.4 C516.82,316.71 480.184,334.9913 446.704,349.5213" fill="none" id="Set Risk Limits-to-LM" style="stroke:#000000;stroke-width:1;"/><polygon fill="#000000" points="441.2,351.91,451.0485,351.9963,445.7867,349.9194,447.8636,344.6576,441.2,351.91" style="stroke:#000000;stroke-width:1;"/></g><!--link Monitor Exposure to EXC--><g class="link" data-entity-1="Monitor Exposure" data-entity-2="EXC" data-source-line="20" data-uid="lnk19" id="link_Monitor Exposure_EXC"><path d="M93.28,184.76 C98.79,201.57 105.3786,221.6493 111.4386,240.1093" fill="none" id="Monitor Exposure-to-EXC" style="stroke:#000000;stroke-width:1;"/><polygon fill="#000000" points="113.31,245.81,114.3033,236.0114,111.7505,241.0594,106.7024,238.5066,113.31,245.81" style="stroke:#000000;stroke-width:1;"/></g><!--link Run VaR Calculation to VAR--><g class="link" data-entity-1="Run VaR Calculation" data-entity-2="VAR" data-source-line="21" data-uid="lnk20" id="link_Run VaR Calculation_VAR"><path d="M288.53,186.15 C292.04,202.93 295.993,221.8768 299.743,239.8268" fill="none" id="Run VaR Calculation-to-VAR" style="stroke:#000000;stroke-width:1;"/><polygon fill="#000000" points="300.97,245.7,303.045,236.0722,299.9475,240.8057,295.214,237.7082,300.97,245.7" style="stroke:#000000;stroke-width:1;"/></g><!--link Perform Stress Test to ST--><g class="link" data-entity-1="Perform Stress Test" data-entity-2="ST" data-source-line="22" data-uid="lnk21" id="link_Perform Stress Test_ST"><path d="M483.83,186.15 C480.32,202.93 476.367,221.8768 472.617,239.8268" fill="none" id="Perform Stress Test-to-ST" style="stroke:#000000;stroke-width:1;"/><polygon fill="#000000" points="471.39,245.7,477.146,237.7082,472.4125,240.8057,469.315,236.0722,471.39,245.7" style="stroke:#000000;stroke-width:1;"/></g><!--link EXC to LM--><g class="link" data-entity-1="EXC" data-entity-2="LM" data-source-line="23" data-uid="lnk22" id="link_EXC_LM"><path d="M177.75,292.89 C221.86,310.38 277.0625,332.2682 321.1425,349.7482" fill="none" id="EXC-to-LM" style="stroke:#000000;stroke-width:1;"/><polygon fill="#000000" points="326.72,351.96,319.8283,344.9241,322.0721,350.1169,316.8793,352.3607,326.72,351.96" style="stroke:#000000;stroke-width:1;"/></g><!--link VAR to LM--><g class="link" data-entity-1="VAR" data-entity-2="LM" data-source-line="24" data-uid="lnk23" id="link_VAR_LM"><path d="M322.6,292.89 C335.69,310.38 350.1153,329.676 363.1953,347.156" fill="none" id="VAR-to-LM" style="stroke:#000000;stroke-width:1;"/><polygon fill="#000000" points="366.79,351.96,364.6006,342.3576,363.7944,347.9567,358.1953,347.1505,366.79,351.96" style="stroke:#000000;stroke-width:1;"/></g><!--link ST to LM--><g class="link" data-entity-1="ST" data-entity-2="LM" data-source-line="25" data-uid="lnk24" id="link_ST_LM"><path d="M448.67,292.89 C434.75,310.38 419.3077,329.7864 405.3877,347.2664" fill="none" id="ST-to-LM" style="stroke:#000000;stroke-width:1;"/><polygon fill="#000000" points="401.65,351.96,410.3856,347.4114,404.7647,348.0487,404.1275,342.4278,401.65,351.96" style="stroke:#000000;stroke-width:1;"/></g><!--SRC=[TP312eCm38RlUOfif-tWAmo6U5COAcCWEmINkJ9jfQqWZBtxsavXeBkbV_uqN_wDVN37sBSa903LLcdCXNbc9AbXFIcbffjxG4_rqycuzHQCbRGysYs-e4h6Nfb1CyRKraDBRkgAP32vn52TAST4Da9oqCx77AfKTCBYj2R8QGPLOJKRWoKREwb52M-07oICeWFk2hQ14yC_PhzqP4eAppwJhLZoGQ9dcvc5aYkk4-kxqXt-iEtXcyY_JR3W2qvtuT8SEZwcLPpGzO6jOeIkIyYDpmkSTowBSge-]--></g></svg>