<svg xmlns="http://www.w3.org/2000/svg" xmlns:xlink="http://www.w3.org/1999/xlink" contentStyleType="text/css" data-diagram-type="DESCRIPTION" height="622px" preserveAspectRatio="none" style="width:842px;height:622px;background:#FFFFFF;" version="1.1" viewBox="0 0 842 622" width="842px" zoomAndPan="magnify"><defs/><g><!--cluster Trading Context--><g class="cluster" data-entity="Trading Context" data-source-line="7" data-uid="ent0005" id="cluster_Trading Context"><path d="M117.2,272.59 L245.5535,272.59 A3.75,3.75 0 0 1 248.0535,275.09 L255.0535,294.8869 L671.2,294.8869 A2.5,2.5 0 0 1 673.7,297.3869 L673.7,490.68 A2.5,2.5 0 0 1 671.2,493.18 L117.2,493.18 A2.5,2.5 0 0 1 114.7,490.68 L114.7,275.09 A2.5,2.5 0 0 1 117.2,272.59" fill="#FFFFFF" style="stroke:#000000;stroke-width:1;"/><line style="stroke:#000000;stroke-width:1;" x1="114.7" x2="255.0535" y1="294.8869" y2="294.8869"/><text fill="#000000" font-family="Verdana" font-size="14" font-weight="bold" lengthAdjust="spacing" textLength="127.3535" x="118.7" y="287.5851">Trading Context</text></g><!--entity OM--><g class="entity" data-entity="OM" data-source-line="8" data-uid="ent0006" id="entity_OM"><rect fill="#FFFFFF" height="46.2969" rx="2.5" ry="2.5" style="stroke:#000000;stroke-width:1;" width="176.7051" x="130.34" y="307.59"/><rect fill="#FFFFFF" height="10" style="stroke:#000000;stroke-width:1;" width="15" x="287.0451" y="312.59"/><rect fill="#FFFFFF" height="2" style="stroke:#000000;stroke-width:1;" width="4" x="285.0451" y="314.59"/><rect fill="#FFFFFF" height="2" style="stroke:#000000;stroke-width:1;" width="4" x="285.0451" y="318.59"/><text fill="#000000" font-family="Verdana" font-size="14" lengthAdjust="spacing" textLength="136.7051" x="145.34" y="340.5851">Order Management</text></g><!--entity TC--><g class="entity" data-entity="TC" data-source-line="9" data-uid="ent0007" id="entity_TC"><rect fill="#FFFFFF" height="46.2969" rx="2.5" ry="2.5" style="stroke:#000000;stroke-width:1;" width="140.8096" x="342.29" y="307.59"/><rect fill="#FFFFFF" height="10" style="stroke:#000000;stroke-width:1;" width="15" x="463.0996" y="312.59"/><rect fill="#FFFFFF" height="2" style="stroke:#000000;stroke-width:1;" width="4" x="461.0996" y="314.59"/><rect fill="#FFFFFF" height="2" style="stroke:#000000;stroke-width:1;" width="4" x="461.0996" y="318.59"/><text fill="#000000" font-family="Verdana" font-size="14" lengthAdjust="spacing" textLength="100.8096" x="357.29" y="340.5851">Trade Capture</text></g><!--entity PK--><g class="entity" data-entity="PK" data-source-line="10" data-uid="ent0008" id="entity_PK"><rect fill="#FFFFFF" height="46.2969" rx="2.5" ry="2.5" style="stroke:#000000;stroke-width:1;" width="156.4023" x="343.49" y="430.89"/><rect fill="#FFFFFF" height="10" style="stroke:#000000;stroke-width:1;" width="15" x="479.8923" y="435.89"/><rect fill="#FFFFFF" height="2" style="stroke:#000000;stroke-width:1;" width="4" x="477.8923" y="437.89"/><rect fill="#FFFFFF" height="2" style="stroke:#000000;stroke-width:1;" width="4" x="477.8923" y="441.89"/><text fill="#000000" font-family="Verdana" font-size="14" lengthAdjust="spacing" textLength="116.4023" x="358.49" y="463.8851">Position Keeping</text></g><!--entity SOR--><g class="entity" data-entity="SOR" data-source-line="11" data-uid="ent0009" id="entity_SOR"><rect fill="#FFFFFF" height="46.2969" rx="2.5" ry="2.5" style="stroke:#000000;stroke-width:1;" width="178.3047" x="130.54" y="430.89"/><rect fill="#FFFFFF" height="10" style="stroke:#000000;stroke-width:1;" width="15" x="288.8447" y="435.89"/><rect fill="#FFFFFF" height="2" style="stroke:#000000;stroke-width:1;" width="4" x="286.8447" y="437.89"/><rect fill="#FFFFFF" height="2" style="stroke:#000000;stroke-width:1;" width="4" x="286.8447" y="441.89"/><text fill="#000000" font-family="Verdana" font-size="14" lengthAdjust="spacing" textLength="138.3047" x="145.54" y="463.8851">Smart Order Router</text></g><!--entity PE--><g class="entity" data-entity="PE" data-source-line="12" data-uid="ent0010" id="entity_PE"><rect fill="#FFFFFF" height="46.2969" rx="2.5" ry="2.5" style="stroke:#000000;stroke-width:1;" width="139.8662" x="517.76" y="307.59"/><rect fill="#FFFFFF" height="10" style="stroke:#000000;stroke-width:1;" width="15" x="637.6262" y="312.59"/><rect fill="#FFFFFF" height="2" style="stroke:#000000;stroke-width:1;" width="4" x="635.6262" y="314.59"/><rect fill="#FFFFFF" height="2" style="stroke:#000000;stroke-width:1;" width="4" x="635.6262" y="318.59"/><text fill="#000000" font-family="Verdana" font-size="14" lengthAdjust="spacing" textLength="99.8662" x="532.76" y="340.5851">Pricing Engine</text></g><!--entity Trader--><g class="entity" data-entity="Trader" data-source-line="3" data-uid="ent0002" id="entity_Trader"><ellipse cx="357.6913" cy="19" fill="#FFFFFF" rx="8" ry="8" style="stroke:#000000;stroke-width:1;"/><path d="M357.6913,27 L357.6913,54 M344.6913,35 L370.6913,35 M357.6913,54 L344.6913,69 M357.6913,54 L370.6913,69" fill="none" style="stroke:#000000;stroke-width:1;"/><text fill="#000000" font-family="Verdana" font-size="14" lengthAdjust="spacing" textLength="46.1426" x="334.62" y="83.9951">Trader</text></g><!--entity Exchange--><g class="entity" data-entity="Exchange" data-source-line="4" data-uid="ent0003" id="entity_Exchange"><ellipse cx="394.6967" cy="549.18" fill="#FFFFFF" rx="8" ry="8" style="stroke:#000000;stroke-width:1;"/><path d="M394.6967,557.18 L394.6967,584.18 M381.6967,565.18 L407.6967,565.18 M394.6967,584.18 L381.6967,599.18 M394.6967,584.18 L407.6967,599.18" fill="none" style="stroke:#000000;stroke-width:1;"/><text fill="#000000" font-family="Verdana" font-size="14" lengthAdjust="spacing" textLength="68.6533" x="360.37" y="614.1751">Exchange</text></g><!--entity MarketDataProvider--><g class="entity" data-entity="MarketDataProvider" data-source-line="5" data-uid="ent0004" id="entity_MarketDataProvider"><ellipse cx="765.693" cy="157.29" fill="#FFFFFF" rx="8" ry="8" style="stroke:#000000;stroke-width:1;"/><path d="M765.693,165.29 L765.693,192.29 M752.693,173.29 L778.693,173.29 M765.693,192.29 L752.693,207.29 M765.693,192.29 L778.693,207.29" fill="none" style="stroke:#000000;stroke-width:1;"/><text fill="#000000" font-family="Verdana" font-size="14" lengthAdjust="spacing" textLength="140.2461" x="695.57" y="222.2851">MarketDataProvider</text></g><!--entity Place Order--><g class="entity" data-entity="Place Order" data-source-line="15" data-uid="ent0011" id="entity_Place Order"><ellipse cx="71.6955" cy="186.9391" fill="#FFFFFF" rx="60.6955" ry="14.5391" style="stroke:#000000;stroke-width:1;"/><text fill="#000000" font-family="Verdana" font-size="14" lengthAdjust="spacing" textLength="81.7031" x="30.844" y="191.5875">Place Order</text></g><!--entity Cancel Order--><g class="entity" data-entity="Cancel Order" data-source-line="16" data-uid="ent0013" id="entity_Cancel Order"><ellipse cx="231.7046" cy="186.9429" fill="#FFFFFF" rx="64.4146" ry="15.2829" style="stroke:#000000;stroke-width:1;"/><text fill="#000000" font-family="Verdana" font-size="14" lengthAdjust="spacing" textLength="91.9092" x="185.75" y="191.5914">Cancel Order</text></g><!--entity Track Positions--><g class="entity" data-entity="Track Positions" data-source-line="17" data-uid="ent0015" id="entity_Track Positions"><ellipse cx="400.7" cy="186.936" fill="#FFFFFF" rx="69.63" ry="16.326" style="stroke:#000000;stroke-width:1;"/><text fill="#000000" font-family="Verdana" font-size="14" lengthAdjust="spacing" textLength="105.4443" x="347.9778" y="191.5844">Track Positions</text></g><!--entity View Market Data--><g class="entity" data-entity="View Market Data" data-source-line="18" data-uid="ent0017" id="entity_View Market Data"><ellipse cx="582.7001" cy="186.938" fill="#FFFFFF" rx="77.3901" ry="17.878" style="stroke:#000000;stroke-width:1;"/><text fill="#000000" font-family="Verdana" font-size="14" lengthAdjust="spacing" textLength="124.4824" x="520.4589" y="191.5865">View Market Data</text></g><!--link Trader to Place Order--><g class="link" data-entity-1="Trader" data-entity-2="Place Order" data-source-line="15" data-uid="lnk12" id="link_Trader_Place Order"><path d="M334.28,60.69 C295.74,78.87 216.57,116.29 149.7,148.29 C132.33,156.6 118.2303,163.3953 103.0703,170.7353" fill="none" id="Trader-to-Place Order" style="stroke:#000000;stroke-width:1;"/><polygon fill="#000000" points="97.67,173.35,107.5136,173.0282,102.1703,171.1711,104.0274,165.8278,97.67,173.35" style="stroke:#000000;stroke-width:1;"/></g><!--link Trader to Cancel Order--><g class="link" data-entity-1="Trader" data-entity-2="Cancel Order" data-source-line="16" data-uid="lnk14" id="link_Trader_Cancel Order"><path d="M334.29,74.96 C307.96,103.45 270.1831,144.3143 248.9931,167.2343" fill="none" id="Trader-to-Cancel Order" style="stroke:#000000;stroke-width:1;"/><polygon fill="#000000" points="244.92,171.64,253.9668,167.7469,248.3143,167.9686,248.0926,162.3161,244.92,171.64" style="stroke:#000000;stroke-width:1;"/></g><!--link Trader to Track Positions--><g class="link" data-entity-1="Trader" data-entity-2="Track Positions" data-source-line="17" data-uid="lnk16" id="link_Trader_Track Positions"><path d="M369.67,87.61 C378.27,114.86 387.6154,144.4678 393.9354,164.5078" fill="none" id="Trader-to-Track Positions" style="stroke:#000000;stroke-width:1;"/><polygon fill="#000000" points="395.74,170.23,396.8479,160.4437,394.2362,165.4615,389.2183,162.8498,395.74,170.23" style="stroke:#000000;stroke-width:1;"/></g><!--link Trader to View Market Data--><g class="link" data-entity-1="Trader" data-entity-2="View Market Data" data-source-line="18" data-uid="lnk18" id="link_Trader_View Market Data"><path d="M380.93,63.72 C423.03,89.22 506.5684,139.8208 550.9984,166.7408" fill="none" id="Trader-to-View Market Data" style="stroke:#000000;stroke-width:1;"/><polygon fill="#000000" points="556.13,169.85,550.5055,161.7652,551.8537,167.259,546.3599,168.6072,556.13,169.85" style="stroke:#000000;stroke-width:1;"/></g><!--link Place Order to OM--><g class="link" data-entity-1="Place Order" data-entity-2="OM" data-source-line="20" data-uid="lnk19" id="link_Place Order_OM"><path d="M85.79,201.54 C111.09,225.94 160.1018,273.2143 190.9618,302.9843" fill="none" id="Place Order-to-OM" style="stroke:#000000;stroke-width:1;"/><polygon fill="#000000" points="195.28,307.15,191.5798,298.0226,191.6815,303.6786,186.0255,303.7803,195.28,307.15" style="stroke:#000000;stroke-width:1;"/></g><!--link Cancel Order to OM--><g class="link" data-entity-1="Cancel Order" data-entity-2="OM" data-source-line="21" data-uid="lnk20" id="link_Cancel Order_OM"><path d="M230.35,202.58 C228.08,227.42 223.988,271.9851 221.298,301.3151" fill="none" id="Cancel Order-to-OM" style="stroke:#000000;stroke-width:1;"/><polygon fill="#000000" points="220.75,307.29,225.5553,298.6929,221.2067,302.3109,217.5887,297.9623,220.75,307.29" style="stroke:#000000;stroke-width:1;"/></g><!--link View Market Data to PE--><g class="link" data-entity-1="View Market Data" data-entity-2="PE" data-source-line="22" data-uid="lnk21" id="link_View Market Data_PE"><path d="M583.3,205.04 C584.2,230.68 585.6986,273.0737 586.6986,301.4437" fill="none" id="View Market Data-to-PE" style="stroke:#000000;stroke-width:1;"/><polygon fill="#000000" points="586.91,307.44,590.5905,298.3047,586.7339,302.4431,582.5954,298.5865,586.91,307.44" style="stroke:#000000;stroke-width:1;"/></g><!--link OM to SOR--><g class="link" data-entity-1="OM" data-entity-2="SOR" data-source-line="23" data-uid="lnk22" id="link_OM_SOR"><path d="M218.88,354.27 C219.06,376.06 219.2803,402.8802 219.4603,424.6202" fill="none" id="OM-to-SOR" style="stroke:#000000;stroke-width:1;"/><polygon fill="#000000" points="219.51,430.62,223.4353,421.5872,219.4686,425.6202,215.4356,421.6534,219.51,430.62" style="stroke:#000000;stroke-width:1;"/></g><!--link SOR to Exchange--><g class="link" data-entity-1="SOR" data-entity-2="Exchange" data-source-line="24" data-uid="lnk23" id="link_SOR_Exchange"><path d="M251.79,477.56 C282.48,499.09 323.6988,528.0133 355.1888,550.1133" fill="none" id="SOR-to-Exchange" style="stroke:#000000;stroke-width:1;"/><polygon fill="#000000" points="360.1,553.56,355.031,545.1158,356.0073,550.6877,350.4354,551.664,360.1,553.56" style="stroke:#000000;stroke-width:1;"/></g><!--link Exchange to TC--><g class="link" data-entity-1="Exchange" data-entity-2="TC" data-source-line="25" data-uid="lnk24" id="link_Exchange_TC"><path d="M429.25,565.43 C457.55,553.43 496.3,532.43 517.7,501.18 C543.33,463.75 532.45,446.06 536.7,400.89 C537.4,393.36 540.88,390.18 536.7,383.89 C529.85,373.58 513.0255,364.9734 489.0855,355.9634" fill="none" id="Exchange-to-TC" style="stroke:#000000;stroke-width:1;"/><polygon fill="#000000" points="483.47,353.85,490.4842,360.7638,488.1496,355.6112,493.3021,353.2765,483.47,353.85" style="stroke:#000000;stroke-width:1;"/><text fill="#000000" font-family="Verdana" font-size="13" lengthAdjust="spacing" textLength="93.4121" x="535.7" y="458.5969">Execution Fills</text></g><!--link TC to PK--><g class="link" data-entity-1="TC" data-entity-2="PK" data-source-line="26" data-uid="lnk25" id="link_TC_PK"><path d="M414.37,354.27 C415.98,376.06 417.9769,402.8964 419.5869,424.6364" fill="none" id="TC-to-PK" style="stroke:#000000;stroke-width:1;"/><polygon fill="#000000" points="420.03,430.62,423.3544,421.3492,419.6607,425.6337,415.3762,421.94,420.03,430.62" style="stroke:#000000;stroke-width:1;"/><text fill="#000000" font-family="Verdana" font-size="13" lengthAdjust="spacing" textLength="109.0654" x="418.7" y="396.9569">Update Positions</text></g><!--link MarketDataProvider to PE--><g class="link" data-entity-1="MarketDataProvider" data-entity-2="PE" data-source-line="27" data-uid="lnk26" id="link_MarketDataProvider_PE"><path d="M717.99,225.94 C685.45,251.86 648.1436,281.5923 620.7436,303.4123" fill="none" id="MarketDataProvider-to-PE" style="stroke:#000000;stroke-width:1;"/><polygon fill="#000000" points="616.05,307.15,625.5821,304.6725,619.9613,304.0352,620.5985,298.4144,616.05,307.15" style="stroke:#000000;stroke-width:1;"/></g><!--SRC=[RL4zRuD03DtzAznCpP0_qA4BfGkAG0djWZfO5ukSW3jqc3PIrVzUSv1KA1rEUlUU_Vpr86Vk6FkMh0CW8pvW6UZ4OVca5tCcL_FotLDeM5v8g0Z-qqvnq9Dfg6RSJ8dMrPXu9toH3Nv3bGUDqJId4Hqx-K0QCDz35QjWGhsCWIDR9b0LVh1YlSECkLUlA1GPLCUEWk3iTl2ZS8ZICJzeKh1cgfkwshhPgqZX1s2U17UxPtmiMZ8y6snNGaBESFkVejWqU6rfM8llbh-MTU2qZot0gaQCqa7N_ZVsBZqgsdQ-ZsWQJ5_4jnjSGMJB19zKOZF6XRtQjXr0oUYJgVRMdqZuht-uFzvIz1S0]--></g></svg>