<svg xmlns="http://www.w3.org/2000/svg" xmlns:xlink="http://www.w3.org/1999/xlink" contentStyleType="text/css" data-diagram-type="CLASS" height="614px" preserveAspectRatio="none" style="width:195px;height:614px;background:#FFFFFF;" version="1.1" viewBox="0 0 195 614" width="195px" zoomAndPan="magnify"><defs/><g><!--class Order--><g class="entity" data-entity="Order" data-source-line="3" data-uid="ent0002" id="entity_Order"><rect fill="#FFFFFF" height="174.375" rx="2.5" ry="2.5" style="stroke:#000000;stroke-width:1;" width="158.2646" x="21.29" y="12"/><ellipse cx="76.6567" cy="26" fill="#FFFFFF" rx="9" ry="9" style="stroke:#000000;stroke-width:1;"/><path d="M79.6254,31.6406 Q79.0473,31.9375 78.4067,32.0781 Q77.7661,32.2344 77.0629,32.2344 Q74.5629,32.2344 73.2348,30.5938 Q71.9223,28.9375 71.9223,25.8125 Q71.9223,22.6875 73.2348,21.0313 Q74.5629,19.375 77.0629,19.375 Q77.7661,19.375 78.4067,19.5313 Q79.0629,19.6875 79.6254,19.9844 L79.6254,22.7031 Q79.0004,22.125 78.4067,21.8594 Q77.8129,21.5781 77.1879,21.5781 Q75.8442,21.5781 75.1567,22.6563 Q74.4692,23.7188 74.4692,25.8125 Q74.4692,27.9063 75.1567,28.9844 Q75.8442,30.0469 77.1879,30.0469 Q77.8129,30.0469 78.4067,29.7813 Q79.0004,29.5 79.6254,28.9219 L79.6254,31.6406 Z " fill="#000000"/><text fill="#000000" font-family="Verdana" font-size="14" lengthAdjust="spacing" textLength="40.0313" x="94.1567" y="30.8467">Order</text><line style="stroke:#000000;stroke-width:1;" x1="22.29" x2="178.5546" y1="40" y2="40"/><ellipse cx="32.29" cy="53.6484" fill="none" rx="3" ry="3" style="stroke:#000000;stroke-width:1;"/><text fill="#000000" font-family="Verdana" font-size="14" lengthAdjust="spacing" textLength="63.7246" x="39.29" y="56.9951">id: String</text><ellipse cx="32.29" cy="69.9453" fill="none" rx="3" ry="3" style="stroke:#000000;stroke-width:1;"/><text fill="#000000" font-family="Verdana" font-size="14" lengthAdjust="spacing" textLength="104.3027" x="39.29" y="73.292">side: BUY|SELL</text><ellipse cx="32.29" cy="86.2422" fill="none" rx="3" ry="3" style="stroke:#000000;stroke-width:1;"/><text fill="#000000" font-family="Verdana" font-size="14" lengthAdjust="spacing" textLength="127.7363" x="39.29" y="89.5889">instrument: String</text><ellipse cx="32.29" cy="102.5391" fill="none" rx="3" ry="3" style="stroke:#000000;stroke-width:1;"/><text fill="#000000" font-family="Verdana" font-size="14" lengthAdjust="spacing" textLength="62.043" x="39.29" y="105.8857">qty: long</text><ellipse cx="32.29" cy="118.8359" fill="none" rx="3" ry="3" style="stroke:#000000;stroke-width:1;"/><text fill="#000000" font-family="Verdana" font-size="14" lengthAdjust="spacing" textLength="106.6338" x="39.29" y="122.1826">price: decimal?</text><ellipse cx="32.29" cy="135.1328" fill="none" rx="3" ry="3" style="stroke:#000000;stroke-width:1;"/><text fill="#000000" font-family="Verdana" font-size="14" lengthAdjust="spacing" textLength="134.2646" x="39.29" y="138.4795">timeInForce: String</text><ellipse cx="32.29" cy="151.4297" fill="none" rx="3" ry="3" style="stroke:#000000;stroke-width:1;"/><text fill="#000000" font-family="Verdana" font-size="14" lengthAdjust="spacing" textLength="93.9668" x="39.29" y="154.7764">status: String</text><ellipse cx="32.29" cy="167.7266" fill="none" rx="3" ry="3" style="stroke:#000000;stroke-width:1;"/><text fill="#000000" font-family="Verdana" font-size="14" lengthAdjust="spacing" textLength="95.6758" x="39.29" y="171.0732">route: String?</text><line style="stroke:#000000;stroke-width:1;" x1="22.29" x2="178.5546" y1="178.375" y2="178.375"/></g><!--class Trade--><g class="entity" data-entity="Trade" data-source-line="14" data-uid="ent0003" id="entity_Trade"><rect fill="#FFFFFF" height="158.0781" rx="2.5" ry="2.5" style="stroke:#000000;stroke-width:1;" width="176.8379" x="12" y="263.37"/><ellipse cx="76.4756" cy="277.37" fill="#FFFFFF" rx="9" ry="9" style="stroke:#000000;stroke-width:1;"/><path d="M79.4443,283.0106 Q78.8662,283.3075 78.2256,283.4481 Q77.585,283.6044 76.8818,283.6044 Q74.3818,283.6044 73.0537,281.9638 Q71.7412,280.3075 71.7412,277.1825 Q71.7412,274.0575 73.0537,272.4013 Q74.3818,270.745 76.8818,270.745 Q77.585,270.745 78.2256,270.9013 Q78.8818,271.0575 79.4443,271.3544 L79.4443,274.0731 Q78.8193,273.495 78.2256,273.2294 Q77.6318,272.9481 77.0068,272.9481 Q75.6631,272.9481 74.9756,274.0263 Q74.2881,275.0888 74.2881,277.1825 Q74.2881,279.2763 74.9756,280.3544 Q75.6631,281.4169 77.0068,281.4169 Q77.6318,281.4169 78.2256,281.1513 Q78.8193,280.87 79.4443,280.2919 L79.4443,283.0106 Z " fill="#000000"/><text fill="#000000" font-family="Verdana" font-size="14" lengthAdjust="spacing" textLength="40.3867" x="93.9756" y="282.2167">Trade</text><line style="stroke:#000000;stroke-width:1;" x1="13" x2="187.8379" y1="291.37" y2="291.37"/><ellipse cx="23" cy="305.0184" fill="none" rx="3" ry="3" style="stroke:#000000;stroke-width:1;"/><text fill="#000000" font-family="Verdana" font-size="14" lengthAdjust="spacing" textLength="101.2881" x="30" y="308.3651">tradeId: String</text><ellipse cx="23" cy="321.3153" fill="none" rx="3" ry="3" style="stroke:#000000;stroke-width:1;"/><text fill="#000000" font-family="Verdana" font-size="14" lengthAdjust="spacing" textLength="101.541" x="30" y="324.662">orderId: String</text><ellipse cx="23" cy="337.6122" fill="none" rx="3" ry="3" style="stroke:#000000;stroke-width:1;"/><text fill="#000000" font-family="Verdana" font-size="14" lengthAdjust="spacing" textLength="127.7363" x="30" y="340.9589">instrument: String</text><ellipse cx="23" cy="353.9091" fill="none" rx="3" ry="3" style="stroke:#000000;stroke-width:1;"/><text fill="#000000" font-family="Verdana" font-size="14" lengthAdjust="spacing" textLength="62.043" x="30" y="357.2557">qty: long</text><ellipse cx="23" cy="370.2059" fill="none" rx="3" ry="3" style="stroke:#000000;stroke-width:1;"/><text fill="#000000" font-family="Verdana" font-size="14" lengthAdjust="spacing" textLength="99.2031" x="30" y="373.5526">price: decimal</text><ellipse cx="23" cy="386.5028" fill="none" rx="3" ry="3" style="stroke:#000000;stroke-width:1;"/><text fill="#000000" font-family="Verdana" font-size="14" lengthAdjust="spacing" textLength="94.2061" x="30" y="389.8495">venue: String</text><ellipse cx="23" cy="402.7997" fill="none" rx="3" ry="3" style="stroke:#000000;stroke-width:1;"/><text fill="#000000" font-family="Verdana" font-size="14" lengthAdjust="spacing" textLength="152.8379" x="30" y="406.1464">timestamp: DateTime</text><line style="stroke:#000000;stroke-width:1;" x1="13" x2="187.8379" y1="413.4481" y2="413.4481"/></g><!--class Position--><g class="entity" data-entity="Position" data-source-line="24" data-uid="ent0004" id="entity_Position"><rect fill="#FFFFFF" height="109.1875" rx="2.5" ry="2.5" style="stroke:#000000;stroke-width:1;" width="151.7363" x="24.55" y="498.45"/><ellipse cx="69.1638" cy="512.45" fill="#FFFFFF" rx="9" ry="9" style="stroke:#000000;stroke-width:1;"/><path d="M72.1325,518.0906 Q71.5544,518.3875 70.9138,518.5281 Q70.2731,518.6844 69.57,518.6844 Q67.07,518.6844 65.7419,517.0438 Q64.4294,515.3875 64.4294,512.2625 Q64.4294,509.1375 65.7419,507.4813 Q67.07,505.825 69.57,505.825 Q70.2731,505.825 70.9138,505.9813 Q71.57,506.1375 72.1325,506.4344 L72.1325,509.1531 Q71.5075,508.575 70.9138,508.3094 Q70.32,508.0281 69.695,508.0281 Q68.3513,508.0281 67.6638,509.1063 Q66.9763,510.1688 66.9763,512.2625 Q66.9763,514.3563 67.6638,515.4344 Q68.3513,516.4969 69.695,516.4969 Q70.32,516.4969 70.9138,516.2313 Q71.5075,515.95 72.1325,515.3719 L72.1325,518.0906 Z " fill="#000000"/><text fill="#000000" font-family="Verdana" font-size="14" lengthAdjust="spacing" textLength="55.0088" x="86.6638" y="517.2967">Position</text><line style="stroke:#000000;stroke-width:1;" x1="25.55" x2="175.2863" y1="526.45" y2="526.45"/><ellipse cx="35.55" cy="540.0984" fill="none" rx="3" ry="3" style="stroke:#000000;stroke-width:1;"/><text fill="#000000" font-family="Verdana" font-size="14" lengthAdjust="spacing" textLength="98.0889" x="42.55" y="543.4451">bookId: String</text><ellipse cx="35.55" cy="556.3953" fill="none" rx="3" ry="3" style="stroke:#000000;stroke-width:1;"/><text fill="#000000" font-family="Verdana" font-size="14" lengthAdjust="spacing" textLength="127.7363" x="42.55" y="559.742">instrument: String</text><ellipse cx="35.55" cy="572.6922" fill="none" rx="3" ry="3" style="stroke:#000000;stroke-width:1;"/><text fill="#000000" font-family="Verdana" font-size="14" lengthAdjust="spacing" textLength="87.1514" x="42.55" y="576.0389">netQty: long</text><ellipse cx="35.55" cy="588.9891" fill="none" rx="3" ry="3" style="stroke:#000000;stroke-width:1;"/><text fill="#000000" font-family="Verdana" font-size="14" lengthAdjust="spacing" textLength="124.5098" x="42.55" y="592.3357">avgPrice: decimal</text><line style="stroke:#000000;stroke-width:1;" x1="25.55" x2="175.2863" y1="599.6375" y2="599.6375"/></g><!--link Order to Trade--><g class="link" data-entity-1="Order" data-entity-2="Trade" data-source-line="31" data-uid="lnk5" id="link_Order_Trade"><path codeLine="31" d="M100.42,186.59 C100.42,211.6 100.42,232.75 100.42,257.23" fill="none" id="Order-to-Trade" style="stroke:#000000;stroke-width:1;"/><polygon fill="#000000" points="100.42,263.23,104.42,254.23,100.42,258.23,96.42,254.23,100.42,263.23" style="stroke:#000000;stroke-width:1;"/><text fill="#000000" font-family="Verdana" font-size="13" lengthAdjust="spacing" textLength="59.8203" x="101.42" y="229.4369">results in</text><text fill="#000000" font-family="Verdana" font-size="13" lengthAdjust="spacing" textLength="8.271" x="92.0998" y="206.5215">1</text><text fill="#000000" font-family="Verdana" font-size="13" lengthAdjust="spacing" textLength="6.5" x="94.1666" y="252.3123">*</text></g><!--link Trade to Position--><g class="link" data-entity-1="Trade" data-entity-2="Position" data-source-line="32" data-uid="lnk6" id="link_Trade_Position"><path codeLine="32" d="M100.42,421.69 C100.42,447.13 100.42,468.78 100.42,492.03" fill="none" id="Trade-to-Position" style="stroke:#000000;stroke-width:1;"/><polygon fill="#000000" points="100.42,498.03,104.42,489.03,100.42,493.03,96.42,489.03,100.42,498.03" style="stroke:#000000;stroke-width:1;"/><text fill="#000000" font-family="Verdana" font-size="13" lengthAdjust="spacing" textLength="52.5776" x="101.42" y="464.5169">updates</text></g><!--SRC=[bP4_JmCn3CNtV0fpOqyTM3Eq4WAaIfLerJ8mXejL8lBdi9rALUbt9r7XxfWGc_tyvFTpSYDl611wRrnKglE66Px88i5PjSvgs0cvU50jEuiQxfvVFdSFwtMPHHRA0QECdWyvQV2fbZsvhlWjTYuOlrIjk82h-9YeoiDICP9vx2bb6SPBTVaXsfEnM8ca5gi9LggiK-5VNAezOimJe4fPe4AluTu8xaixKcmIEt4fLf3NbDx_Yeqesp7P70-Rt-5byVMfczi6vlC5DBFc-rGDX9ozC9HlkKhLC11eoBqjWFm5]--></g></svg>