<svg xmlns="http://www.w3.org/2000/svg" xmlns:xlink="http://www.w3.org/1999/xlink" contentStyleType="text/css" data-diagram-type="DESCRIPTION" height="211px" preserveAspectRatio="none" style="width:804px;height:211px;background:#FFFFFF;" version="1.1" viewBox="0 0 804 211" width="804px" zoomAndPan="magnify"><defs/><g><!--cluster FinanceSystem--><g class="cluster" data-entity="FinanceSystem" data-source-line="7" data-uid="ent0005" id="cluster_FinanceSystem"><rect fill="#FFFFFF" height="93.08" rx="2.5" ry="2.5" style="stroke:#000000;stroke-width:1;" width="786" x="12" y="112.29"/><text fill="#000000" font-family="Verdana" font-size="14" font-weight="bold" lengthAdjust="spacing" textLength="119.8545" x="345.0728" y="127.2851">FinanceSystem</text></g><!--entity UC1--><g class="entity" data-entity="UC1" data-source-line="8" data-uid="ent0006" id="entity_UC1"><ellipse cx="102.9993" cy="168.3259" fill="#FFFFFF" rx="75.4793" ry="17.4959" style="stroke:#000000;stroke-width:1;"/><text fill="#000000" font-family="Verdana" font-size="14" lengthAdjust="spacing" textLength="119.8887" x="43.055" y="172.9743">Generate Invoice</text></g><!--entity UC2--><g class="entity" data-entity="UC2" data-source-line="9" data-uid="ent0007" id="entity_UC2"><ellipse cx="509.0027" cy="168.3345" fill="#FFFFFF" rx="73.7227" ry="17.1445" style="stroke:#000000;stroke-width:1;"/><text fill="#000000" font-family="Verdana" font-size="14" lengthAdjust="spacing" textLength="115.6162" x="451.1946" y="172.983">Record Payment</text></g><!--entity UC3--><g class="entity" data-entity="UC3" data-source-line="10" data-uid="ent0008" id="entity_UC3"><ellipse cx="699.9968" cy="168.3314" fill="#FFFFFF" rx="82.3068" ry="18.8614" style="stroke:#000000;stroke-width:1;"/><text fill="#000000" font-family="Verdana" font-size="14" lengthAdjust="spacing" textLength="136.083" x="631.9553" y="172.9798">Reconcile Accounts</text></g><!--entity UC4--><g class="entity" data-entity="UC4" data-source-line="11" data-uid="ent0009" id="entity_UC4"><ellipse cx="306.9994" cy="168.3279" fill="#FFFFFF" rx="93.1894" ry="21.0379" style="stroke:#000000;stroke-width:1;"/><text fill="#000000" font-family="Verdana" font-size="14" lengthAdjust="spacing" textLength="160.9248" x="226.537" y="172.9763">Post to General Ledger</text></g><!--entity BackOffice--><g class="entity" data-entity="BackOffice" data-source-line="3" data-uid="ent0002" id="entity_BackOffice"><ellipse cx="349.0027" cy="19" fill="#FFFFFF" rx="8" ry="8" style="stroke:#000000;stroke-width:1;"/><path d="M349.0027,27 L349.0027,54 M336.0027,35 L362.0027,35 M349.0027,54 L336.0027,69 M349.0027,54 L362.0027,69" fill="none" style="stroke:#000000;stroke-width:1;"/><text fill="#000000" font-family="Verdana" font-size="14" lengthAdjust="spacing" textLength="75.0654" x="311.47" y="83.9951">BackOffice</text></g><!--entity Counterparty--><g class="entity" data-entity="Counterparty" data-source-line="4" data-uid="ent0003" id="entity_Counterparty"><ellipse cx="509.0007" cy="19" fill="#FFFFFF" rx="8" ry="8" style="stroke:#000000;stroke-width:1;"/><path d="M509.0007,27 L509.0007,54 M496.0007,35 L522.0007,35 M509.0007,54 L496.0007,69 M509.0007,54 L522.0007,69" fill="none" style="stroke:#000000;stroke-width:1;"/><text fill="#000000" font-family="Verdana" font-size="14" lengthAdjust="spacing" textLength="92.9414" x="462.53" y="83.9951">Counterparty</text></g><!--entity Bank--><g class="entity" data-entity="Bank" data-source-line="5" data-uid="ent0004" id="entity_Bank"><ellipse cx="700.002" cy="19" fill="#FFFFFF" rx="8" ry="8" style="stroke:#000000;stroke-width:1;"/><path d="M700.002,27 L700.002,54 M687.002,35 L713.002,35 M700.002,54 L687.002,69 M700.002,54 L713.002,69" fill="none" style="stroke:#000000;stroke-width:1;"/><text fill="#000000" font-family="Verdana" font-size="14" lengthAdjust="spacing" textLength="35.1641" x="682.42" y="83.9951">Bank</text></g><!--link BackOffice to UC1--><g class="link" data-entity-1="BackOffice" data-entity-2="UC1" data-source-line="14" data-uid="lnk10" id="link_BackOffice_UC1"><path d="M311.12,60.25 C279.47,69.79 233.61,85.22 196,104.29 C169.56,117.7 146.5158,133.7911 128.2658,147.5911" fill="none" id="BackOffice-to-UC1" style="stroke:#000000;stroke-width:1;"/><polygon fill="#000000" points="123.48,151.21,133.0713,148.9723,127.4682,148.1943,128.2461,142.5912,123.48,151.21" style="stroke:#000000;stroke-width:1;"/></g><!--link BackOffice to UC2--><g class="link" data-entity-1="BackOffice" data-entity-2="UC2" data-source-line="15" data-uid="lnk11" id="link_BackOffice_UC2"><path d="M386.92,77.54 C418.34,100.65 457.0264,129.1053 482.7264,148.0053" fill="none" id="BackOffice-to-UC2" style="stroke:#000000;stroke-width:1;"/><polygon fill="#000000" points="487.56,151.56,482.6793,143.0055,483.532,148.5977,477.9397,149.4504,487.56,151.56" style="stroke:#000000;stroke-width:1;"/></g><!--link BackOffice to UC3--><g class="link" data-entity-1="BackOffice" data-entity-2="UC3" data-source-line="16" data-uid="lnk12" id="link_BackOffice_UC3"><path d="M387.01,67.24 C404.35,74.55 425.36,82.46 445,87.29 C512.29,103.87 534.57,81.45 600,104.29 C629.45,114.58 654.4176,131.2204 673.7176,146.0104" fill="none" id="BackOffice-to-UC3" style="stroke:#000000;stroke-width:1;"/><polygon fill="#000000" points="678.48,149.66,673.7694,141.0107,674.5113,146.6187,668.9033,147.3606,678.48,149.66" style="stroke:#000000;stroke-width:1;"/></g><!--link BackOffice to UC4--><g class="link" data-entity-1="BackOffice" data-entity-2="UC4" data-source-line="17" data-uid="lnk13" id="link_BackOffice_UC4"><path d="M335.48,87.53 C328.43,107.29 322.1085,125.0197 316.2785,141.3397" fill="none" id="BackOffice-to-UC4" style="stroke:#000000;stroke-width:1;"/><polygon fill="#000000" points="314.26,146.99,321.0545,139.8602,315.942,142.2814,313.5208,137.1689,314.26,146.99" style="stroke:#000000;stroke-width:1;"/></g><!--link Counterparty to UC2--><g class="link" data-entity-1="Counterparty" data-entity-2="UC2" data-source-line="18" data-uid="lnk14" id="link_Counterparty_UC2"><path d="M509,87.53 C509,108.9 509,128.51 509,144.85" fill="none" id="Counterparty-to-UC2" style="stroke:#000000;stroke-width:1;"/><polygon fill="#000000" points="509,150.85,513,141.85,509,145.85,505,141.85,509,150.85" style="stroke:#000000;stroke-width:1;"/></g><!--link Bank to UC3--><g class="link" data-entity-1="Bank" data-entity-2="UC3" data-source-line="19" data-uid="lnk15" id="link_Bank_UC3"><path d="M700,87.53 C700,108.23 700,126.9 700,143.28" fill="none" id="Bank-to-UC3" style="stroke:#000000;stroke-width:1;"/><polygon fill="#000000" points="700,149.28,704,140.28,700,144.28,696,140.28,700,149.28" style="stroke:#000000;stroke-width:1;"/></g><!--SRC=[PP3Dgi9G38JtUOheteK_Qy4hA8AWA3v0YAEMjZboJXIA-Ex-tDvRfTkPRp99Edv22JuNaXcHg8V8FwBvwd385BKm3HTpnBD4h_uPouaYrCME1NYMcPXYMoL7oJUw9AWaS7SEGnG7B-mQdYExB8btqtv3RA0XxdajLGdpsXzy-wRPisIY-jearSomOTOXENlWtxQ2bzWV4MjkH7UYvYZkzSRl3LhIe2qDszA8Fl_n4RNyB_G0]--></g></svg>