<svg xmlns="http://www.w3.org/2000/svg" xmlns:xlink="http://www.w3.org/1999/xlink" contentStyleType="text/css" data-diagram-type="DESCRIPTION" height="246px" preserveAspectRatio="none" style="width:787px;height:246px;background:#FFFFFF;" version="1.1" viewBox="0 0 787 246" width="787px" zoomAndPan="magnify"><defs/><g><!--cluster RiskSystem--><g class="cluster" data-entity="RiskSystem" data-source-line="6" data-uid="ent0004" id="cluster_RiskSystem"><rect fill="#FFFFFF" height="89.81" rx="2.5" ry="2.5" style="stroke:#000000;stroke-width:1;" width="765" x="12" y="150.29"/><text fill="#000000" font-family="Verdana" font-size="14" font-weight="bold" lengthAdjust="spacing" textLength="91.54" x="348.73" y="165.2851">RiskSystem</text></g><!--entity UC1--><g class="entity" data-entity="UC1" data-source-line="7" data-uid="ent0005" id="entity_UC1"><ellipse cx="684.0024" cy="204.6965" fill="#FFFFFF" rx="76.6824" ry="17.7365" style="stroke:#000000;stroke-width:1;"/><text fill="#000000" font-family="Verdana" font-size="14" lengthAdjust="spacing" textLength="122.7871" x="622.6088" y="209.3449">Monitor Exposure</text></g><!--entity UC2--><g class="entity" data-entity="UC2" data-source-line="8" data-uid="ent0006" id="entity_UC2"><ellipse cx="113.0047" cy="204.7029" fill="#FFFFFF" rx="85.0147" ry="19.4029" style="stroke:#000000;stroke-width:1;"/><text fill="#000000" font-family="Verdana" font-size="14" lengthAdjust="spacing" textLength="142.3584" x="41.8255" y="209.3514">Run VaR Calculation</text></g><!--entity UC3--><g class="entity" data-entity="UC3" data-source-line="9" data-uid="ent0007" id="entity_UC3"><ellipse cx="302.0012" cy="204.6962" fill="#FFFFFF" rx="68.6312" ry="16.1262" style="stroke:#000000;stroke-width:1;"/><text fill="#000000" font-family="Verdana" font-size="14" lengthAdjust="spacing" textLength="102.9082" x="250.5471" y="209.3447">Set Risk Limits</text></g><!--entity UC4--><g class="entity" data-entity="UC4" data-source-line="10" data-uid="ent0008" id="entity_UC4"><ellipse cx="488.9994" cy="204.6959" fill="#FFFFFF" rx="83.0794" ry="19.0159" style="stroke:#000000;stroke-width:1;"/><text fill="#000000" font-family="Verdana" font-size="14" lengthAdjust="spacing" textLength="137.8809" x="420.059" y="209.3443">Perform Stress Test</text></g><!--entity RiskManager--><g class="entity" data-entity="RiskManager" data-source-line="3" data-uid="ent0002" id="entity_RiskManager"><ellipse cx="359.0024" cy="19" fill="#FFFFFF" rx="8" ry="8" style="stroke:#000000;stroke-width:1;"/><path d="M359.0024,27 L359.0024,54 M346.0024,35 L372.0024,35 M359.0024,54 L346.0024,69 M359.0024,54 L372.0024,69" fill="none" style="stroke:#000000;stroke-width:1;"/><text fill="#000000" font-family="Verdana" font-size="14" lengthAdjust="spacing" textLength="90.3848" x="313.81" y="83.9951">RiskManager</text></g><!--entity Trader--><g class="entity" data-entity="Trader" data-source-line="4" data-uid="ent0003" id="entity_Trader"><ellipse cx="684.0013" cy="19" fill="#FFFFFF" rx="8" ry="8" style="stroke:#000000;stroke-width:1;"/><path d="M684.0013,27 L684.0013,54 M671.0013,35 L697.0013,35 M684.0013,54 L671.0013,69 M684.0013,54 L697.0013,69" fill="none" style="stroke:#000000;stroke-width:1;"/><text fill="#000000" font-family="Verdana" font-size="14" lengthAdjust="spacing" textLength="46.1426" x="660.93" y="83.9951">Trader</text></g><!--link RiskManager to UC1--><g class="link" data-entity-1="RiskManager" data-entity-2="UC1" data-source-line="13" data-uid="lnk9" id="link_RiskManager_UC1"><path d="M404.45,64.87 C451.9,81.45 527.91,109.97 590,142.29 C615.76,155.71 638.4887,170.835 657.0687,184.035" fill="none" id="RiskManager-to-UC1" style="stroke:#000000;stroke-width:1;"/><polygon fill="#000000" points="661.96,187.51,656.9397,179.0367,657.8839,184.6142,652.3064,185.5584,661.96,187.51" style="stroke:#000000;stroke-width:1;"/></g><!--link RiskManager to UC2--><g class="link" data-entity-1="RiskManager" data-entity-2="UC2" data-source-line="14" data-uid="lnk10" id="link_RiskManager_UC2"><path d="M313.59,78.08 C263.2,109.64 188.5153,156.4057 146.3553,182.8057" fill="none" id="RiskManager-to-UC2" style="stroke:#000000;stroke-width:1;"/><polygon fill="#000000" points="141.27,185.99,151.0208,184.6037,145.5077,183.3364,146.775,177.8233,141.27,185.99" style="stroke:#000000;stroke-width:1;"/></g><!--link RiskManager to UC3--><g class="link" data-entity-1="RiskManager" data-entity-2="UC3" data-source-line="15" data-uid="lnk11" id="link_RiskManager_UC3"><path d="M344.91,87.73 C332.91,120.16 318.3599,159.4621 309.7599,182.7321" fill="none" id="RiskManager-to-UC3" style="stroke:#000000;stroke-width:1;"/><polygon fill="#000000" points="307.68,188.36,314.5519,181.3047,309.4133,183.67,307.048,178.5314,307.68,188.36" style="stroke:#000000;stroke-width:1;"/></g><!--link RiskManager to UC4--><g class="link" data-entity-1="RiskManager" data-entity-2="UC4" data-source-line="16" data-uid="lnk12" id="link_RiskManager_UC4"><path d="M391.13,87.73 C417.45,118.91 449.6509,157.0642 469.8409,180.9942" fill="none" id="RiskManager-to-UC4" style="stroke:#000000;stroke-width:1;"/><polygon fill="#000000" points="473.71,185.58,470.9635,176.1218,470.4857,181.7585,464.8491,181.2807,473.71,185.58" style="stroke:#000000;stroke-width:1;"/></g><!--link Trader to UC1--><g class="link" data-entity-1="Trader" data-entity-2="UC1" data-source-line="17" data-uid="lnk13" id="link_Trader_UC1"><path d="M684,87.73 C684,119.45 684,157.12 684,180.79" fill="none" id="Trader-to-UC1" style="stroke:#000000;stroke-width:1;"/><polygon fill="#000000" points="684,186.79,688,177.79,684,181.79,680,177.79,684,186.79" style="stroke:#000000;stroke-width:1;"/><text fill="#000000" font-family="Verdana" font-size="13" lengthAdjust="spacing" textLength="94.3198" x="685" y="130.3569">view exposure</text></g><!--SRC=[RSyz3u9030RW_Nv5PMSGc1nSY9ia1j2zmOeNuOvSYnyn_dSLps0YOzyyQVlEv4WjGTUWDafX9TP1hlcKeS6Qd4zAX_lNe1nLWgPkQ335ZOLQkAkUgK8c239hzDklhftbtb40oB1DvwF8UmCxp275fkeR56sDHz682fBX0AnrguKzY4Um8NUmheL27353IImU9UgXr4y12CFbyC5_5arayKIMg4_zxofOm5dJ1SYNV080]--></g></svg>