<svg xmlns="http://www.w3.org/2000/svg" xmlns:xlink="http://www.w3.org/1999/xlink" contentStyleType="text/css" data-diagram-type="DESCRIPTION" height="211px" preserveAspectRatio="none" style="width:881px;height:211px;background:#FFFFFF;" version="1.1" viewBox="0 0 881 211" width="881px" zoomAndPan="magnify"><defs/><g><!--cluster ComplianceSystem--><g class="cluster" data-entity="ComplianceSystem" data-source-line="6" data-uid="ent0004" id="cluster_ComplianceSystem"><rect fill="#FFFFFF" height="93.69" rx="2.5" ry="2.5" style="stroke:#000000;stroke-width:1;" width="863" x="12" y="112.29"/><text fill="#000000" font-family="Verdana" font-size="14" font-weight="bold" lengthAdjust="spacing" textLength="149.625" x="368.6875" y="127.2851">ComplianceSystem</text></g><!--entity UC1--><g class="entity" data-entity="UC1" data-source-line="7" data-uid="ent0005" id="entity_UC1"><ellipse cx="770.9963" cy="168.6413" fill="#FFFFFF" rx="87.6563" ry="19.9313" style="stroke:#000000;stroke-width:1;"/><text fill="#000000" font-family="Verdana" font-size="14" lengthAdjust="spacing" textLength="148.415" x="696.7887" y="173.2897">Run KYC/AML Checks</text></g><!--entity UC2--><g class="entity" data-entity="UC2" data-source-line="8" data-uid="ent0006" id="entity_UC2"><ellipse cx="115.0041" cy="168.6368" fill="#FFFFFF" rx="87.2341" ry="19.8468" style="stroke:#000000;stroke-width:1;"/><text fill="#000000" font-family="Verdana" font-size="14" lengthAdjust="spacing" textLength="147.4512" x="41.2785" y="173.2853">Detect Market Abuse</text></g><!--entity UC3--><g class="entity" data-entity="UC3" data-source-line="9" data-uid="ent0007" id="entity_UC3"><ellipse cx="331.9973" cy="168.6435" fill="#FFFFFF" rx="94.7173" ry="21.3435" style="stroke:#000000;stroke-width:1;"/><text fill="#000000" font-family="Verdana" font-size="14" lengthAdjust="spacing" textLength="164.3428" x="249.8259" y="173.2919">File Regulatory Reports</text></g><!--entity UC4--><g class="entity" data-entity="UC4" data-source-line="10" data-uid="ent0008" id="entity_UC4"><ellipse cx="555.0037" cy="168.6367" fill="#FFFFFF" rx="93.6837" ry="21.1367" style="stroke:#000000;stroke-width:1;"/><text fill="#000000" font-family="Verdana" font-size="14" lengthAdjust="spacing" textLength="162.0322" x="473.9876" y="173.2852">Monitor Sanctions Lists</text></g><!--entity ComplianceOfficer--><g class="entity" data-entity="ComplianceOfficer" data-source-line="3" data-uid="ent0002" id="entity_ComplianceOfficer"><ellipse cx="444.0001" cy="19" fill="#FFFFFF" rx="8" ry="8" style="stroke:#000000;stroke-width:1;"/><path d="M444.0001,27 L444.0001,54 M431.0001,35 L457.0001,35 M444.0001,54 L431.0001,69 M444.0001,54 L457.0001,69" fill="none" style="stroke:#000000;stroke-width:1;"/><text fill="#000000" font-family="Verdana" font-size="14" lengthAdjust="spacing" textLength="129.2402" x="379.38" y="83.9951">ComplianceOfficer</text></g><!--entity Trader--><g class="entity" data-entity="Trader" data-source-line="4" data-uid="ent0003" id="entity_Trader"><ellipse cx="771.0013" cy="19" fill="#FFFFFF" rx="8" ry="8" style="stroke:#000000;stroke-width:1;"/><path d="M771.0013,27 L771.0013,54 M758.0013,35 L784.0013,35 M771.0013,54 L758.0013,69 M771.0013,54 L784.0013,69" fill="none" style="stroke:#000000;stroke-width:1;"/><text fill="#000000" font-family="Verdana" font-size="14" lengthAdjust="spacing" textLength="46.1426" x="747.93" y="83.9951">Trader</text></g><!--link ComplianceOfficer to UC1--><g class="link" data-entity-1="ComplianceOfficer" data-entity-2="UC1" data-source-line="13" data-uid="lnk9" id="link_ComplianceOfficer_UC1"><path d="M508.78,60.24 C553.95,68.91 615.01,83.21 666,104.29 C694.72,116.17 719.8888,131.7109 740.4588,145.7909" fill="none" id="ComplianceOfficer-to-UC1" style="stroke:#000000;stroke-width:1;"/><polygon fill="#000000" points="745.41,149.18,740.2426,140.7956,741.284,146.3558,735.7238,147.3972,745.41,149.18" style="stroke:#000000;stroke-width:1;"/></g><!--link ComplianceOfficer to UC2--><g class="link" data-entity-1="ComplianceOfficer" data-entity-2="UC2" data-source-line="14" data-uid="lnk10" id="link_ComplianceOfficer_UC2"><path d="M379.13,60.07 C333.5,68.69 271.63,83.01 220,104.29 C191.07,116.22 165.6886,131.9472 145.1086,146.0572" fill="none" id="ComplianceOfficer-to-UC2" style="stroke:#000000;stroke-width:1;"/><polygon fill="#000000" points="140.16,149.45,149.8448,147.6598,144.2838,146.6226,145.321,141.0617,140.16,149.45" style="stroke:#000000;stroke-width:1;"/></g><!--link ComplianceOfficer to UC3--><g class="link" data-entity-1="ComplianceOfficer" data-entity-2="UC3" data-source-line="15" data-uid="lnk11" id="link_ComplianceOfficer_UC3"><path d="M407.95,87.63 C389.02,107.57 370.7196,126.8373 355.1696,143.2273" fill="none" id="ComplianceOfficer-to-UC3" style="stroke:#000000;stroke-width:1;"/><polygon fill="#000000" points="351.04,147.58,360.1363,143.804,354.4814,143.9527,354.3326,138.2978,351.04,147.58" style="stroke:#000000;stroke-width:1;"/></g><!--link ComplianceOfficer to UC4--><g class="link" data-entity-1="ComplianceOfficer" data-entity-2="UC4" data-source-line="16" data-uid="lnk12" id="link_ComplianceOfficer_UC4"><path d="M479.73,87.63 C498.49,107.57 516.6101,126.8187 532.0201,143.2087" fill="none" id="ComplianceOfficer-to-UC4" style="stroke:#000000;stroke-width:1;"/><polygon fill="#000000" points="536.13,147.58,532.8793,138.2831,532.705,143.9372,527.0509,143.763,536.13,147.58" style="stroke:#000000;stroke-width:1;"/></g><!--link Trader to UC1--><g class="link" data-entity-1="Trader" data-entity-2="UC1" data-source-line="17" data-uid="lnk13" id="link_Trader_UC1"><path d="M771,87.63 C771,107.84 771,125.83 771,142.24" fill="none" id="Trader-to-UC1" style="stroke:#000000;stroke-width:1;"/><polygon fill="#000000" points="771,148.24,775,139.24,771,143.24,767,139.24,771,148.24" style="stroke:#000000;stroke-width:1;"/></g><!--SRC=[TP113u8m38Nl-nMLEp4APnE2yIB41FJWiSw22x2HRHo8yRyx5SJ4S6lxlho-Tc5lr12qDGh967AhDCIgQMk1ajEXA0GdFSoF6g-kOPguHLdMz4FclR7Km9rrXZWQ0Y_h9EpFyJ9A4uXln2lZ0HeunQk9sP9rNf2YhiX2T7720AqdQ2VSfepAhaQNedTbgxGTtO89J9KKhvov2sI5aWOIORvWo1wC_Pq6lhzvPvfJrhDACAk4xFEgqVm9]--></g></svg>