<svg xmlns="http://www.w3.org/2000/svg" xmlns:xlink="http://www.w3.org/1999/xlink" contentStyleType="text/css" data-diagram-type="DESCRIPTION" height="205px" preserveAspectRatio="none" style="width:699px;height:205px;background:#FFFFFF;" version="1.1" viewBox="0 0 699 205" width="699px" zoomAndPan="magnify"><defs/><g><!--cluster TradingSystem--><g class="cluster" data-entity="TradingSystem" data-source-line="8" data-uid="ent0006" id="cluster_TradingSystem"><rect fill="#FFFFFF" height="86.76" rx="2.5" ry="2.5" style="stroke:#000000;stroke-width:1;" width="681" x="12" y="112.29"/><text fill="#000000" font-family="Verdana" font-size="14" font-weight="bold" lengthAdjust="spacing" textLength="119.0273" x="292.9863" y="127.2851">TradingSystem</text></g><!--entity UC1--><g class="entity" data-entity="UC1" data-source-line="9" data-uid="ent0007" id="entity_UC1"><ellipse cx="262.9955" cy="165.1691" fill="#FFFFFF" rx="60.6955" ry="14.5391" style="stroke:#000000;stroke-width:1;"/><text fill="#000000" font-family="Verdana" font-size="14" lengthAdjust="spacing" textLength="81.7031" x="222.144" y="169.8175">Place Order</text></g><!--entity UC2--><g class="entity" data-entity="UC2" data-source-line="10" data-uid="ent0008" id="entity_UC2"><ellipse cx="423.0046" cy="165.1729" fill="#FFFFFF" rx="64.4146" ry="15.2829" style="stroke:#000000;stroke-width:1;"/><text fill="#000000" font-family="Verdana" font-size="14" lengthAdjust="spacing" textLength="91.9092" x="377.05" y="169.8214">Cancel Order</text></g><!--entity UC3--><g class="entity" data-entity="UC3" data-source-line="11" data-uid="ent0009" id="entity_UC3"><ellipse cx="600.0001" cy="165.168" fill="#FFFFFF" rx="77.3901" ry="17.878" style="stroke:#000000;stroke-width:1;"/><text fill="#000000" font-family="Verdana" font-size="14" lengthAdjust="spacing" textLength="124.4824" x="537.7589" y="169.8165">View Market Data</text></g><!--entity UC4--><g class="entity" data-entity="UC4" data-source-line="12" data-uid="ent0010" id="entity_UC4"><ellipse cx="98" cy="165.166" fill="#FFFFFF" rx="69.63" ry="16.326" style="stroke:#000000;stroke-width:1;"/><text fill="#000000" font-family="Verdana" font-size="14" lengthAdjust="spacing" textLength="105.4443" x="45.2778" y="169.8144">Track Positions</text></g><!--entity Trader--><g class="entity" data-entity="Trader" data-source-line="3" data-uid="ent0002" id="entity_Trader"><ellipse cx="280.0013" cy="19" fill="#FFFFFF" rx="8" ry="8" style="stroke:#000000;stroke-width:1;"/><path d="M280.0013,27 L280.0013,54 M267.0013,35 L293.0013,35 M280.0013,54 L267.0013,69 M280.0013,54 L293.0013,69" fill="none" style="stroke:#000000;stroke-width:1;"/><text fill="#000000" font-family="Verdana" font-size="14" lengthAdjust="spacing" textLength="46.1426" x="256.93" y="83.9951">Trader</text></g><!--entity RiskManager--><g class="entity" data-entity="RiskManager" data-source-line="4" data-uid="ent0003" id="entity_RiskManager"><ellipse cx="98.0024" cy="19" fill="#FFFFFF" rx="8" ry="8" style="stroke:#000000;stroke-width:1;"/><path d="M98.0024,27 L98.0024,54 M85.0024,35 L111.0024,35 M98.0024,54 L85.0024,69 M98.0024,54 L111.0024,69" fill="none" style="stroke:#000000;stroke-width:1;"/><text fill="#000000" font-family="Verdana" font-size="14" lengthAdjust="spacing" textLength="90.3848" x="52.81" y="83.9951">RiskManager</text></g><!--entity Exchange--><g class="entity" data-entity="Exchange" data-source-line="5" data-uid="ent0004" id="entity_Exchange"><ellipse cx="388.9967" cy="19" fill="#FFFFFF" rx="8" ry="8" style="stroke:#000000;stroke-width:1;"/><path d="M388.9967,27 L388.9967,54 M375.9967,35 L401.9967,35 M388.9967,54 L375.9967,69 M388.9967,54 L401.9967,69" fill="none" style="stroke:#000000;stroke-width:1;"/><text fill="#000000" font-family="Verdana" font-size="14" lengthAdjust="spacing" textLength="68.6533" x="354.67" y="83.9951">Exchange</text></g><!--entity MarketDataProvider--><g class="entity" data-entity="MarketDataProvider" data-source-line="6" data-uid="ent0005" id="entity_MarketDataProvider"><ellipse cx="600.003" cy="19" fill="#FFFFFF" rx="8" ry="8" style="stroke:#000000;stroke-width:1;"/><path d="M600.003,27 L600.003,54 M587.003,35 L613.003,35 M600.003,54 L587.003,69 M600.003,54 L613.003,69" fill="none" style="stroke:#000000;stroke-width:1;"/><text fill="#000000" font-family="Verdana" font-size="14" lengthAdjust="spacing" textLength="140.2461" x="529.88" y="83.9951">MarketDataProvider</text></g><!--link Trader to UC1--><g class="link" data-entity-1="Trader" data-entity-2="UC1" data-source-line="15" data-uid="lnk11" id="link_Trader_UC1"><path d="M274.34,87.78 C271.15,109.25 268.2403,128.8449 265.9503,144.2849" fill="none" id="Trader-to-UC1" style="stroke:#000000;stroke-width:1;"/><polygon fill="#000000" points="265.07,150.22,270.3471,141.9042,265.8036,145.2741,262.4337,140.7305,265.07,150.22" style="stroke:#000000;stroke-width:1;"/></g><!--link Trader to UC2--><g class="link" data-entity-1="Trader" data-entity-2="UC2" data-source-line="16" data-uid="lnk12" id="link_Trader_UC2"><path d="M303.29,68.3 C331.94,91.25 375.2375,125.9185 400.8875,146.4685" fill="none" id="Trader-to-UC2" style="stroke:#000000;stroke-width:1;"/><polygon fill="#000000" points="405.57,150.22,401.0472,141.471,401.6679,147.0937,396.0452,147.7144,405.57,150.22" style="stroke:#000000;stroke-width:1;"/></g><!--link Trader to UC3--><g class="link" data-entity-1="Trader" data-entity-2="UC3" data-source-line="17" data-uid="lnk13" id="link_Trader_UC3"><path d="M303.3,68.73 C313.13,75.76 325.05,83.03 337,87.29 C407.69,112.48 434.04,79.86 505,104.29 C533.2,114.01 556.8774,129.8376 575.1874,143.9476" fill="none" id="Trader-to-UC3" style="stroke:#000000;stroke-width:1;"/><polygon fill="#000000" points="579.94,147.61,575.2528,138.948,575.9795,144.558,570.3696,145.2848,579.94,147.61" style="stroke:#000000;stroke-width:1;"/></g><!--link Trader to UC4--><g class="link" data-entity-1="Trader" data-entity-2="UC4" data-source-line="18" data-uid="lnk14" id="link_Trader_UC4"><path d="M256.65,62.38 C237.23,73.14 208.98,89.18 185,104.29 C161.89,118.86 141.0977,133.28 123.6677,145.69" fill="none" id="Trader-to-UC4" style="stroke:#000000;stroke-width:1;"/><polygon fill="#000000" points="118.78,149.17,128.4315,147.2085,122.8531,146.27,123.7916,140.6915,118.78,149.17" style="stroke:#000000;stroke-width:1;"/></g><!--link RiskManager to UC4--><g class="link" data-entity-1="RiskManager" data-entity-2="UC4" data-source-line="19" data-uid="lnk15" id="link_RiskManager_UC4"><path d="M98,87.78 C98,108.47 98,126.93 98,142.49" fill="none" id="RiskManager-to-UC4" style="stroke:#000000;stroke-width:1;"/><polygon fill="#000000" points="98,148.49,102,139.49,98,143.49,94,139.49,98,148.49" style="stroke:#000000;stroke-width:1;"/></g><!--link Exchange to UC1--><g class="link" data-entity-1="Exchange" data-entity-2="UC1" data-source-line="20" data-uid="lnk16" id="link_Exchange_UC1"><path d="M354.24,81.24 C329.18,104.02 301.051,129.5955 282.371,146.5655" fill="none" id="Exchange-to-UC1" style="stroke:#000000;stroke-width:1;"/><polygon fill="#000000" points="277.93,150.6,287.2812,147.5089,281.6309,147.2379,281.9019,141.5876,277.93,150.6" style="stroke:#000000;stroke-width:1;"/></g><!--link Exchange to UC2--><g class="link" data-entity-1="Exchange" data-entity-2="UC2" data-source-line="21" data-uid="lnk17" id="link_Exchange_UC2"><path d="M400.32,87.78 C406.62,108.99 412.3819,128.4083 416.9819,143.8983" fill="none" id="Exchange-to-UC2" style="stroke:#000000;stroke-width:1;"/><polygon fill="#000000" points="418.69,149.65,419.9624,139.8837,417.2666,144.8569,412.2934,142.1611,418.69,149.65" style="stroke:#000000;stroke-width:1;"/></g><!--link MarketDataProvider to UC3--><g class="link" data-entity-1="MarketDataProvider" data-entity-2="UC3" data-source-line="22" data-uid="lnk18" id="link_MarketDataProvider_UC3"><path d="M600,87.78 C600,107.82 600,125.4 600,141" fill="none" id="MarketDataProvider-to-UC3" style="stroke:#000000;stroke-width:1;"/><polygon fill="#000000" points="600,147,604,138,600,142,596,138,600,147" style="stroke:#000000;stroke-width:1;"/></g><!--SRC=[PL3B3e8m4BplLwpSEGYSlQ178l5rtzGDD61hslgAyTy5B21wdCVEP6VcIZundckI2e24qmPtXeviFDX8MsMag1YOrLsKf0hsC2DJiLkIezpegsmlmR1mZQNcBakgOlkmZa_uX8jbGPOno6iIZ6lJ-0CaY_jqFeefAS7rH8r6zI3vvcknxVMEU7GqhQB2N5lff5RM6n9u0NoUmp1ST9KJ64rXF8K9V6qnSFqQG-8F4S7_G7t-6m00]--></g></svg>