<svg xmlns="http://www.w3.org/2000/svg" xmlns:xlink="http://www.w3.org/1999/xlink" contentStyleType="text/css" data-diagram-type="STATE" height="739px" preserveAspectRatio="none" style="width:256px;height:739px;background:#FFFFFF;" version="1.1" viewBox="0 0 256 739" width="256px" zoomAndPan="magnify"><defs/><g><ellipse cx="137.37" cy="21" fill="#FFFFFF" rx="10" ry="10" style="stroke:#000000;stroke-width:1;"/><g id="Scheduled"><rect fill="#FFFFFF" height="50" rx="12.5" ry="12.5" style="stroke:#000000;stroke-width:1;" width="93.2197" x="90.76" y="92"/><line style="stroke:#000000;stroke-width:1;" x1="90.76" x2="183.9797" y1="118.2969" y2="118.2969"/><text fill="#000000" font-family="Verdana" font-size="14" lengthAdjust="spacing" textLength="73.2197" x="100.76" y="109.9951">Scheduled</text></g><g id="InTransit"><rect fill="#FFFFFF" height="50" rx="12.5" ry="12.5" style="stroke:#000000;stroke-width:1;" width="81.4346" x="96.65" y="219"/><line style="stroke:#000000;stroke-width:1;" x1="96.65" x2="178.0846" y1="245.2969" y2="245.2969"/><text fill="#000000" font-family="Verdana" font-size="14" lengthAdjust="spacing" textLength="61.4346" x="106.65" y="236.9951">InTransit</text></g><g id="Arrived"><rect fill="#FFFFFF" height="50" rx="12.5" ry="12.5" style="stroke:#000000;stroke-width:1;" width="70.7637" x="101.99" y="346"/><line style="stroke:#000000;stroke-width:1;" x1="101.99" x2="172.7537" y1="372.2969" y2="372.2969"/><text fill="#000000" font-family="Verdana" font-size="14" lengthAdjust="spacing" textLength="50.7637" x="111.99" y="363.9951">Arrived</text></g><g id="Received"><rect fill="#FFFFFF" height="50" rx="12.5" ry="12.5" style="stroke:#000000;stroke-width:1;" width="84.3262" x="95.21" y="473"/><line style="stroke:#000000;stroke-width:1;" x1="95.21" x2="179.5362" y1="499.2969" y2="499.2969"/><text fill="#000000" font-family="Verdana" font-size="14" lengthAdjust="spacing" textLength="64.3262" x="105.21" y="490.9951">Received</text></g><g id="QualityDisputed"><rect fill="#FFFFFF" height="50" rx="12.5" ry="12.5" style="stroke:#000000;stroke-width:1;" width="132.7383" x="12" y="600"/><line style="stroke:#000000;stroke-width:1;" x1="12" x2="144.7383" y1="626.2969" y2="626.2969"/><text fill="#000000" font-family="Verdana" font-size="14" lengthAdjust="spacing" textLength="112.7383" x="22" y="617.9951">QualityDisputed</text></g><ellipse cx="146.37" cy="722" fill="none" rx="11" ry="11" style="stroke:#000000;stroke-width:1;"/><ellipse cx="146.37" cy="722" fill="#FFFFFF" rx="6" ry="6" style="stroke:#000000;stroke-width:1;"/><!--link *start* to Scheduled--><g class="link" data-entity-1=".start." data-entity-2="Scheduled" data-source-line="3" data-uid="lnk4" id="link_.start._Scheduled"><path d="M137.37,31.36 C137.37,45.29 137.37,65.95 137.37,85.65" fill="none" id="*start*-to-Scheduled" style="stroke:#000000;stroke-width:1;"/><polygon fill="#000000" points="137.37,91.65,141.37,82.65,137.37,86.65,133.37,82.65,137.37,91.65" style="stroke:#000000;stroke-width:1;"/></g><!--link Scheduled to InTransit--><g class="link" data-entity-1="Scheduled" data-entity-2="InTransit" data-source-line="4" data-uid="lnk6" id="link_Scheduled_InTransit"><path d="M137.37,142.4 C137.37,164.42 137.37,190.66 137.37,212.66" fill="none" id="Scheduled-to-InTransit" style="stroke:#000000;stroke-width:1;"/><polygon fill="#000000" points="137.37,218.66,141.37,209.66,137.37,213.66,133.37,209.66,137.37,218.66" style="stroke:#000000;stroke-width:1;"/><text fill="#000000" font-family="Verdana" font-size="13" lengthAdjust="spacing" textLength="60.9185" x="138.37" y="185.0669">Departed</text></g><!--link InTransit to Arrived--><g class="link" data-entity-1="InTransit" data-entity-2="Arrived" data-source-line="5" data-uid="lnk8" id="link_InTransit_Arrived"><path d="M137.37,269.4 C137.37,291.42 137.37,317.66 137.37,339.66" fill="none" id="InTransit-to-Arrived" style="stroke:#000000;stroke-width:1;"/><polygon fill="#000000" points="137.37,345.66,141.37,336.66,137.37,340.66,133.37,336.66,137.37,345.66" style="stroke:#000000;stroke-width:1;"/><text fill="#000000" font-family="Verdana" font-size="13" lengthAdjust="spacing" textLength="110.1826" x="138.37" y="312.0669">ArrivalConfirmed</text></g><!--link Arrived to Received--><g class="link" data-entity-1="Arrived" data-entity-2="Received" data-source-line="6" data-uid="lnk10" id="link_Arrived_Received"><path d="M137.37,396.4 C137.37,418.42 137.37,444.66 137.37,466.66" fill="none" id="Arrived-to-Received" style="stroke:#000000;stroke-width:1;"/><polygon fill="#000000" points="137.37,472.66,141.37,463.66,137.37,467.66,133.37,463.66,137.37,472.66" style="stroke:#000000;stroke-width:1;"/><text fill="#000000" font-family="Verdana" font-size="13" lengthAdjust="spacing" textLength="88.1943" x="138.37" y="439.0669">RecordArrival</text></g><!--link Received to QualityDisputed--><g class="link" data-entity-1="Received" data-entity-2="QualityDisputed" data-source-line="7" data-uid="lnk12" id="link_Received_QualityDisputed"><path d="M94.81,516.87 C79.87,525.46 64.74,537.35 56.37,553 C48.51,567.68 51.34,580.294 58.88,594.454" fill="none" id="Received-to-QualityDisputed" style="stroke:#000000;stroke-width:1;"/><polygon fill="#000000" points="61.7,599.75,61.0006,589.926,59.35,595.3367,53.9393,593.6861,61.7,599.75" style="stroke:#000000;stroke-width:1;"/><text fill="#000000" font-family="Verdana" font-size="13" lengthAdjust="spacing" textLength="131.8154" x="57.37" y="566.0669">RaiseQualityDispute</text></g><!--link Received to *end*--><g class="link" data-entity-1="Received" data-entity-2=".end." data-source-line="9" data-uid="lnk14" id="link_Received_.end."><path d="M171.18,523.28 C180.1,531.6 188.56,541.69 193.37,553 C218.36,611.82 173.7072,682.9203 156.0072,707.8103" fill="none" id="Received-to-*end*" style="stroke:#000000;stroke-width:1;"/><polygon fill="#000000" points="152.53,712.7,161.0056,707.6836,155.4277,708.6253,154.486,703.0473,152.53,712.7" style="stroke:#000000;stroke-width:1;"/></g><!--link QualityDisputed to *end*--><g class="link" data-entity-1="QualityDisputed" data-entity-2=".end." data-source-line="10" data-uid="lnk15" id="link_QualityDisputed_.end."><path d="M95.88,650.46 C110.52,670.92 127.0492,694 136.8992,707.77" fill="none" id="QualityDisputed-to-*end*" style="stroke:#000000;stroke-width:1;"/><polygon fill="#000000" points="140.39,712.65,138.4072,703.0028,137.481,708.5833,131.9005,707.6572,140.39,712.65" style="stroke:#000000;stroke-width:1;"/></g><!--SRC=[NSyz3i8m30NWtQSmAr8lq049qOMHdmqnM8rHBQLfv2H8t9w4XgAoFJr_R_0c3ZmoUalY06xREpRD3Y_zm2PPDh2aJtzqLoKN96AB7NlIcCclB6IlAi_CspcHFKpk8Jfc-3qLTkQUgyjnKbCrB8UYJecin5SdmQSuOvB0wnhMc_m3_Ezg_mO0]--></g></svg>